SyriacProto-Light.ufo
<glyph name="exclam" format="2">
  <advance width="428"/>
  <unicode hex="0021"/>
  <note>
exclam
</note>
  <outline>
    <contour>
      <point x="234" y="276" type="line"/>
      <point x="297" y="851" type="line"/>
      <point x="301" y="881" type="line"/>
      <point x="303" y="903" type="line" smooth="yes"/>
      <point x="309" y="978"/>
      <point x="283" y="1015"/>
      <point x="226" y="1015" type="curve" smooth="yes"/>
      <point x="178" y="1015"/>
      <point x="155" y="978"/>
      <point x="158" y="903" type="curve" smooth="yes"/>
      <point x="160" y="832"/>
      <point x="169" y="736"/>
      <point x="186" y="615" type="curve" smooth="yes"/>
      <point x="202" y="508" type="line" smooth="yes"/>
      <point x="207" y="477"/>
      <point x="210" y="452"/>
      <point x="210" y="435" type="curve"/>
    </contour>
    <contour>
      <point x="225" y="3" type="curve"/>
      <point x="277" y="9"/>
      <point x="303" y="32"/>
      <point x="303" y="73" type="curve" smooth="yes"/>
      <point x="303" y="108"/>
      <point x="262" y="142"/>
      <point x="226" y="142" type="curve" smooth="yes"/>
      <point x="181" y="142"/>
      <point x="158" y="120"/>
      <point x="158" y="75" type="curve" smooth="yes"/>
      <point x="158" y="50"/>
      <point x="166" y="31"/>
      <point x="182" y="18" type="curve"/>
      <point x="199" y="8"/>
      <point x="214" y="3"/>
    </contour>
  </outline>
</glyph>
<glyph name="quotedbl" format="2">
  <advance width="836"/>
  <unicode hex="0022"/>
  <note>
quotedbl
</note>
  <outline>
    <contour>
      <point x="644" y="770" type="curve" smooth="yes"/>
      <point x="667" y="770"/>
      <point x="681" y="786"/>
      <point x="686" y="817" type="curve" smooth="yes"/>
      <point x="734" y="1147" type="line"/>
      <point x="553" y="1147" type="line"/>
      <point x="601" y="817" type="line" smooth="yes"/>
      <point x="606" y="786"/>
      <point x="620" y="770"/>
    </contour>
    <contour>
      <point x="352" y="770" type="curve" smooth="yes"/>
      <point x="375" y="770"/>
      <point x="389" y="786"/>
      <point x="394" y="817" type="curve" smooth="yes"/>
      <point x="442" y="1147" type="line"/>
      <point x="261" y="1147" type="line"/>
      <point x="309" y="817" type="line" smooth="yes"/>
      <point x="314" y="786"/>
      <point x="329" y="770"/>
    </contour>
  </outline>
</glyph>
<glyph name="numbersign" format="2">
  <advance width="968"/>
  <unicode hex="0023"/>
  <outline>
    <contour>
      <point x="268" y="2" type="line"/>
      <point x="337" y="2" type="line"/>
      <point x="387" y="327" type="line"/>
      <point x="608" y="327" type="line"/>
      <point x="561" y="2" type="line"/>
      <point x="626" y="2" type="line"/>
      <point x="676" y="327" type="line"/>
      <point x="838" y="327" type="line"/>
      <point x="838" y="388" type="line"/>
      <point x="684" y="388" type="line"/>
      <point x="715" y="611" type="line"/>
      <point x="877" y="611" type="line"/>
      <point x="877" y="674" type="line"/>
      <point x="727" y="674" type="line"/>
      <point x="773" y="962" type="line"/>
      <point x="704" y="962" type="line"/>
      <point x="660" y="674" type="line"/>
      <point x="439" y="674" type="line"/>
      <point x="485" y="962" type="line"/>
      <point x="418" y="962" type="line"/>
      <point x="374" y="674" type="line"/>
      <point x="199" y="674" type="line"/>
      <point x="199" y="611" type="line"/>
      <point x="365" y="611" type="line"/>
      <point x="329" y="388" type="line"/>
      <point x="158" y="388" type="line"/>
      <point x="158" y="327" type="line"/>
      <point x="318" y="327" type="line"/>
    </contour>
    <contour>
      <point x="396" y="388" type="line"/>
      <point x="431" y="611" type="line"/>
      <point x="652" y="611" type="line"/>
      <point x="617" y="388" type="line"/>
    </contour>
  </outline>
</glyph>
<glyph name="dollar" format="2">
  <advance width="758"/>
  <unicode hex="0024"/>
  <note>
dollar
</note>
  <outline>
    <contour>
      <point x="397" y="-122" type="line"/>
      <point x="421" y="-122" type="line"/>
      <point x="421" y="-7" type="line"/>
      <point x="503" y="10"/>
      <point x="563" y="32"/>
      <point x="601" y="59" type="curve" smooth="yes"/>
      <point x="656" y="96"/>
      <point x="683" y="151"/>
      <point x="683" y="224" type="curve" smooth="yes"/>
      <point x="683" y="298"/>
      <point x="651" y="358"/>
      <point x="588" y="405" type="curve" smooth="yes"/>
      <point x="563" y="424"/>
      <point x="507" y="460"/>
      <point x="421" y="511" type="curve"/>
      <point x="421" y="862" type="line"/>
      <point x="488" y="847"/>
      <point x="534" y="829"/>
      <point x="560" y="808" type="curve" smooth="yes"/>
      <point x="595" y="780"/>
      <point x="621" y="734"/>
      <point x="638" y="671" type="curve"/>
      <point x="638" y="805" type="line"/>
      <point x="618" y="824"/>
      <point x="595" y="837"/>
      <point x="569" y="846" type="curve"/>
      <point x="546" y="858"/>
      <point x="496" y="868"/>
      <point x="421" y="875" type="curve"/>
      <point x="421" y="959" type="line"/>
      <point x="397" y="959" type="line"/>
      <point x="397" y="877" type="line"/>
      <point x="201" y="854"/>
      <point x="152" y="775"/>
      <point x="152" y="678" type="curve" smooth="yes"/>
      <point x="152" y="624"/>
      <point x="175" y="575"/>
      <point x="220" y="530" type="curve" smooth="yes"/>
      <point x="254" y="497"/>
      <point x="313" y="457"/>
      <point x="397" y="411" type="curve"/>
      <point x="397" y="14" type="line"/>
      <point x="262" y="14"/>
      <point x="177" y="83"/>
      <point x="144" y="220" type="curve"/>
      <point x="144" y="58" type="line"/>
      <point x="179" y="37"/>
      <point x="204" y="26"/>
      <point x="220" y="23" type="curve"/>
      <point x="263" y="3"/>
      <point x="322" y="-7"/>
      <point x="397" y="-7" type="curve"/>
    </contour>
    <contour>
      <point x="421" y="12" type="curve"/>
      <point x="421" y="405" type="line"/>
      <point x="500" y="352"/>
      <point x="550" y="312"/>
      <point x="569" y="283" type="curve" smooth="yes"/>
      <point x="586" y="258"/>
      <point x="595" y="227"/>
      <point x="595" y="190" type="curve" smooth="yes"/>
      <point x="595" y="133"/>
      <point x="578" y="90"/>
      <point x="545" y="62" type="curve" smooth="yes"/>
      <point x="520" y="41"/>
      <point x="478" y="24"/>
    </contour>
    <contour>
      <point x="395" y="515" type="line"/>
      <point x="318" y="573" type="line" smooth="yes"/>
      <point x="291" y="592"/>
      <point x="275" y="606"/>
      <point x="270" y="613" type="curve" smooth="yes"/>
      <point x="247" y="640"/>
      <point x="235" y="672"/>
      <point x="235" y="708" type="curve" smooth="yes"/>
      <point x="235" y="735"/>
      <point x="241" y="760"/>
      <point x="254" y="781" type="curve" smooth="yes"/>
      <point x="276" y="819"/>
      <point x="323" y="846"/>
      <point x="395" y="862" type="curve"/>
    </contour>
  </outline>
</glyph>
<glyph name="percent" format="2">
  <advance width="1195"/>
  <unicode hex="0025"/>
  <note>
percent
</note>
  <outline>
    <contour>
      <point x="339" y="5" type="line"/>
      <point x="386" y="5" type="line"/>
      <point x="895" y="918" type="line"/>
      <point x="861" y="918" type="line"/>
      <point x="787" y="862" type="line"/>
      <point x="744" y="840"/>
      <point x="696" y="829"/>
      <point x="644" y="829" type="curve" smooth="yes"/>
      <point x="614" y="829"/>
      <point x="589" y="833"/>
      <point x="570" y="842" type="curve" smooth="yes"/>
      <point x="549" y="851"/>
      <point x="533" y="860"/>
      <point x="523" y="868" type="curve" smooth="yes"/>
      <point x="483" y="900"/>
      <point x="483" y="900"/>
      <point x="427" y="900" type="curve" smooth="yes"/>
      <point x="355" y="900"/>
      <point x="290" y="866"/>
      <point x="231" y="798" type="curve" smooth="yes"/>
      <point x="174" y="733"/>
      <point x="146" y="664"/>
      <point x="146" y="591" type="curve" smooth="yes"/>
      <point x="146" y="531"/>
      <point x="164" y="485"/>
      <point x="200" y="452" type="curve" smooth="yes"/>
      <point x="226" y="429"/>
      <point x="258" y="417"/>
      <point x="295" y="417" type="curve" smooth="yes"/>
      <point x="371" y="417"/>
      <point x="436" y="457"/>
      <point x="490" y="536" type="curve" smooth="yes"/>
      <point x="541" y="611"/>
      <point x="566" y="684"/>
      <point x="564" y="755" type="curve" smooth="yes"/>
      <point x="562" y="827" type="line"/>
      <point x="592" y="817"/>
      <point x="621" y="812"/>
      <point x="649" y="812" type="curve"/>
      <point x="716" y="820" type="line"/>
      <point x="735" y="825"/>
      <point x="757" y="835"/>
      <point x="783" y="848" type="curve"/>
      <point x="796" y="799" type="line"/>
      <point x="787" y="799" type="line"/>
    </contour>
    <contour>
      <point x="319" y="443" type="curve" smooth="yes"/>
      <point x="260" y="443"/>
      <point x="230" y="479"/>
      <point x="230" y="552" type="curve" smooth="yes"/>
      <point x="230" y="618"/>
      <point x="250" y="688"/>
      <point x="291" y="762" type="curve" smooth="yes"/>
      <point x="334" y="840"/>
      <point x="383" y="879"/>
      <point x="436" y="879" type="curve" smooth="yes"/>
      <point x="449" y="878"/>
      <point x="461" y="873"/>
      <point x="471" y="866" type="curve"/>
      <point x="481" y="854"/>
      <point x="503" y="845"/>
      <point x="538" y="838" type="curve"/>
      <point x="544" y="809"/>
      <point x="547" y="785"/>
      <point x="547" y="766" type="curve" smooth="yes"/>
      <point x="547" y="694"/>
      <point x="527" y="625"/>
      <point x="488" y="558" type="curve" smooth="yes"/>
      <point x="443" y="481"/>
      <point x="386" y="443"/>
    </contour>
    <contour>
      <point x="826" y="23" type="curve" smooth="yes"/>
      <point x="901" y="23"/>
      <point x="964" y="62"/>
      <point x="1015" y="140" type="curve" smooth="yes"/>
      <point x="1065" y="215"/>
      <point x="1090" y="292"/>
      <point x="1090" y="370" type="curve" smooth="yes"/>
      <point x="1090" y="429"/>
      <point x="1073" y="468"/>
      <point x="1038" y="489" type="curve" smooth="yes"/>
      <point x="1019" y="500"/>
      <point x="989" y="506"/>
      <point x="948" y="506" type="curve" smooth="yes"/>
      <point x="878" y="506"/>
      <point x="814" y="472"/>
      <point x="756" y="405" type="curve" smooth="yes"/>
      <point x="700" y="340"/>
      <point x="672" y="272"/>
      <point x="672" y="201" type="curve" smooth="yes"/>
      <point x="672" y="82"/>
      <point x="723" y="23"/>
    </contour>
    <contour>
      <point x="848" y="47" type="curve" smooth="yes"/>
      <point x="819" y="47"/>
      <point x="795" y="56"/>
      <point x="776" y="75" type="curve" smooth="yes"/>
      <point x="762" y="92"/>
      <point x="755" y="121"/>
      <point x="755" y="161" type="curve" smooth="yes"/>
      <point x="755" y="207"/>
      <point x="772" y="267"/>
      <point x="805" y="341" type="curve" smooth="yes"/>
      <point x="848" y="435"/>
      <point x="902" y="482"/>
      <point x="967" y="482" type="curve" smooth="yes"/>
      <point x="1030" y="482"/>
      <point x="1075" y="425"/>
      <point x="1075" y="361" type="curve" smooth="yes"/>
      <point x="1075" y="295"/>
      <point x="1054" y="227"/>
      <point x="1012" y="157" type="curve" smooth="yes"/>
      <point x="968" y="84"/>
      <point x="913" y="47"/>
    </contour>
  </outline>
</glyph>
<glyph name="quotesingle" format="2">
  <advance width="360"/>
  <unicode hex="0027"/>
  <note>
quotesingle
</note>
  <outline>
    <contour>
      <point x="179" y="980" type="curve" smooth="yes"/>
      <point x="123" y="980"/>
      <point x="82" y="938"/>
      <point x="82" y="858" type="curve" smooth="yes"/>
      <point x="82" y="789"/>
      <point x="130" y="632"/>
      <point x="153" y="542" type="curve"/>
      <point x="207" y="542" type="line"/>
      <point x="229" y="632"/>
      <point x="277" y="789"/>
      <point x="277" y="858" type="curve" smooth="yes"/>
      <point x="277" y="938"/>
      <point x="235" y="980"/>
    </contour>
  </outline>
</glyph>
<glyph name="parenleft" format="2">
  <advance width="416"/>
  <unicode hex="0028"/>
  <note>
parenleft
</note>
  <outline>
    <contour>
      <point x="312" y="2" type="curve" smooth="yes"/>
      <point x="331" y="2"/>
      <point x="341" y="11"/>
      <point x="341" y="30" type="curve" smooth="yes"/>
      <point x="341" y="34"/>
      <point x="339" y="39"/>
      <point x="336" y="45" type="curve" smooth="yes"/>
      <point x="283" y="146"/>
      <point x="248" y="228"/>
      <point x="229" y="293" type="curve" smooth="yes"/>
      <point x="208" y="368"/>
      <point x="197" y="442"/>
      <point x="197" y="517" type="curve" smooth="yes"/>
      <point x="197" y="591"/>
      <point x="208" y="665"/>
      <point x="229" y="740" type="curve" smooth="yes"/>
      <point x="248" y="805"/>
      <point x="283" y="888"/>
      <point x="336" y="989" type="curve" smooth="yes"/>
      <point x="339" y="995"/>
      <point x="341" y="1000"/>
      <point x="341" y="1004" type="curve" smooth="yes"/>
      <point x="341" y="1023"/>
      <point x="331" y="1032"/>
      <point x="312" y="1032" type="curve" smooth="yes"/>
      <point x="289" y="1032"/>
      <point x="254" y="981"/>
      <point x="207" y="880" type="curve" smooth="yes"/>
      <point x="167" y="793"/>
      <point x="142" y="727"/>
      <point x="131" y="683" type="curve" smooth="yes"/>
      <point x="118" y="624"/>
      <point x="111" y="569"/>
      <point x="111" y="517" type="curve" smooth="yes"/>
      <point x="111" y="400"/>
      <point x="145" y="276"/>
      <point x="212" y="144" type="curve" smooth="yes"/>
      <point x="260" y="49"/>
      <point x="293" y="2"/>
    </contour>
  </outline>
</glyph>
<glyph name="parenright" format="2">
  <advance width="506"/>
  <unicode hex="0029"/>
  <note>
parenright
</note>
  <outline>
    <contour>
      <point x="180" y="-16" type="curve" smooth="yes"/>
      <point x="199" y="-16"/>
      <point x="232" y="31"/>
      <point x="280" y="126" type="curve" smooth="yes"/>
      <point x="347" y="258"/>
      <point x="381" y="382"/>
      <point x="381" y="499" type="curve" smooth="yes"/>
      <point x="381" y="551"/>
      <point x="374" y="606"/>
      <point x="361" y="665" type="curve" smooth="yes"/>
      <point x="350" y="709"/>
      <point x="325" y="775"/>
      <point x="285" y="862" type="curve" smooth="yes"/>
      <point x="238" y="963"/>
      <point x="203" y="1014"/>
      <point x="180" y="1014" type="curve" smooth="yes"/>
      <point x="161" y="1014"/>
      <point x="151" y="1005"/>
      <point x="151" y="986" type="curve" smooth="yes"/>
      <point x="151" y="982"/>
      <point x="153" y="977"/>
      <point x="156" y="971" type="curve" smooth="yes"/>
      <point x="209" y="870"/>
      <point x="244" y="787"/>
      <point x="263" y="722" type="curve" smooth="yes"/>
      <point x="284" y="647"/>
      <point x="295" y="573"/>
      <point x="295" y="499" type="curve" smooth="yes"/>
      <point x="295" y="424"/>
      <point x="284" y="350"/>
      <point x="263" y="275" type="curve" smooth="yes"/>
      <point x="244" y="210"/>
      <point x="209" y="128"/>
      <point x="156" y="27" type="curve" smooth="yes"/>
      <point x="153" y="21"/>
      <point x="151" y="16"/>
      <point x="151" y="12" type="curve" smooth="yes"/>
      <point x="151" y="-7"/>
      <point x="161" y="-16"/>
    </contour>
  </outline>
</glyph>
<glyph name="plus" format="2">
  <advance width="1028"/>
  <unicode hex="002B"/>
  <note>
plus
</note>
  <outline>
    <contour>
      <point x="453" y="3" type="line"/>
      <point x="574" y="3" type="line"/>
      <point x="574" y="308" type="line"/>
      <point x="878" y="308" type="line"/>
      <point x="878" y="430" type="line"/>
      <point x="574" y="430" type="line"/>
      <point x="574" y="735" type="line"/>
      <point x="453" y="735" type="line"/>
      <point x="453" y="430" type="line"/>
      <point x="150" y="430" type="line"/>
      <point x="150" y="308" type="line"/>
      <point x="453" y="308" type="line"/>
    </contour>
  </outline>
</glyph>
<glyph name="comma" format="2">
  <advance width="316"/>
  <unicode hex="002C"/>
  <note>
comma
</note>
  <outline>
    <contour>
      <point x="93" y="-202" type="curve"/>
      <point x="191" y="-126"/>
      <point x="240" y="-40"/>
      <point x="240" y="57" type="curve" smooth="yes"/>
      <point x="240" y="83"/>
      <point x="233" y="105"/>
      <point x="219" y="123" type="curve" smooth="yes"/>
      <point x="204" y="144"/>
      <point x="183" y="154"/>
      <point x="158" y="154" type="curve" smooth="yes"/>
      <point x="115" y="154"/>
      <point x="80" y="117"/>
      <point x="80" y="74" type="curve" smooth="yes"/>
      <point x="80" y="31"/>
      <point x="100" y="4"/>
      <point x="140" y="-7" type="curve"/>
      <point x="140" y="-44"/>
      <point x="117" y="-74"/>
      <point x="72" y="-95" type="curve"/>
      <point x="86" y="-104"/>
      <point x="93" y="-140"/>
    </contour>
  </outline>
</glyph>
<glyph name="hyphen" format="2">
  <advance width="877"/>
  <unicode hex="002D"/>
  <note>
hyphen
</note>
  <outline>
    <contour>
      <point x="144" y="306" type="line"/>
      <point x="717" y="306" type="line"/>
      <point x="717" y="429" type="line"/>
      <point x="144" y="429" type="line"/>
    </contour>
  </outline>
</glyph>
<glyph name="slash" format="2">
  <advance width="845"/>
  <unicode hex="002F"/>
  <note>
slash
</note>
  <outline>
    <contour>
      <point x="248" y="-76" type="curve" smooth="yes"/>
      <point x="260" y="-76"/>
      <point x="270" y="-68"/>
      <point x="278" y="-51" type="curve" smooth="yes"/>
      <point x="738" y="933" type="line" smooth="yes"/>
      <point x="743" y="943"/>
      <point x="745" y="951"/>
      <point x="745" y="956" type="curve" smooth="yes"/>
      <point x="745" y="974"/>
      <point x="735" y="983"/>
      <point x="716" y="983" type="curve" smooth="yes"/>
      <point x="703" y="983"/>
      <point x="693" y="975"/>
      <point x="685" y="958" type="curve" smooth="yes"/>
      <point x="226" y="-27" type="line" smooth="yes"/>
      <point x="222" y="-36"/>
      <point x="220" y="-44"/>
      <point x="220" y="-49" type="curve" smooth="yes"/>
      <point x="220" y="-67"/>
      <point x="229" y="-76"/>
    </contour>
  </outline>
</glyph>
<glyph name="zero" format="2">
  <advance width="905"/>
  <unicode hex="0030"/>
  <note>
zero
</note>
  <outline>
    <contour>
      <point x="470" y="-1" type="curve" smooth="yes"/>
      <point x="583" y="-1"/>
      <point x="667" y="56"/>
      <point x="723" y="170" type="curve" smooth="yes"/>
      <point x="764" y="253"/>
      <point x="784" y="348"/>
      <point x="784" y="454" type="curve" smooth="yes"/>
      <point x="784" y="560"/>
      <point x="763" y="654"/>
      <point x="721" y="736" type="curve" smooth="yes"/>
      <point x="688" y="801"/>
      <point x="653" y="845"/>
      <point x="617" y="866" type="curve" smooth="yes"/>
      <point x="576" y="891"/>
      <point x="527" y="903"/>
      <point x="470" y="903" type="curve" smooth="yes"/>
      <point x="413" y="903"/>
      <point x="364" y="890"/>
      <point x="321" y="863" type="curve" smooth="yes"/>
      <point x="281" y="837"/>
      <point x="246" y="795"/>
      <point x="216" y="736" type="curve" smooth="yes"/>
      <point x="175" y="656"/>
      <point x="155" y="562"/>
      <point x="155" y="454" type="curve" smooth="yes"/>
      <point x="155" y="341"/>
      <point x="175" y="246"/>
      <point x="216" y="168" type="curve" smooth="yes"/>
      <point x="275" y="55"/>
      <point x="360" y="-1"/>
    </contour>
    <contour>
      <point x="470" y="31" type="curve" smooth="yes"/>
      <point x="394" y="31"/>
      <point x="341" y="88"/>
      <point x="312" y="203" type="curve" smooth="yes"/>
      <point x="297" y="262"/>
      <point x="290" y="346"/>
      <point x="290" y="454" type="curve" smooth="yes"/>
      <point x="290" y="558"/>
      <point x="298" y="640"/>
      <point x="313" y="699" type="curve" smooth="yes"/>
      <point x="344" y="816"/>
      <point x="396" y="874"/>
      <point x="470" y="874" type="curve" smooth="yes"/>
      <point x="544" y="874"/>
      <point x="596" y="815"/>
      <point x="626" y="697" type="curve" smooth="yes"/>
      <point x="642" y="634"/>
      <point x="650" y="553"/>
      <point x="650" y="454" type="curve" smooth="yes"/>
      <point x="650" y="382"/>
      <point x="646" y="321"/>
      <point x="637" y="272" type="curve" smooth="yes"/>
      <point x="627" y="215"/>
      <point x="615" y="171"/>
      <point x="600" y="142" type="curve"/>
      <point x="571" y="68"/>
      <point x="528" y="31"/>
    </contour>
  </outline>
</glyph>
<glyph name="one" format="2">
  <advance width="670"/>
  <unicode hex="0031"/>
  <note>
one
</note>
  <outline>
    <contour>
      <point x="165" y="-1" type="line"/>
      <point x="550" y="-1" type="line"/>
      <point x="550" y="16" type="line"/>
      <point x="485" y="20" type="line"/>
      <point x="438" y="34" type="line"/>
      <point x="425" y="48"/>
      <point x="418" y="69"/>
      <point x="418" y="96" type="curve" smooth="yes"/>
      <point x="418" y="883" type="line"/>
      <point x="403" y="885" type="line"/>
      <point x="156" y="772" type="line"/>
      <point x="156" y="751" type="line"/>
      <point x="227" y="779" type="line"/>
      <point x="256" y="786" type="line"/>
      <point x="259" y="784"/>
      <point x="269" y="780"/>
      <point x="286" y="775" type="curve"/>
      <point x="296" y="754"/>
      <point x="301" y="735"/>
      <point x="301" y="718" type="curve" smooth="yes"/>
      <point x="301" y="120" type="line" smooth="yes"/>
      <point x="301" y="75"/>
      <point x="287" y="46"/>
      <point x="260" y="31" type="curve"/>
      <point x="233" y="21"/>
      <point x="201" y="16"/>
      <point x="165" y="16" type="curve"/>
    </contour>
  </outline>
</glyph>
<glyph name="two" format="2">
  <advance width="895"/>
  <unicode hex="0032"/>
  <note>
two
</note>
  <outline>
    <contour>
      <point x="150" y="1" type="line"/>
      <point x="687" y="1" type="line"/>
      <point x="763" y="181" type="line"/>
      <point x="744" y="187" type="line"/>
      <point x="712" y="144" type="line"/>
      <point x="706" y="133"/>
      <point x="693" y="120"/>
      <point x="674" y="107" type="curve"/>
      <point x="657" y="100"/>
      <point x="636" y="96"/>
      <point x="612" y="96" type="curve" smooth="yes"/>
      <point x="278" y="96" type="line"/>
      <point x="514" y="336" type="line"/>
      <point x="583" y="408" type="line"/>
      <point x="627" y="467" type="line" smooth="yes"/>
      <point x="672" y="526"/>
      <point x="694" y="589"/>
      <point x="694" y="655" type="curve" smooth="yes"/>
      <point x="694" y="726"/>
      <point x="669" y="783"/>
      <point x="619" y="826" type="curve" smooth="yes"/>
      <point x="572" y="867"/>
      <point x="513" y="887"/>
      <point x="440" y="887" type="curve" smooth="yes"/>
      <point x="317" y="887"/>
      <point x="233" y="839"/>
      <point x="187" y="744" type="curve" smooth="yes"/>
      <point x="170" y="709"/>
      <point x="157" y="671"/>
      <point x="148" y="629" type="curve"/>
      <point x="178" y="625" type="line"/>
      <point x="206" y="687"/>
      <point x="228" y="725"/>
      <point x="243" y="738" type="curve"/>
      <point x="258" y="759"/>
      <point x="274" y="773"/>
      <point x="293" y="779" type="curve" smooth="yes"/>
      <point x="322" y="789"/>
      <point x="350" y="794"/>
      <point x="375" y="794" type="curve" smooth="yes"/>
      <point x="450" y="794"/>
      <point x="503" y="772"/>
      <point x="536" y="729" type="curve" smooth="yes"/>
      <point x="562" y="694"/>
      <point x="575" y="653"/>
      <point x="575" y="605" type="curve" smooth="yes"/>
      <point x="575" y="504"/>
      <point x="514" y="392"/>
      <point x="393" y="267" type="curve" smooth="yes"/>
      <point x="150" y="16" type="line"/>
    </contour>
  </outline>
</glyph>
<glyph name="three" format="2">
  <advance width="808"/>
  <unicode hex="0033"/>
  <note>
three
</note>
  <outline>
    <contour>
      <point x="316" y="-2" type="curve" smooth="yes"/>
      <point x="428" y="-2"/>
      <point x="519" y="25"/>
      <point x="590" y="78" type="curve" smooth="yes"/>
      <point x="663" y="133"/>
      <point x="700" y="206"/>
      <point x="700" y="299" type="curve" smooth="yes"/>
      <point x="700" y="373"/>
      <point x="677" y="433"/>
      <point x="631" y="479" type="curve" smooth="yes"/>
      <point x="619" y="491"/>
      <point x="610" y="499"/>
      <point x="603" y="503" type="curve" smooth="yes"/>
      <point x="531" y="544" type="line"/>
      <point x="551" y="560"/>
      <point x="565" y="572"/>
      <point x="573" y="580" type="curve" smooth="yes"/>
      <point x="620" y="629" type="line"/>
      <point x="643" y="666"/>
      <point x="654" y="700"/>
      <point x="654" y="730" type="curve" smooth="yes"/>
      <point x="654" y="765"/>
      <point x="640" y="800"/>
      <point x="613" y="834" type="curve"/>
      <point x="570" y="878"/>
      <point x="510" y="900"/>
      <point x="434" y="900" type="curve" smooth="yes"/>
      <point x="373" y="900"/>
      <point x="321" y="888"/>
      <point x="280" y="865" type="curve"/>
      <point x="232" y="830"/>
      <point x="194" y="774"/>
      <point x="165" y="696" type="curve"/>
      <point x="184" y="694" type="line"/>
      <point x="245" y="774" type="line"/>
      <point x="288" y="811"/>
      <point x="337" y="830"/>
      <point x="390" y="830" type="curve" smooth="yes"/>
      <point x="439" y="830"/>
      <point x="478" y="816"/>
      <point x="505" y="789" type="curve"/>
      <point x="531" y="757"/>
      <point x="544" y="725"/>
      <point x="544" y="692" type="curve" smooth="yes"/>
      <point x="544" y="637"/>
      <point x="520" y="589"/>
      <point x="473" y="548" type="curve" smooth="yes"/>
      <point x="452" y="529"/>
      <point x="427" y="513"/>
      <point x="397" y="499" type="curve" smooth="yes"/>
      <point x="360" y="484"/>
      <point x="332" y="473"/>
      <point x="312" y="468" type="curve"/>
      <point x="314" y="451" type="line"/>
      <point x="340" y="451" type="line"/>
      <point x="373" y="449" type="line"/>
      <point x="421" y="447" type="line"/>
      <point x="481" y="429"/>
      <point x="523" y="408"/>
      <point x="546" y="383" type="curve" smooth="yes"/>
      <point x="582" y="346"/>
      <point x="600" y="300"/>
      <point x="600" y="247" type="curve" smooth="yes"/>
      <point x="600" y="142"/>
      <point x="533" y="43"/>
      <point x="414" y="43" type="curve"/>
      <point x="379" y="49"/>
      <point x="351" y="57"/>
      <point x="330" y="67" type="curve"/>
      <point x="296" y="88"/>
      <point x="269" y="102"/>
      <point x="249" y="108" type="curve"/>
      <point x="236" y="114"/>
      <point x="225" y="117"/>
      <point x="215" y="117" type="curve" smooth="yes"/>
      <point x="206" y="117"/>
      <point x="193" y="112"/>
      <point x="176" y="102" type="curve"/>
      <point x="166" y="98"/>
      <point x="161" y="89"/>
      <point x="161" y="74" type="curve" smooth="yes"/>
      <point x="162" y="59"/>
      <point x="167" y="46"/>
      <point x="176" y="35" type="curve" smooth="yes"/>
      <point x="198" y="10"/>
      <point x="245" y="-2"/>
    </contour>
  </outline>
</glyph>
<glyph name="four" format="2">
  <advance width="921"/>
  <unicode hex="0034"/>
  <note>
four
</note>
  <outline>
    <contour>
      <point x="540" y="1" type="line"/>
      <point x="648" y="1" type="line"/>
      <point x="648" y="220" type="line"/>
      <point x="789" y="220" type="line"/>
      <point x="789" y="300" type="line"/>
      <point x="648" y="300" type="line"/>
      <point x="648" y="887" type="line"/>
      <point x="585" y="887" type="line"/>
      <point x="150" y="302" type="line"/>
      <point x="150" y="220" type="line"/>
      <point x="540" y="220" type="line"/>
    </contour>
    <contour>
      <point x="202" y="300" type="line"/>
      <point x="540" y="757" type="line"/>
      <point x="540" y="300" type="line"/>
    </contour>
  </outline>
</glyph>
<glyph name="five" format="2">
  <advance width="820"/>
  <unicode hex="0035"/>
  <note>
five
</note>
  <outline>
    <contour>
      <point x="334" y="-1" type="curve" smooth="yes"/>
      <point x="441" y="-1"/>
      <point x="530" y="30"/>
      <point x="599" y="92" type="curve" smooth="yes"/>
      <point x="672" y="157"/>
      <point x="707" y="230"/>
      <point x="703" y="313" type="curve" smooth="yes"/>
      <point x="700" y="398" type="line"/>
      <point x="687" y="446" type="line"/>
      <point x="663" y="493" type="line"/>
      <point x="629" y="541" type="line"/>
      <point x="590" y="588"/>
      <point x="539" y="620"/>
      <point x="477" y="636" type="curve"/>
      <point x="454" y="644"/>
      <point x="435" y="649"/>
      <point x="421" y="652" type="curve" smooth="yes"/>
      <point x="304" y="678" type="line"/>
      <point x="364" y="788" type="line"/>
      <point x="635" y="788" type="line"/>
      <point x="656" y="792"/>
      <point x="667" y="796"/>
      <point x="668" y="801" type="curve"/>
      <point x="722" y="918" type="line"/>
      <point x="705" y="925" type="line"/>
      <point x="672" y="898" type="line"/>
      <point x="648" y="892" type="line"/>
      <point x="354" y="888" type="line"/>
      <point x="202" y="578" type="line"/>
      <point x="202" y="568"/>
      <point x="205" y="563"/>
      <point x="211" y="563" type="curve" smooth="yes"/>
      <point x="263" y="563"/>
      <point x="308" y="558"/>
      <point x="345" y="548" type="curve" smooth="yes"/>
      <point x="376" y="539"/>
      <point x="398" y="532"/>
      <point x="412" y="527" type="curve" smooth="yes"/>
      <point x="543" y="482"/>
      <point x="609" y="401"/>
      <point x="609" y="285" type="curve" smooth="yes"/>
      <point x="609" y="208"/>
      <point x="587" y="148"/>
      <point x="544" y="105" type="curve" smooth="yes"/>
      <point x="506" y="68"/>
      <point x="461" y="49"/>
      <point x="410" y="49" type="curve"/>
      <point x="375" y="59" type="line"/>
      <point x="344" y="74"/>
      <point x="322" y="86"/>
      <point x="307" y="95" type="curve" smooth="yes"/>
      <point x="269" y="118"/>
      <point x="237" y="129"/>
      <point x="210" y="129" type="curve" smooth="yes"/>
      <point x="175" y="129"/>
      <point x="158" y="113"/>
      <point x="158" y="81" type="curve" smooth="yes"/>
      <point x="158" y="54"/>
      <point x="172" y="35"/>
      <point x="200" y="25" type="curve"/>
      <point x="235" y="8"/>
      <point x="279" y="-1"/>
    </contour>
  </outline>
</glyph>
<glyph name="seven" format="2">
  <advance width="861"/>
  <unicode hex="0037"/>
  <note>
seven
</note>
  <outline>
    <contour>
      <point x="357" y="2" type="line"/>
      <point x="448" y="2" type="line"/>
      <point x="744" y="869" type="line"/>
      <point x="744" y="882" type="line"/>
      <point x="229" y="882" type="line"/>
      <point x="146" y="694" type="line"/>
      <point x="168" y="681" type="line"/>
      <point x="206" y="730"/>
      <point x="228" y="757"/>
      <point x="235" y="761" type="curve"/>
      <point x="247" y="774"/>
      <point x="261" y="780"/>
      <point x="277" y="781" type="curve"/>
      <point x="287" y="784"/>
      <point x="305" y="785"/>
      <point x="331" y="785" type="curve" smooth="yes"/>
      <point x="632" y="785" type="line"/>
    </contour>
  </outline>
</glyph>
<glyph name="eight" format="2">
  <advance width="794"/>
  <unicode hex="0038"/>
  <note>
eight
</note>
  <outline>
    <contour>
      <point x="414" y="1" type="curve" smooth="yes"/>
      <point x="519" y="1"/>
      <point x="595" y="28"/>
      <point x="640" y="83" type="curve" smooth="yes"/>
      <point x="673" y="123"/>
      <point x="690" y="168"/>
      <point x="690" y="218" type="curve" smooth="yes"/>
      <point x="690" y="266"/>
      <point x="678" y="309"/>
      <point x="653" y="348" type="curve" smooth="yes"/>
      <point x="626" y="390"/>
      <point x="567" y="443"/>
      <point x="475" y="508" type="curve"/>
      <point x="598" y="586" type="line"/>
      <point x="641" y="625"/>
      <point x="663" y="672"/>
      <point x="663" y="725" type="curve" smooth="yes"/>
      <point x="663" y="776"/>
      <point x="641" y="819"/>
      <point x="598" y="853" type="curve" smooth="yes"/>
      <point x="552" y="889"/>
      <point x="492" y="907"/>
      <point x="419" y="907" type="curve" smooth="yes"/>
      <point x="356" y="907"/>
      <point x="298" y="890"/>
      <point x="247" y="856" type="curve" smooth="yes"/>
      <point x="188" y="817"/>
      <point x="159" y="768"/>
      <point x="159" y="707" type="curve" smooth="yes"/>
      <point x="159" y="656"/>
      <point x="181" y="605"/>
      <point x="226" y="553" type="curve" smooth="yes"/>
      <point x="260" y="514" type="line"/>
      <point x="336" y="460" type="line"/>
      <point x="215" y="371" type="line"/>
      <point x="173" y="325"/>
      <point x="152" y="272"/>
      <point x="152" y="211" type="curve" smooth="yes"/>
      <point x="152" y="144"/>
      <point x="180" y="91"/>
      <point x="235" y="52" type="curve" smooth="yes"/>
      <point x="284" y="18"/>
      <point x="344" y="1"/>
    </contour>
    <contour>
      <point x="429" y="36" type="curve" smooth="yes"/>
      <point x="376" y="36"/>
      <point x="333" y="55"/>
      <point x="299" y="92" type="curve" smooth="yes"/>
      <point x="269" y="124"/>
      <point x="254" y="169"/>
      <point x="254" y="226" type="curve" smooth="yes"/>
      <point x="254" y="279"/>
      <point x="268" y="324"/>
      <point x="295" y="361" type="curve" smooth="yes"/>
      <point x="313" y="386"/>
      <point x="337" y="409"/>
      <point x="367" y="430" type="curve"/>
      <point x="508" y="333" type="line"/>
      <point x="561" y="289"/>
      <point x="588" y="240"/>
      <point x="588" y="187" type="curve" smooth="yes"/>
      <point x="588" y="98"/>
      <point x="518" y="36"/>
    </contour>
    <contour>
      <point x="436" y="530" type="line"/>
      <point x="405" y="550"/>
      <point x="377" y="570"/>
      <point x="352" y="590" type="curve" smooth="yes"/>
      <point x="328" y="610" type="line"/>
      <point x="286" y="657"/>
      <point x="265" y="701"/>
      <point x="265" y="740" type="curve" smooth="yes"/>
      <point x="265" y="781"/>
      <point x="276" y="814"/>
      <point x="299" y="839" type="curve" smooth="yes"/>
      <point x="326" y="864"/>
      <point x="363" y="876"/>
      <point x="410" y="876" type="curve" smooth="yes"/>
      <point x="461" y="876"/>
      <point x="499" y="862"/>
      <point x="525" y="833" type="curve"/>
      <point x="554" y="807"/>
      <point x="568" y="773"/>
      <point x="568" y="731" type="curve" smooth="yes"/>
      <point x="568" y="682"/>
      <point x="551" y="638"/>
      <point x="518" y="601" type="curve"/>
      <point x="511" y="588"/>
      <point x="499" y="576"/>
      <point x="484" y="564" type="curve" smooth="yes"/>
    </contour>
  </outline>
</glyph>
<glyph name="nine" format="2">
  <advance width="827"/>
  <unicode hex="0039"/>
  <note>
nine
</note>
  <outline>
    <contour>
      <point x="151" y="4" type="line"/>
      <point x="232" y="4"/>
      <point x="307" y="20"/>
      <point x="376" y="51" type="curve" smooth="yes"/>
      <point x="449" y="84"/>
      <point x="512" y="129"/>
      <point x="563" y="186" type="curve" smooth="yes"/>
      <point x="660" y="294"/>
      <point x="708" y="420"/>
      <point x="708" y="565" type="curve" smooth="yes"/>
      <point x="708" y="662"/>
      <point x="682" y="745"/>
      <point x="630" y="814" type="curve" smooth="yes"/>
      <point x="573" y="891"/>
      <point x="497" y="929"/>
      <point x="403" y="929" type="curve" smooth="yes"/>
      <point x="312" y="929"/>
      <point x="240" y="899"/>
      <point x="188" y="840" type="curve" smooth="yes"/>
      <point x="139" y="784"/>
      <point x="114" y="710"/>
      <point x="114" y="617" type="curve" smooth="yes"/>
      <point x="114" y="550"/>
      <point x="132" y="493"/>
      <point x="168" y="448" type="curve" smooth="yes"/>
      <point x="217" y="386"/>
      <point x="281" y="355"/>
      <point x="361" y="355" type="curve"/>
      <point x="439" y="363" type="line"/>
      <point x="485" y="379" type="line" smooth="yes"/>
      <point x="504" y="387"/>
      <point x="534" y="401"/>
      <point x="574" y="420" type="curve"/>
      <point x="524" y="305"/>
      <point x="475" y="223"/>
      <point x="426" y="175" type="curve" smooth="yes"/>
      <point x="354" y="104"/>
      <point x="262" y="59"/>
      <point x="151" y="38" type="curve"/>
    </contour>
    <contour>
      <point x="416" y="409" type="curve" smooth="yes"/>
      <point x="390" y="409"/>
      <point x="367" y="413"/>
      <point x="348" y="422" type="curve"/>
      <point x="328" y="435"/>
      <point x="310" y="450"/>
      <point x="294" y="467" type="curve"/>
      <point x="259" y="515"/>
      <point x="242" y="581"/>
      <point x="242" y="665" type="curve" smooth="yes"/>
      <point x="242" y="730"/>
      <point x="251" y="784"/>
      <point x="270" y="827" type="curve"/>
      <point x="301" y="875"/>
      <point x="340" y="899"/>
      <point x="387" y="899" type="curve" smooth="yes"/>
      <point x="469" y="899"/>
      <point x="524" y="852"/>
      <point x="552" y="758" type="curve" smooth="yes"/>
      <point x="571" y="695"/>
      <point x="579" y="629"/>
      <point x="576" y="559" type="curve" smooth="yes"/>
      <point x="574" y="509" type="line" smooth="yes"/>
      <point x="571" y="482"/>
      <point x="562" y="464"/>
      <point x="548" y="455" type="curve"/>
      <point x="529" y="437"/>
      <point x="509" y="427"/>
      <point x="487" y="424" type="curve"/>
      <point x="463" y="414"/>
      <point x="439" y="409"/>
    </contour>
  </outline>
</glyph>
<glyph name="colon" format="2">
  <advance width="266"/>
  <unicode hex="003A"/>
  <note>
colon
</note>
  <outline>
    <contour>
      <point x="60" y="300" type="line"/>
      <point x="218" y="300" type="line"/>
      <point x="218" y="458" type="line"/>
      <point x="60" y="458" type="line"/>
    </contour>
    <contour>
      <point x="60" y="0" type="line"/>
      <point x="218" y="0" type="line"/>
      <point x="218" y="158" type="line"/>
      <point x="60" y="158" type="line"/>
    </contour>
  </outline>
</glyph>
<glyph name="less" format="2">
  <advance width="1024"/>
  <unicode hex="003C"/>
  <note>
less
</note>
  <outline>
    <contour>
      <point x="794" y="2" type="curve" smooth="yes"/>
      <point x="813" y="2"/>
      <point x="823" y="11"/>
      <point x="823" y="30" type="curve" smooth="yes"/>
      <point x="823" y="41"/>
      <point x="815" y="51"/>
      <point x="800" y="60" type="curve" smooth="yes"/>
      <point x="271" y="354" type="line"/>
      <point x="800" y="648" type="line" smooth="yes"/>
      <point x="816" y="656"/>
      <point x="824" y="666"/>
      <point x="824" y="677" type="curve" smooth="yes"/>
      <point x="824" y="696"/>
      <point x="814" y="706"/>
      <point x="795" y="706" type="curve" smooth="yes"/>
      <point x="790" y="706"/>
      <point x="782" y="703"/>
      <point x="773" y="698" type="curve" smooth="yes"/>
      <point x="155" y="354" type="line"/>
      <point x="772" y="10" type="line" smooth="yes"/>
      <point x="782" y="5"/>
      <point x="789" y="2"/>
    </contour>
  </outline>
</glyph>
<glyph name="equal" format="2">
  <advance width="1111"/>
  <unicode hex="003D"/>
  <note>
equal
</note>
  <outline>
    <contour>
      <point x="927" y="327" type="line" smooth="yes"/>
      <point x="951" y="327"/>
      <point x="963" y="336"/>
      <point x="963" y="355" type="curve" smooth="yes"/>
      <point x="963" y="375"/>
      <point x="951" y="385"/>
      <point x="927" y="385" type="curve" smooth="yes"/>
      <point x="333" y="385" type="line" smooth="yes"/>
      <point x="309" y="385"/>
      <point x="297" y="376"/>
      <point x="297" y="357" type="curve" smooth="yes"/>
      <point x="297" y="338"/>
      <point x="309" y="328"/>
      <point x="333" y="328" type="curve" smooth="yes"/>
    </contour>
    <contour>
      <point x="927" y="122" type="line" smooth="yes"/>
      <point x="951" y="122"/>
      <point x="963" y="132"/>
      <point x="963" y="151" type="curve" smooth="yes"/>
      <point x="963" y="170"/>
      <point x="951" y="179"/>
      <point x="927" y="179" type="curve" smooth="yes"/>
      <point x="333" y="180" type="line" smooth="yes"/>
      <point x="309" y="180"/>
      <point x="297" y="170"/>
      <point x="297" y="151" type="curve" smooth="yes"/>
      <point x="297" y="132"/>
      <point x="309" y="123"/>
      <point x="333" y="123" type="curve" smooth="yes"/>
    </contour>
  </outline>
</glyph>
<glyph name="greater" format="2">
  <advance width="941"/>
  <unicode hex="003E"/>
  <note>
greater
</note>
  <outline>
    <contour>
      <point x="184" y="2" type="curve" smooth="yes"/>
      <point x="189" y="2"/>
      <point x="197" y="5"/>
      <point x="207" y="10" type="curve" smooth="yes"/>
      <point x="824" y="354" type="line"/>
      <point x="206" y="698" type="line" smooth="yes"/>
      <point x="196" y="703"/>
      <point x="189" y="706"/>
      <point x="184" y="706" type="curve" smooth="yes"/>
      <point x="165" y="706"/>
      <point x="155" y="696"/>
      <point x="155" y="677" type="curve" smooth="yes"/>
      <point x="155" y="666"/>
      <point x="163" y="656"/>
      <point x="178" y="648" type="curve" smooth="yes"/>
      <point x="707" y="354" type="line"/>
      <point x="179" y="60" type="line" smooth="yes"/>
      <point x="164" y="51"/>
      <point x="156" y="41"/>
      <point x="156" y="30" type="curve" smooth="yes"/>
      <point x="156" y="11"/>
      <point x="165" y="2"/>
    </contour>
  </outline>
</glyph>
<glyph name="nbspace" format="2">
  <advance width="1024"/>
  <unicode hex="00A0"/>
  <outline>
    <contour>
      <point x="457" y="0" type="line"/>
      <point x="546" y="0" type="line"/>
      <point x="880" y="567" type="line"/>
      <point x="546" y="1138" type="line"/>
      <point x="457" y="1138" type="line"/>
      <point x="144" y="567" type="line"/>
    </contour>
    <contour>
      <point x="502" y="75" type="line"/>
      <point x="230" y="567" type="line"/>
      <point x="502" y="1060" type="line"/>
      <point x="790" y="567" type="line"/>
    </contour>
  </outline>
</glyph>
<glyph name="copyright" format="2">
  <advance width="1139"/>
  <unicode hex="00A9"/>
  <outline>
    <contour>
      <point x="570" y="-8" type="curve" smooth="yes"/>
      <point x="853" y="-8"/>
      <point x="1073" y="206"/>
      <point x="1073" y="490" type="curve" smooth="yes"/>
      <point x="1073" y="774"/>
      <point x="853" y="988"/>
      <point x="570" y="988" type="curve" smooth="yes"/>
      <point x="285" y="988"/>
      <point x="66" y="774"/>
      <point x="66" y="490" type="curve" smooth="yes"/>
      <point x="66" y="206"/>
      <point x="287" y="-8"/>
    </contour>
    <contour>
      <point x="599" y="214" type="curve" smooth="yes"/>
      <point x="675" y="214"/>
      <point x="753" y="238"/>
      <point x="791" y="263" type="curve"/>
      <point x="821" y="388" type="line"/>
      <point x="754" y="396" type="line"/>
      <point x="719" y="311" type="line"/>
      <point x="697" y="292"/>
      <point x="654" y="282"/>
      <point x="625" y="282" type="curve" smooth="yes"/>
      <point x="525" y="282"/>
      <point x="443" y="369"/>
      <point x="443" y="508" type="curve" smooth="yes"/>
      <point x="443" y="635"/>
      <point x="506" y="711"/>
      <point x="614" y="711" type="curve" smooth="yes"/>
      <point x="644" y="711"/>
      <point x="674" y="705"/>
      <point x="698" y="695" type="curve"/>
      <point x="734" y="595" type="line"/>
      <point x="794" y="597" type="line"/>
      <point x="787" y="744" type="line"/>
      <point x="746" y="763"/>
      <point x="680" y="776"/>
      <point x="620" y="776" type="curve" smooth="yes"/>
      <point x="427" y="776"/>
      <point x="280" y="669"/>
      <point x="280" y="484" type="curve" smooth="yes"/>
      <point x="280" y="314"/>
      <point x="412" y="214"/>
    </contour>
    <contour>
      <point x="570" y="46" type="curve" smooth="yes"/>
      <point x="320" y="46"/>
      <point x="128" y="238"/>
      <point x="128" y="490" type="curve" smooth="yes"/>
      <point x="128" y="742"/>
      <point x="320" y="932"/>
      <point x="570" y="932" type="curve" smooth="yes"/>
      <point x="819" y="932"/>
      <point x="1011" y="742"/>
      <point x="1011" y="490" type="curve" smooth="yes"/>
      <point x="1011" y="238"/>
      <point x="819" y="46"/>
    </contour>
  </outline>
</glyph>
<glyph name="questiondown" format="2">
  <advance width="516"/>
  <unicode hex="00BF"/>
  <note>
questiondown
</note>
  <outline>
    <contour>
      <point x="365" y="323" type="curve"/>
      <point x="295" y="323" type="line"/>
      <point x="300" y="298"/>
      <point x="303" y="279"/>
      <point x="303" y="261" type="curve" smooth="yes"/>
      <point x="303" y="156"/>
      <point x="61" y="138"/>
      <point x="61" y="-40" type="curve" smooth="yes"/>
      <point x="61" y="-197"/>
      <point x="201" y="-319"/>
      <point x="386" y="-319" type="curve" smooth="yes"/>
      <point x="462" y="-319"/>
      <point x="502" y="-287"/>
      <point x="502" y="-242" type="curve" smooth="yes"/>
      <point x="502" y="-199"/>
      <point x="465" y="-164"/>
      <point x="405" y="-164" type="curve" smooth="yes"/>
      <point x="361" y="-164"/>
      <point x="320" y="-188"/>
      <point x="275" y="-188" type="curve" smooth="yes"/>
      <point x="210" y="-188"/>
      <point x="168" y="-152"/>
      <point x="168" y="-104" type="curve" smooth="yes"/>
      <point x="168" y="3"/>
      <point x="401" y="74"/>
      <point x="401" y="192" type="curve" smooth="yes"/>
      <point x="401" y="236"/>
      <point x="391" y="272"/>
    </contour>
    <contour>
      <point x="329" y="620" type="curve" smooth="yes"/>
      <point x="269" y="620"/>
      <point x="223" y="575"/>
      <point x="223" y="515" type="curve" smooth="yes"/>
      <point x="223" y="456"/>
      <point x="269" y="411"/>
      <point x="329" y="411" type="curve" smooth="yes"/>
      <point x="389" y="411"/>
      <point x="438" y="456"/>
      <point x="438" y="515" type="curve" smooth="yes"/>
      <point x="438" y="575"/>
      <point x="391" y="620"/>
    </contour>
  </outline>
</glyph>
<glyph name="tildecomb" format="2">
  <unicode hex="0303"/>
  <note>
U0303
</note>
  <anchor x="255" y="15" name="_class0"/>
  <outline>
    <contour>
      <point x="67" y="-4" type="curve" smooth="yes"/>
      <point x="68" y="-4"/>
      <point x="69" y="-3"/>
      <point x="70" y="0" type="curve" smooth="yes"/>
      <point x="91" y="63"/>
      <point x="121" y="94"/>
      <point x="158" y="94" type="curve" smooth="yes"/>
      <point x="167" y="94"/>
      <point x="176" y="92"/>
      <point x="187" y="89" type="curve" smooth="yes"/>
      <point x="189" y="88"/>
      <point x="207" y="72"/>
      <point x="242" y="41" type="curve" smooth="yes"/>
      <point x="273" y="14"/>
      <point x="306" y="0"/>
      <point x="342" y="0" type="curve" smooth="yes"/>
      <point x="380" y="0"/>
      <point x="406" y="12"/>
      <point x="420" y="36" type="curve"/>
      <point x="435" y="89" type="line" smooth="yes"/>
      <point x="440" y="105"/>
      <point x="433" y="178"/>
      <point x="422" y="178" type="curve" smooth="yes"/>
      <point x="418" y="178"/>
      <point x="414" y="167"/>
      <point x="410" y="144" type="curve" smooth="yes"/>
      <point x="404" y="112"/>
      <point x="379" y="96"/>
      <point x="334" y="96" type="curve" smooth="yes"/>
      <point x="313" y="96"/>
      <point x="288" y="108"/>
      <point x="259" y="132" type="curve" smooth="yes"/>
      <point x="227" y="159"/>
      <point x="196" y="175"/>
      <point x="166" y="181" type="curve" smooth="yes"/>
      <point x="161" y="182"/>
      <point x="157" y="183"/>
      <point x="152" y="183" type="curve" smooth="yes"/>
      <point x="96" y="183"/>
      <point x="47" y="119"/>
      <point x="47" y="51" type="curve" smooth="yes"/>
      <point x="47" y="34"/>
      <point x="59" y="-4"/>
    </contour>
  </outline>
</glyph>
<glyph name="macroncomb" format="2">
  <unicode hex="0304"/>
  <note>
U0304
</note>
  <anchor x="255" y="0" name="_class0"/>
  <outline>
    <contour>
      <point x="47" y="0" type="curve" smooth="yes"/>
      <point x="480" y="0" type="line" smooth="yes"/>
      <point x="511" y="0"/>
      <point x="527" y="12"/>
      <point x="527" y="37" type="curve" smooth="yes"/>
      <point x="527" y="62"/>
      <point x="511" y="75"/>
      <point x="478" y="75" type="curve" smooth="yes"/>
      <point x="50" y="75" type="line" smooth="yes"/>
      <point x="17" y="75"/>
      <point x="1" y="62"/>
      <point x="1" y="37" type="curve" smooth="yes"/>
      <point x="1" y="12"/>
      <point x="16" y="0"/>
    </contour>
  </outline>
</glyph>
<glyph name="dotaccentcomb" format="2">
  <unicode hex="0307"/>
  <anchor x="75" y="0" name="_m.U0656"/>
  <anchor x="135" y="0" name="_t.U0656"/>
  <anchor x="120" y="30" name="_t.U0656_2"/>
  <anchor x="120" y="270" name="t.U0656_2"/>
  <outline>
    <contour>
      <point x="40" y="0" type="line"/>
      <point x="198" y="0" type="line"/>
      <point x="198" y="158" type="line"/>
      <point x="40" y="158" type="line"/>
    </contour>
  </outline>
</glyph>
<glyph name="dieresiscomb" format="2">
  <unicode hex="0308"/>
  <note>
U0308
</note>
  <anchor x="270" y="60" name="_class0"/>
  <outline>
    <contour>
      <point x="314" y="64" type="line"/>
      <point x="472" y="64" type="line"/>
      <point x="472" y="222" type="line"/>
      <point x="314" y="222" type="line"/>
    </contour>
    <contour>
      <point x="82" y="63" type="line"/>
      <point x="240" y="63" type="line"/>
      <point x="240" y="221" type="line"/>
      <point x="82" y="221" type="line"/>
    </contour>
  </outline>
</glyph>
<glyph name="ringcomb" format="2">
  <unicode hex="030A"/>
  <note>
U030a
</note>
  <anchor x="120" y="15" name="_class1"/>
  <outline>
    <contour>
      <point x="118" y="0" type="curve" smooth="yes"/>
      <point x="183" y="0"/>
      <point x="237" y="53"/>
      <point x="237" y="117" type="curve" smooth="yes"/>
      <point x="237" y="182"/>
      <point x="183" y="235"/>
      <point x="118" y="235" type="curve" smooth="yes"/>
      <point x="53" y="235"/>
      <point x="-2" y="182"/>
      <point x="-2" y="117" type="curve" smooth="yes"/>
      <point x="-2" y="53"/>
      <point x="53" y="0"/>
    </contour>
    <contour>
      <point x="118" y="40" type="curve" smooth="yes"/>
      <point x="75" y="40"/>
      <point x="38" y="74"/>
      <point x="38" y="117" type="curve" smooth="yes"/>
      <point x="38" y="161"/>
      <point x="74" y="195"/>
      <point x="118" y="195" type="curve" smooth="yes"/>
      <point x="162" y="195"/>
      <point x="198" y="161"/>
      <point x="198" y="117" type="curve" smooth="yes"/>
      <point x="198" y="74"/>
      <point x="162" y="40"/>
    </contour>
  </outline>
</glyph>
<glyph name="dotbelowcomb" format="2">
  <unicode hex="0323"/>
  <anchor x="120" y="-45" name="_class2"/>
  <outline>
    <contour>
      <point x="38" y="-179" type="line"/>
      <point x="196" y="-179" type="line"/>
      <point x="196" y="-21" type="line"/>
      <point x="38" y="-21" type="line"/>
    </contour>
  </outline>
</glyph>
<glyph name="dieresisbelowcomb" format="2">
  <unicode hex="0324"/>
  <note>
U0324
</note>
  <anchor x="195" y="-30" name="_class2"/>
  <outline>
    <contour>
      <point x="332" y="-135" type="curve" smooth="yes"/>
      <point x="368" y="-135"/>
      <point x="399" y="-104"/>
      <point x="399" y="-68" type="curve" smooth="yes"/>
      <point x="399" y="-31"/>
      <point x="368" y="0"/>
      <point x="332" y="0" type="curve" smooth="yes"/>
      <point x="295" y="0"/>
      <point x="264" y="-31"/>
      <point x="264" y="-68" type="curve" smooth="yes"/>
      <point x="264" y="-105"/>
      <point x="295" y="-135"/>
    </contour>
    <contour>
      <point x="68" y="-135" type="curve" smooth="yes"/>
      <point x="104" y="-135"/>
      <point x="135" y="-104"/>
      <point x="135" y="-68" type="curve" smooth="yes"/>
      <point x="135" y="-31"/>
      <point x="104" y="0"/>
      <point x="68" y="0" type="curve" smooth="yes"/>
      <point x="31" y="0"/>
      <point x="0" y="-31"/>
      <point x="0" y="-68" type="curve" smooth="yes"/>
      <point x="0" y="-105"/>
      <point x="31" y="-135"/>
    </contour>
  </outline>
</glyph>
<glyph name="brevebelowcomb" format="2">
  <unicode hex="032E"/>
  <note>
U032e
</note>
  <anchor x="225" y="-90" name="_class2"/>
  <outline>
    <contour>
      <point x="213" y="-307" type="curve" smooth="yes"/>
      <point x="270" y="-308"/>
      <point x="322" y="-290"/>
      <point x="368" y="-253" type="curve" smooth="yes"/>
      <point x="419" y="-212"/>
      <point x="445" y="-159"/>
      <point x="445" y="-94" type="curve" smooth="yes"/>
      <point x="445" y="-62"/>
      <point x="441" y="-36"/>
      <point x="432" y="-16" type="curve" smooth="yes"/>
      <point x="431" y="-13"/>
      <point x="430" y="-11"/>
      <point x="429" y="-10" type="curve"/>
      <point x="432" y="-10"/>
      <point x="430" y="-30"/>
      <point x="421" y="-69" type="curve" smooth="yes"/>
      <point x="401" y="-158"/>
      <point x="331" y="-219"/>
      <point x="223" y="-220" type="curve" smooth="yes"/>
      <point x="148" y="-221"/>
      <point x="91" y="-184"/>
      <point x="52" y="-109" type="curve" smooth="yes"/>
      <point x="35" y="-78"/>
      <point x="26" y="-45"/>
      <point x="23" y="-12" type="curve"/>
      <point x="10" y="-31"/>
      <point x="8" y="-67"/>
      <point x="16" y="-122" type="curve" smooth="yes"/>
      <point x="32" y="-226"/>
      <point x="121" y="-306"/>
    </contour>
  </outline>
</glyph>
<glyph name="tildebelowcomb" format="2">
  <unicode hex="0330"/>
  <note>
U0330
</note>
  <anchor x="255" y="-45" name="_class2"/>
  <outline>
    <contour>
      <point x="84" y="-217" type="curve" smooth="yes"/>
      <point x="85" y="-217"/>
      <point x="86" y="-216"/>
      <point x="87" y="-213" type="curve" smooth="yes"/>
      <point x="108" y="-150"/>
      <point x="138" y="-119"/>
      <point x="175" y="-119" type="curve" smooth="yes"/>
      <point x="184" y="-119"/>
      <point x="193" y="-121"/>
      <point x="204" y="-124" type="curve" smooth="yes"/>
      <point x="206" y="-125"/>
      <point x="224" y="-141"/>
      <point x="259" y="-172" type="curve" smooth="yes"/>
      <point x="290" y="-199"/>
      <point x="323" y="-213"/>
      <point x="359" y="-213" type="curve" smooth="yes"/>
      <point x="397" y="-213"/>
      <point x="423" y="-201"/>
      <point x="437" y="-177" type="curve"/>
      <point x="452" y="-124" type="line" smooth="yes"/>
      <point x="457" y="-109"/>
      <point x="450" y="-35"/>
      <point x="439" y="-35" type="curve" smooth="yes"/>
      <point x="435" y="-35"/>
      <point x="431" y="-46"/>
      <point x="427" y="-69" type="curve" smooth="yes"/>
      <point x="421" y="-101"/>
      <point x="396" y="-117"/>
      <point x="351" y="-117" type="curve" smooth="yes"/>
      <point x="330" y="-117"/>
      <point x="305" y="-105"/>
      <point x="276" y="-81" type="curve" smooth="yes"/>
      <point x="244" y="-54"/>
      <point x="213" y="-38"/>
      <point x="183" y="-32" type="curve" smooth="yes"/>
      <point x="178" y="-31"/>
      <point x="174" y="-30"/>
      <point x="169" y="-30" type="curve" smooth="yes"/>
      <point x="113" y="-30"/>
      <point x="64" y="-94"/>
      <point x="64" y="-162" type="curve" smooth="yes"/>
      <point x="64" y="-179"/>
      <point x="76" y="-217"/>
    </contour>
  </outline>
</glyph>
<glyph name="comma-ar" format="2">
  <advance width="446"/>
  <unicode hex="060C"/>
  <note>
U060c
</note>
  <outline>
    <contour>
      <point x="200" y="-49" type="curve" smooth="yes"/>
      <point x="259" y="-49"/>
      <point x="306" y="-10"/>
      <point x="306" y="47" type="curve" smooth="yes"/>
      <point x="306" y="76"/>
      <point x="298" y="101"/>
      <point x="283" y="122" type="curve" smooth="yes"/>
      <point x="266" y="145"/>
      <point x="243" y="156"/>
      <point x="214" y="156" type="curve"/>
      <point x="209" y="175"/>
      <point x="207" y="193"/>
      <point x="207" y="210" type="curve" smooth="yes"/>
      <point x="207" y="240"/>
      <point x="216" y="276"/>
      <point x="234" y="318" type="curve" smooth="yes"/>
      <point x="237" y="324"/>
      <point x="245" y="334"/>
      <point x="259" y="349" type="curve" smooth="yes"/>
      <point x="272" y="363"/>
      <point x="279" y="372"/>
      <point x="279" y="376" type="curve" smooth="yes"/>
      <point x="279" y="389"/>
      <point x="271" y="395"/>
      <point x="255" y="394" type="curve"/>
      <point x="148" y="323"/>
      <point x="95" y="211"/>
      <point x="95" y="60" type="curve" smooth="yes"/>
      <point x="95" y="3"/>
      <point x="143" y="-49"/>
    </contour>
  </outline>
</glyph>
<glyph name="kashida-ar" format="2">
  <advance width="360"/>
  <unicode hex="0640"/>
  <note>
U0640
</note>
  <anchor x="120" y="300" name="class0"/>
  <anchor x="150" y="-135" name="class0_"/>
  <anchor x="135" y="315" name="class1"/>
  <anchor x="135" y="-120" name="class2"/>
  <anchor x="135" y="-120" name="class3"/>
  <outline>
    <contour>
      <point x="0" y="0" type="line"/>
      <point x="360" y="0" type="line"/>
      <point x="360" y="158" type="line"/>
      <point x="0" y="158" type="line"/>
    </contour>
  </outline>
</glyph>
<glyph name="paragraph-syriac" format="2">
  <advance width="982"/>
  <unicode hex="0700"/>
  <note>
U0700
</note>
  <outline>
    <contour>
      <point x="694" y="134" type="line"/>
      <point x="703" y="134" type="line"/>
      <point x="840" y="271" type="line"/>
      <point x="757" y="347"/>
      <point x="709" y="390"/>
      <point x="696" y="401" type="curve"/>
      <point x="559" y="267" type="line"/>
    </contour>
    <contour>
      <point x="433" y="-119" type="line"/>
      <point x="442" y="-119" type="line"/>
      <point x="575" y="21" type="line"/>
      <point x="442" y="148" type="line"/>
      <point x="302" y="16" type="line"/>
    </contour>
    <contour>
      <point x="189" y="125" type="line"/>
      <point x="320" y="244" type="line"/>
      <point x="331" y="267" type="line"/>
      <point x="199" y="390" type="line"/>
      <point x="62" y="249" type="line"/>
    </contour>
    <contour>
      <point x="448" y="380" type="line"/>
      <point x="575" y="509" type="line"/>
      <point x="548" y="544"/>
      <point x="505" y="587"/>
      <point x="446" y="639" type="curve"/>
      <point x="438" y="639" type="line"/>
      <point x="306" y="507" type="line"/>
    </contour>
  </outline>
</glyph>
<glyph name="colonSupralinear-syriac" format="2">
  <advance width="430"/>
  <unicode hex="0703"/>
  <note>
U0703
</note>
  <outline>
    <contour>
      <point x="219" y="919" type="curve" smooth="yes"/>
      <point x="274" y="919"/>
      <point x="309" y="964"/>
      <point x="309" y="1019" type="curve" smooth="yes"/>
      <point x="309" y="1067"/>
      <point x="265" y="1104"/>
      <point x="217" y="1104" type="curve" smooth="yes"/>
      <point x="154" y="1104"/>
      <point x="122" y="1072"/>
      <point x="122" y="1008" type="curve" smooth="yes"/>
      <point x="122" y="959"/>
      <point x="170" y="919"/>
    </contour>
    <contour>
      <point x="219" y="610" type="curve" smooth="yes"/>
      <point x="274" y="610"/>
      <point x="309" y="655"/>
      <point x="309" y="710" type="curve" smooth="yes"/>
      <point x="309" y="758"/>
      <point x="265" y="795"/>
      <point x="217" y="795" type="curve" smooth="yes"/>
      <point x="154" y="795"/>
      <point x="122" y="763"/>
      <point x="122" y="699" type="curve" smooth="yes"/>
      <point x="122" y="650"/>
      <point x="170" y="610"/>
    </contour>
  </outline>
</glyph>
<glyph name="colonSkewedright-syriac" format="2">
  <advance width="486"/>
  <unicode hex="0707"/>
  <note>
U0707
</note>
  <outline>
    <contour>
      <point x="192" y="267" type="line"/>
      <point x="350" y="267" type="line"/>
      <point x="350" y="425" type="line"/>
      <point x="192" y="425" type="line"/>
    </contour>
    <contour>
      <point x="40" y="0" type="line"/>
      <point x="198" y="0" type="line"/>
      <point x="198" y="158" type="line"/>
      <point x="40" y="158" type="line"/>
    </contour>
  </outline>
</glyph>
<glyph name="colonSkewedleftSupralinear-syriac" format="2">
  <advance width="486"/>
  <unicode hex="0708"/>
  <note>
U0708
</note>
  <outline>
    <contour>
      <point x="320" y="631" type="curve" smooth="yes"/>
      <point x="372" y="631"/>
      <point x="409" y="678"/>
      <point x="409" y="731" type="curve" smooth="yes"/>
      <point x="409" y="782"/>
      <point x="365" y="818"/>
      <point x="316" y="818" type="curve" smooth="yes"/>
      <point x="260" y="818"/>
      <point x="220" y="777"/>
      <point x="220" y="720" type="curve" smooth="yes"/>
      <point x="220" y="673"/>
      <point x="271" y="631"/>
    </contour>
    <contour>
      <point x="164" y="919" type="curve" smooth="yes"/>
      <point x="191" y="919"/>
      <point x="213" y="929"/>
      <point x="230" y="949" type="curve" smooth="yes"/>
      <point x="245" y="968"/>
      <point x="253" y="992"/>
      <point x="253" y="1019" type="curve" smooth="yes"/>
      <point x="253" y="1067"/>
      <point x="210" y="1104"/>
      <point x="162" y="1104" type="curve" smooth="yes"/>
      <point x="98" y="1104"/>
      <point x="66" y="1072"/>
      <point x="66" y="1008" type="curve" smooth="yes"/>
      <point x="66" y="959"/>
      <point x="113" y="919"/>
    </contour>
  </outline>
</glyph>
<glyph name="colonSkewedrightSublinear-syriac" format="2">
  <advance width="486"/>
  <unicode hex="0709"/>
  <note>
U0709
</note>
  <outline>
    <contour>
      <point x="40" y="0" type="line"/>
      <point x="198" y="0" type="line"/>
      <point x="198" y="158" type="line"/>
      <point x="40" y="158" type="line"/>
    </contour>
    <contour>
      <point x="241" y="-272" type="line"/>
      <point x="399" y="-272" type="line"/>
      <point x="399" y="-114" type="line"/>
      <point x="241" y="-114" type="line"/>
    </contour>
  </outline>
</glyph>
<glyph name="contraction-syriac" format="2">
  <advance width="910"/>
  <unicode hex="070A"/>
  <note>
U070a
</note>
  <outline>
    <contour>
      <point x="110" y="733" type="line"/>
      <point x="802" y="733" type="line"/>
      <point x="802" y="852" type="line"/>
      <point x="660" y="852" type="line"/>
      <point x="621" y="892" type="line"/>
      <point x="621" y="1027" type="line"/>
      <point x="560" y="1027" type="line"/>
      <point x="560" y="904" type="line"/>
      <point x="513" y="852" type="line"/>
      <point x="402" y="852" type="line"/>
      <point x="357" y="900" type="line"/>
      <point x="357" y="1024" type="line"/>
      <point x="296" y="1024" type="line"/>
      <point x="296" y="896" type="line"/>
      <point x="256" y="852" type="line"/>
      <point x="110" y="852" type="line"/>
    </contour>
    <contour>
      <point x="396" y="0" type="line"/>
      <point x="550" y="0" type="line"/>
      <point x="550" y="174" type="line"/>
      <point x="396" y="174" type="line"/>
    </contour>
    <contour>
      <point x="396" y="388" type="line"/>
      <point x="550" y="388" type="line"/>
      <point x="550" y="563" type="line"/>
      <point x="396" y="563" type="line"/>
    </contour>
  </outline>
</glyph>
<glyph name="harkleanMetobelus-syriac" format="2">
  <advance width="829"/>
  <unicode hex="070C"/>
  <note>
U070c
</note>
  <outline>
    <contour>
      <point x="547" y="325" type="line"/>
      <point x="708" y="325" type="line"/>
      <point x="708" y="490" type="line"/>
      <point x="649" y="429" type="line"/>
      <point x="161" y="916" type="line"/>
      <point x="118" y="874" type="line"/>
      <point x="606" y="385" type="line"/>
    </contour>
  </outline>
</glyph>
<glyph name="harkleanAsteriscus-syriac" format="2">
  <advance width="832"/>
  <unicode hex="070D"/>
  <note>
U070d
</note>
  <outline>
    <contour>
      <point x="231" y="224" type="line"/>
      <point x="416" y="409" type="line"/>
      <point x="601" y="224" type="line"/>
      <point x="647" y="270" type="line"/>
      <point x="462" y="455" type="line"/>
      <point x="647" y="640" type="line"/>
      <point x="601" y="686" type="line"/>
      <point x="416" y="501" type="line"/>
      <point x="231" y="686" type="line"/>
      <point x="185" y="640" type="line"/>
      <point x="370" y="455" type="line"/>
      <point x="185" y="270" type="line"/>
    </contour>
    <contour>
      <point x="393" y="271" type="curve" smooth="yes"/>
      <point x="410" y="254"/>
      <point x="428" y="254"/>
      <point x="445" y="271" type="curve" smooth="yes"/>
      <point x="462" y="288"/>
      <point x="462" y="306"/>
      <point x="445" y="323" type="curve" smooth="yes"/>
      <point x="428" y="340"/>
      <point x="410" y="340"/>
      <point x="393" y="323" type="curve" smooth="yes"/>
      <point x="376" y="306"/>
      <point x="376" y="288"/>
    </contour>
    <contour>
      <point x="232" y="435" type="curve" smooth="yes"/>
      <point x="249" y="418"/>
      <point x="267" y="418"/>
      <point x="284" y="435" type="curve" smooth="yes"/>
      <point x="301" y="452"/>
      <point x="301" y="470"/>
      <point x="284" y="487" type="curve" smooth="yes"/>
      <point x="267" y="504"/>
      <point x="250" y="504"/>
      <point x="232" y="487" type="curve" smooth="yes"/>
      <point x="215" y="470"/>
      <point x="215" y="452"/>
    </contour>
    <contour>
      <point x="553" y="430" type="curve" smooth="yes"/>
      <point x="570" y="413"/>
      <point x="587" y="414"/>
      <point x="604" y="431" type="curve" smooth="yes"/>
      <point x="613" y="440"/>
      <point x="617" y="448"/>
      <point x="617" y="457" type="curve" smooth="yes"/>
      <point x="617" y="466"/>
      <point x="613" y="474"/>
      <point x="604" y="482" type="curve" smooth="yes"/>
      <point x="587" y="499"/>
      <point x="570" y="499"/>
      <point x="553" y="482" type="curve" smooth="yes"/>
      <point x="536" y="465"/>
      <point x="536" y="447"/>
    </contour>
    <contour>
      <point x="387" y="596" type="curve" smooth="yes"/>
      <point x="404" y="579"/>
      <point x="422" y="579"/>
      <point x="439" y="596" type="curve" smooth="yes"/>
      <point x="456" y="613"/>
      <point x="456" y="630"/>
      <point x="439" y="647" type="curve" smooth="yes"/>
      <point x="422" y="664"/>
      <point x="405" y="664"/>
      <point x="388" y="647" type="curve" smooth="yes"/>
      <point x="371" y="630"/>
      <point x="370" y="613"/>
    </contour>
  </outline>
</glyph>
<glyph name="alaph-syriac" format="2">
  <advance width="634"/>
  <unicode hex="0710"/>
  <note>
U0710
</note>
  <anchor x="300" y="975" name="class0"/>
  <anchor x="360" y="-120" name="class0_"/>
  <anchor x="300" y="960" name="class1"/>
  <anchor x="315" y="-150" name="class2"/>
  <anchor x="330" y="-150" name="class3"/>
  <outline>
    <contour>
      <point x="120" y="0" type="line"/>
      <point x="634" y="0" type="line"/>
      <point x="634" y="158" type="line"/>
      <point x="368" y="158" type="line"/>
      <point x="420" y="452"/>
      <point x="446" y="623"/>
      <point x="446" y="671" type="curve" smooth="yes"/>
      <point x="446" y="721"/>
      <point x="435" y="767"/>
      <point x="413" y="808" type="curve" smooth="yes"/>
      <point x="387" y="857"/>
      <point x="352" y="882"/>
      <point x="309" y="882" type="curve" smooth="yes"/>
      <point x="248" y="882"/>
      <point x="183" y="809"/>
      <point x="183" y="744" type="curve" smooth="yes"/>
      <point x="183" y="689"/>
      <point x="212" y="663"/>
      <point x="271" y="665" type="curve" smooth="yes"/>
      <point x="311" y="666" type="line"/>
      <point x="359" y="661"/>
      <point x="383" y="626"/>
      <point x="383" y="562" type="curve" smooth="yes"/>
      <point x="383" y="446"/>
      <point x="225" y="207"/>
      <point x="120" y="162" type="curve"/>
    </contour>
  </outline>
</glyph>
<glyph name="alaphSuperscript-syriac" format="2">
  <unicode hex="0711"/>
  <note>
U0711
</note>
  <anchor x="135" y="15" name="_class0"/>
  <outline>
    <contour>
      <point x="0" y="0" type="line"/>
      <point x="285" y="0" type="line"/>
      <point x="285" y="88" type="line"/>
      <point x="138" y="88" type="line"/>
      <point x="167" y="251"/>
      <point x="181" y="346"/>
      <point x="181" y="373" type="curve" smooth="yes"/>
      <point x="181" y="400"/>
      <point x="175" y="424"/>
      <point x="163" y="447" type="curve" smooth="yes"/>
      <point x="149" y="476"/>
      <point x="130" y="490"/>
      <point x="105" y="490" type="curve" smooth="yes"/>
      <point x="70" y="490"/>
      <point x="35" y="449"/>
      <point x="35" y="413" type="curve" smooth="yes"/>
      <point x="35" y="384"/>
      <point x="51" y="369"/>
      <point x="84" y="369" type="curve" smooth="yes"/>
      <point x="107" y="369"/>
      <point x="123" y="366"/>
      <point x="131" y="360" type="curve" smooth="yes"/>
      <point x="141" y="352"/>
      <point x="146" y="336"/>
      <point x="146" y="312" type="curve" smooth="yes"/>
      <point x="146" y="247"/>
      <point x="59" y="117"/>
      <point x="0" y="90" type="curve"/>
    </contour>
  </outline>
</glyph>
<glyph name="gamal-syriac" format="2">
  <advance width="1212"/>
  <unicode hex="0713"/>
  <note>
U0713
</note>
  <anchor x="900" y="765" name="class0"/>
  <anchor x="780" y="-165" name="class0_"/>
  <anchor x="825" y="810" name="class1"/>
  <anchor x="660" y="-165" name="class2"/>
  <anchor x="585" y="-150" name="class3"/>
  <outline>
    <contour>
      <point x="1167" y="-470" type="line"/>
      <point x="1309" y="-470" type="line"/>
      <point x="1309" y="-329" type="line"/>
      <point x="1173" y="-329" type="line"/>
      <point x="583" y="879" type="line" smooth="yes"/>
      <point x="570" y="905"/>
      <point x="562" y="934"/>
      <point x="560" y="967" type="curve" smooth="yes"/>
      <point x="559" y="991"/>
      <point x="557" y="1003"/>
      <point x="555" y="1003" type="curve" smooth="yes"/>
      <point x="552" y="1003"/>
      <point x="539" y="987"/>
      <point x="517" y="954" type="curve" smooth="yes"/>
      <point x="448" y="847"/>
      <point x="413" y="789"/>
      <point x="413" y="780" type="curve" smooth="yes"/>
      <point x="413" y="769"/>
      <point x="432" y="730"/>
      <point x="469" y="662" type="curve" smooth="yes"/>
      <point x="748" y="158" type="line"/>
      <point x="213" y="158" type="line" smooth="yes"/>
      <point x="168" y="158"/>
      <point x="131" y="169"/>
      <point x="103" y="191" type="curve" smooth="yes"/>
      <point x="84" y="205"/>
      <point x="69" y="225"/>
      <point x="57" y="251" type="curve" smooth="yes"/>
      <point x="47" y="273"/>
      <point x="41" y="284"/>
      <point x="40" y="284" type="curve" smooth="yes"/>
      <point x="22" y="284"/>
      <point x="13" y="256"/>
      <point x="13" y="199" type="curve" smooth="yes"/>
      <point x="13" y="112"/>
      <point x="36" y="54"/>
      <point x="83" y="25" type="curve" smooth="yes"/>
      <point x="110" y="8"/>
      <point x="153" y="0"/>
      <point x="213" y="0" type="curve" smooth="yes"/>
      <point x="876" y="0" type="line"/>
      <point x="1167" y="-366" type="line"/>
    </contour>
  </outline>
</glyph>
<glyph name="dalath-syriac" format="2">
  <advance width="716"/>
  <unicode hex="0715"/>
  <note>
U0715
</note>
  <anchor x="285" y="735" name="class0"/>
  <anchor x="345" y="-360" name="class0_"/>
  <anchor x="285" y="705" name="class1"/>
  <anchor x="330" y="-360" name="class2"/>
  <anchor x="300" y="-390" name="class3"/>
  <outline>
    <contour>
      <point x="140" y="0" type="line"/>
      <point x="629" y="0" type="line"/>
      <point x="652" y="51"/>
      <point x="664" y="105"/>
      <point x="664" y="162" type="curve" smooth="yes"/>
      <point x="664" y="288"/>
      <point x="631" y="393"/>
      <point x="564" y="476" type="curve" smooth="yes"/>
      <point x="493" y="564"/>
      <point x="399" y="608"/>
      <point x="280" y="608" type="curve" smooth="yes"/>
      <point x="223" y="608"/>
      <point x="175" y="596"/>
      <point x="138" y="573" type="curve"/>
      <point x="138" y="403" type="line" smooth="yes"/>
      <point x="138" y="370"/>
      <point x="143" y="354"/>
      <point x="152" y="354" type="curve" smooth="yes"/>
      <point x="155" y="354"/>
      <point x="160" y="361"/>
      <point x="168" y="376" type="curve" smooth="yes"/>
      <point x="177" y="394"/>
      <point x="189" y="408"/>
      <point x="203" y="418" type="curve" smooth="yes"/>
      <point x="224" y="433"/>
      <point x="251" y="440"/>
      <point x="286" y="440" type="curve" smooth="yes"/>
      <point x="352" y="440"/>
      <point x="406" y="414"/>
      <point x="449" y="361" type="curve" smooth="yes"/>
      <point x="475" y="330"/>
      <point x="493" y="296"/>
      <point x="502" y="260" type="curve" smooth="yes"/>
      <point x="513" y="219"/>
      <point x="515" y="185"/>
      <point x="508" y="158" type="curve"/>
      <point x="140" y="158" type="line"/>
    </contour>
    <contour>
      <point x="221" y="-298" type="line"/>
      <point x="379" y="-298" type="line"/>
      <point x="379" y="-139" type="line"/>
      <point x="221" y="-139" type="line"/>
    </contour>
  </outline>
</glyph>
<glyph name="dalathrishDotless-syriac" format="2">
  <advance width="706"/>
  <unicode hex="0716"/>
  <note>
U0716
</note>
  <anchor x="300" y="735" name="class0"/>
  <anchor x="345" y="-150" name="class0_"/>
  <anchor x="330" y="720" name="class1"/>
  <anchor x="345" y="-150" name="class2"/>
  <anchor x="330" y="-150" name="class3"/>
  <outline>
    <contour>
      <point x="140" y="0" type="line"/>
      <point x="629" y="0" type="line"/>
      <point x="652" y="51"/>
      <point x="664" y="105"/>
      <point x="664" y="162" type="curve" smooth="yes"/>
      <point x="664" y="288"/>
      <point x="631" y="393"/>
      <point x="564" y="476" type="curve" smooth="yes"/>
      <point x="493" y="564"/>
      <point x="399" y="608"/>
      <point x="280" y="608" type="curve" smooth="yes"/>
      <point x="223" y="608"/>
      <point x="175" y="596"/>
      <point x="138" y="573" type="curve"/>
      <point x="138" y="403" type="line" smooth="yes"/>
      <point x="138" y="370"/>
      <point x="143" y="354"/>
      <point x="152" y="354" type="curve" smooth="yes"/>
      <point x="155" y="354"/>
      <point x="160" y="361"/>
      <point x="168" y="376" type="curve" smooth="yes"/>
      <point x="177" y="394"/>
      <point x="189" y="408"/>
      <point x="203" y="418" type="curve" smooth="yes"/>
      <point x="224" y="433"/>
      <point x="251" y="440"/>
      <point x="286" y="440" type="curve" smooth="yes"/>
      <point x="352" y="440"/>
      <point x="406" y="414"/>
      <point x="449" y="361" type="curve" smooth="yes"/>
      <point x="475" y="330"/>
      <point x="493" y="296"/>
      <point x="502" y="260" type="curve" smooth="yes"/>
      <point x="513" y="219"/>
      <point x="515" y="185"/>
      <point x="508" y="158" type="curve"/>
      <point x="140" y="158" type="line"/>
    </contour>
  </outline>
</glyph>
<glyph name="he-syriac" format="2">
  <advance width="913"/>
  <unicode hex="0717"/>
  <note>
U0717
</note>
  <anchor x="465" y="765" name="class0"/>
  <anchor x="510" y="-135" name="class0_"/>
  <anchor x="495" y="735" name="class1"/>
  <anchor x="510" y="-150" name="class2"/>
  <anchor x="510" y="-150" name="class3"/>
  <outline>
    <contour>
      <point x="868" y="-148" type="curve" smooth="yes"/>
      <point x="876" y="-148"/>
      <point x="880" y="-138"/>
      <point x="880" y="-117" type="curve" smooth="yes"/>
      <point x="872" y="616" type="line" smooth="yes"/>
      <point x="872" y="636"/>
      <point x="869" y="646"/>
      <point x="862" y="646" type="curve" smooth="yes"/>
      <point x="859" y="646"/>
      <point x="849" y="638"/>
      <point x="831" y="623" type="curve" smooth="yes"/>
      <point x="813" y="608"/>
      <point x="790" y="600"/>
      <point x="763" y="600" type="curve" smooth="yes"/>
      <point x="327" y="600" type="line" smooth="yes"/>
      <point x="263" y="600"/>
      <point x="210" y="564"/>
      <point x="167" y="491" type="curve" smooth="yes"/>
      <point x="130" y="429"/>
      <point x="111" y="365"/>
      <point x="111" y="298" type="curve" smooth="yes"/>
      <point x="111" y="205"/>
      <point x="139" y="130"/>
      <point x="195" y="74" type="curve" smooth="yes"/>
      <point x="249" y="19"/>
      <point x="319" y="-8"/>
      <point x="406" y="-8" type="curve" smooth="yes"/>
      <point x="526" y="-8"/>
      <point x="605" y="40"/>
      <point x="644" y="137" type="curve" smooth="yes"/>
      <point x="667" y="195"/>
      <point x="679" y="297"/>
      <point x="679" y="442" type="curve"/>
      <point x="806" y="442" type="line"/>
      <point x="852" y="-118" type="line" smooth="yes"/>
      <point x="854" y="-138"/>
      <point x="859" y="-148"/>
    </contour>
    <contour>
      <point x="406" y="150" type="curve" smooth="yes"/>
      <point x="362" y="150"/>
      <point x="324" y="170"/>
      <point x="291" y="209" type="curve" smooth="yes"/>
      <point x="260" y="246"/>
      <point x="245" y="286"/>
      <point x="245" y="329" type="curve" smooth="yes"/>
      <point x="245" y="353"/>
      <point x="252" y="377"/>
      <point x="267" y="401" type="curve" smooth="yes"/>
      <point x="285" y="428"/>
      <point x="307" y="442"/>
      <point x="332" y="442" type="curve" smooth="yes"/>
      <point x="568" y="442" type="line"/>
      <point x="574" y="410"/>
      <point x="577" y="383"/>
      <point x="577" y="360" type="curve" smooth="yes"/>
      <point x="577" y="220"/>
      <point x="520" y="150"/>
    </contour>
  </outline>
</glyph>
<glyph name="waw-syriac" format="2">
  <advance width="761"/>
  <unicode hex="0718"/>
  <note>
U0718
</note>
  <anchor x="390" y="720" name="class0"/>
  <anchor x="435" y="-150" name="class0_"/>
  <anchor x="435" y="720" name="class1"/>
  <anchor x="450" y="-135" name="class2"/>
  <anchor x="450" y="-120" name="class3"/>
  <outline>
    <contour>
      <point x="427" y="-8" type="curve" smooth="yes"/>
      <point x="582" y="-8"/>
      <point x="674" y="18"/>
      <point x="705" y="70" type="curve" smooth="yes"/>
      <point x="720" y="96"/>
      <point x="728" y="153"/>
      <point x="728" y="242" type="curve" smooth="yes"/>
      <point x="728" y="347"/>
      <point x="700" y="434"/>
      <point x="645" y="503" type="curve" smooth="yes"/>
      <point x="584" y="578"/>
      <point x="502" y="616"/>
      <point x="398" y="616" type="curve" smooth="yes"/>
      <point x="312" y="616"/>
      <point x="242" y="580"/>
      <point x="189" y="507" type="curve" smooth="yes"/>
      <point x="140" y="441"/>
      <point x="116" y="361"/>
      <point x="116" y="268" type="curve" smooth="yes"/>
      <point x="116" y="160"/>
      <point x="146" y="80"/>
      <point x="206" y="29" type="curve" smooth="yes"/>
      <point x="235" y="4"/>
      <point x="309" y="-8"/>
    </contour>
    <contour>
      <point x="430" y="150" type="curve" smooth="yes"/>
      <point x="326" y="150"/>
      <point x="274" y="198"/>
      <point x="274" y="293" type="curve" smooth="yes"/>
      <point x="274" y="338"/>
      <point x="285" y="376"/>
      <point x="308" y="407" type="curve" smooth="yes"/>
      <point x="333" y="441"/>
      <point x="365" y="458"/>
      <point x="406" y="458" type="curve" smooth="yes"/>
      <point x="458" y="458"/>
      <point x="499" y="441"/>
      <point x="529" y="408" type="curve" smooth="yes"/>
      <point x="556" y="377"/>
      <point x="570" y="336"/>
      <point x="570" y="287" type="curve" smooth="yes"/>
      <point x="570" y="196"/>
      <point x="523" y="150"/>
    </contour>
  </outline>
</glyph>
<glyph name="zain-syriac" format="2">
  <advance width="507"/>
  <unicode hex="0719"/>
  <note>
U0719
</note>
  <anchor x="300" y="705" name="class0"/>
  <anchor x="330" y="-315" name="class0_"/>
  <anchor x="345" y="660" name="class1"/>
  <anchor x="360" y="-300" name="class2"/>
  <anchor x="360" y="-315" name="class3"/>
  <outline>
    <contour>
      <point x="218" y="-217" type="curve" smooth="yes"/>
      <point x="237" y="-217"/>
      <point x="286" y="-156"/>
      <point x="365" y="-35" type="curve" smooth="yes"/>
      <point x="426" y="58"/>
      <point x="456" y="161"/>
      <point x="456" y="274" type="curve" smooth="yes"/>
      <point x="456" y="342"/>
      <point x="445" y="400"/>
      <point x="423" y="448" type="curve" smooth="yes"/>
      <point x="393" y="512"/>
      <point x="347" y="544"/>
      <point x="285" y="544" type="curve" smooth="yes"/>
      <point x="189" y="544"/>
      <point x="122" y="463"/>
      <point x="122" y="363" type="curve" smooth="yes"/>
      <point x="122" y="291"/>
      <point x="147" y="224"/>
      <point x="198" y="163" type="curve"/>
      <point x="326" y="38" type="line"/>
      <point x="323" y="17"/>
      <point x="307" y="-18"/>
      <point x="278" y="-67" type="curve" smooth="yes"/>
      <point x="253" y="-110"/>
      <point x="236" y="-136"/>
      <point x="227" y="-145" type="curve" smooth="yes"/>
      <point x="205" y="-168"/>
      <point x="194" y="-183"/>
      <point x="194" y="-192" type="curve" smooth="yes"/>
      <point x="194" y="-209"/>
      <point x="202" y="-217"/>
    </contour>
  </outline>
</glyph>
<glyph name="heth-syriac" format="2">
  <advance width="1212"/>
  <unicode hex="071A"/>
  <note>
U071a
</note>
  <anchor x="705" y="480" name="class0"/>
  <anchor x="870" y="-120" name="class0_"/>
  <anchor x="705" y="480" name="class1"/>
  <anchor x="765" y="-165" name="class2"/>
  <anchor x="720" y="-135" name="class3"/>
  <outline>
    <contour>
      <point x="866" y="-12" type="curve"/>
      <point x="904" y="175" type="line"/>
      <point x="983" y="90"/>
      <point x="1077" y="28"/>
      <point x="1187" y="-12" type="curve"/>
      <point x="1187" y="126" type="line" smooth="yes"/>
      <point x="1187" y="146"/>
      <point x="1141" y="170"/>
      <point x="1106" y="191" type="curve"/>
      <point x="1007" y="258"/>
      <point x="931" y="316"/>
      <point x="877" y="366" type="curve"/>
      <point x="836" y="175" type="line"/>
      <point x="775" y="186"/>
      <point x="718" y="213"/>
      <point x="665" y="256" type="curve" smooth="yes"/>
      <point x="654" y="265"/>
      <point x="611" y="307"/>
      <point x="536" y="384" type="curve"/>
      <point x="493" y="158" type="line"/>
      <point x="213" y="158" type="line" smooth="yes"/>
      <point x="168" y="158"/>
      <point x="131" y="169"/>
      <point x="103" y="191" type="curve" smooth="yes"/>
      <point x="84" y="205"/>
      <point x="69" y="225"/>
      <point x="57" y="251" type="curve" smooth="yes"/>
      <point x="47" y="273"/>
      <point x="41" y="284"/>
      <point x="40" y="284" type="curve" smooth="yes"/>
      <point x="22" y="284"/>
      <point x="13" y="256"/>
      <point x="13" y="199" type="curve" smooth="yes"/>
      <point x="13" y="112"/>
      <point x="36" y="54"/>
      <point x="83" y="25" type="curve" smooth="yes"/>
      <point x="110" y="8"/>
      <point x="153" y="0"/>
      <point x="213" y="0" type="curve" smooth="yes"/>
      <point x="534" y="0" type="line"/>
      <point x="562" y="158" type="line"/>
      <point x="623" y="78"/>
      <point x="724" y="21"/>
    </contour>
  </outline>
</glyph>
<glyph name="teth-syriac" format="2">
  <advance width="1484"/>
  <unicode hex="071B"/>
  <note>
U071b
</note>
  <anchor x="945" y="750" name="class0"/>
  <anchor x="735" y="-195" name="class0_"/>
  <anchor x="945" y="645" name="class1"/>
  <anchor x="675" y="-195" name="class2"/>
  <anchor x="690" y="-180" name="class3"/>
  <outline>
    <contour>
      <point x="1150" y="-525" type="curve" smooth="yes"/>
      <point x="1155" y="-525"/>
      <point x="1161" y="-518"/>
      <point x="1170" y="-504" type="curve" smooth="yes"/>
      <point x="1463" y="-18" type="line"/>
      <point x="1463" y="158" type="line"/>
      <point x="931" y="158" type="line"/>
      <point x="594" y="824" type="line" smooth="yes"/>
      <point x="584" y="845"/>
      <point x="579" y="867"/>
      <point x="579" y="892" type="curve" smooth="yes"/>
      <point x="579" y="915"/>
      <point x="584" y="941"/>
      <point x="595" y="971" type="curve" smooth="yes"/>
      <point x="606" y="1001"/>
      <point x="611" y="1015"/>
      <point x="611" y="1013" type="curve" smooth="yes"/>
      <point x="611" y="1018"/>
      <point x="609" y="1021"/>
      <point x="604" y="1021" type="curve" smooth="yes"/>
      <point x="599" y="1021"/>
      <point x="574" y="995"/>
      <point x="529" y="944" type="curve" smooth="yes"/>
      <point x="456" y="859"/>
      <point x="419" y="806"/>
      <point x="419" y="787" type="curve" smooth="yes"/>
      <point x="419" y="778"/>
      <point x="425" y="763"/>
      <point x="436" y="742" type="curve" smooth="yes"/>
      <point x="752" y="158" type="line"/>
      <point x="213" y="158" type="line" smooth="yes"/>
      <point x="168" y="158"/>
      <point x="131" y="169"/>
      <point x="103" y="191" type="curve" smooth="yes"/>
      <point x="84" y="205"/>
      <point x="69" y="225"/>
      <point x="57" y="251" type="curve" smooth="yes"/>
      <point x="47" y="273"/>
      <point x="41" y="284"/>
      <point x="40" y="284" type="curve" smooth="yes"/>
      <point x="22" y="284"/>
      <point x="13" y="256"/>
      <point x="13" y="199" type="curve" smooth="yes"/>
      <point x="13" y="112"/>
      <point x="36" y="54"/>
      <point x="83" y="25" type="curve" smooth="yes"/>
      <point x="110" y="8"/>
      <point x="153" y="0"/>
      <point x="213" y="0" type="curve" smooth="yes"/>
      <point x="830" y="0" type="line"/>
      <point x="1127" y="-499" type="line" smooth="yes"/>
      <point x="1138" y="-516"/>
      <point x="1145" y="-525"/>
    </contour>
    <contour>
      <point x="1190" y="-346" type="line"/>
      <point x="1015" y="0" type="line"/>
      <point x="1400" y="0" type="line"/>
    </contour>
  </outline>
</glyph>
<glyph name="tethGarshuni-syriac" format="2">
  <advance width="1484"/>
  <unicode hex="071C"/>
  <note>
U071c
</note>
  <anchor x="960" y="765" name="class0"/>
  <anchor x="750" y="-195" name="class0_"/>
  <anchor x="930" y="780" name="class1"/>
  <anchor x="660" y="-210" name="class2"/>
  <anchor x="690" y="-195" name="class3"/>
  <outline>
    <contour>
      <point x="1150" y="-525" type="curve" smooth="yes"/>
      <point x="1155" y="-525"/>
      <point x="1161" y="-518"/>
      <point x="1170" y="-504" type="curve" smooth="yes"/>
      <point x="1463" y="-18" type="line"/>
      <point x="1463" y="158" type="line"/>
      <point x="931" y="158" type="line"/>
      <point x="594" y="824" type="line" smooth="yes"/>
      <point x="584" y="845"/>
      <point x="579" y="867"/>
      <point x="579" y="892" type="curve" smooth="yes"/>
      <point x="579" y="915"/>
      <point x="584" y="941"/>
      <point x="595" y="971" type="curve" smooth="yes"/>
      <point x="606" y="1001"/>
      <point x="611" y="1015"/>
      <point x="611" y="1013" type="curve" smooth="yes"/>
      <point x="611" y="1018"/>
      <point x="609" y="1021"/>
      <point x="604" y="1021" type="curve" smooth="yes"/>
      <point x="599" y="1021"/>
      <point x="574" y="995"/>
      <point x="529" y="944" type="curve" smooth="yes"/>
      <point x="456" y="859"/>
      <point x="419" y="806"/>
      <point x="419" y="787" type="curve" smooth="yes"/>
      <point x="419" y="778"/>
      <point x="425" y="763"/>
      <point x="436" y="742" type="curve" smooth="yes"/>
      <point x="752" y="158" type="line"/>
      <point x="213" y="158" type="line" smooth="yes"/>
      <point x="168" y="158"/>
      <point x="131" y="169"/>
      <point x="103" y="191" type="curve" smooth="yes"/>
      <point x="84" y="205"/>
      <point x="69" y="225"/>
      <point x="57" y="251" type="curve" smooth="yes"/>
      <point x="47" y="273"/>
      <point x="41" y="284"/>
      <point x="40" y="284" type="curve" smooth="yes"/>
      <point x="22" y="284"/>
      <point x="13" y="256"/>
      <point x="13" y="199" type="curve" smooth="yes"/>
      <point x="13" y="112"/>
      <point x="36" y="54"/>
      <point x="83" y="25" type="curve" smooth="yes"/>
      <point x="110" y="8"/>
      <point x="153" y="0"/>
      <point x="213" y="0" type="curve" smooth="yes"/>
      <point x="830" y="0" type="line"/>
      <point x="1127" y="-499" type="line" smooth="yes"/>
      <point x="1138" y="-516"/>
      <point x="1145" y="-525"/>
    </contour>
    <contour>
      <point x="1190" y="-346" type="line"/>
      <point x="1015" y="0" type="line"/>
      <point x="1400" y="0" type="line"/>
    </contour>
    <contour>
      <point x="1202" y="-185" type="curve" smooth="yes"/>
      <point x="1243" y="-185"/>
      <point x="1277" y="-151"/>
      <point x="1277" y="-111" type="curve" smooth="yes"/>
      <point x="1277" y="-70"/>
      <point x="1243" y="-36"/>
      <point x="1202" y="-36" type="curve" smooth="yes"/>
      <point x="1162" y="-36"/>
      <point x="1128" y="-70"/>
      <point x="1128" y="-111" type="curve" smooth="yes"/>
      <point x="1128" y="-151"/>
      <point x="1162" y="-185"/>
    </contour>
  </outline>
</glyph>
<glyph name="yudh-syriac" format="2">
  <advance width="758"/>
  <unicode hex="071D"/>
  <note>
U071d
</note>
  <anchor x="435" y="510" name="class0"/>
  <anchor x="480" y="-150" name="class0_"/>
  <anchor x="420" y="480" name="class1"/>
  <anchor x="435" y="-120" name="class2"/>
  <anchor x="420" y="-120" name="class3"/>
  <outline>
    <contour>
      <point x="743" y="-12" type="curve"/>
      <point x="743" y="126" type="line" smooth="yes"/>
      <point x="743" y="146"/>
      <point x="698" y="170"/>
      <point x="663" y="191" type="curve"/>
      <point x="553" y="265"/>
      <point x="471" y="328"/>
      <point x="416" y="379" type="curve"/>
      <point x="399" y="158" type="line"/>
      <point x="213" y="158" type="line" smooth="yes"/>
      <point x="168" y="158"/>
      <point x="131" y="169"/>
      <point x="103" y="191" type="curve" smooth="yes"/>
      <point x="84" y="205"/>
      <point x="69" y="225"/>
      <point x="57" y="251" type="curve" smooth="yes"/>
      <point x="47" y="273"/>
      <point x="41" y="284"/>
      <point x="40" y="284" type="curve" smooth="yes"/>
      <point x="22" y="284"/>
      <point x="13" y="256"/>
      <point x="13" y="199" type="curve" smooth="yes"/>
      <point x="13" y="112"/>
      <point x="36" y="54"/>
      <point x="83" y="25" type="curve" smooth="yes"/>
      <point x="110" y="8"/>
      <point x="153" y="0"/>
      <point x="213" y="0" type="curve" smooth="yes"/>
      <point x="452" y="0" type="line"/>
      <point x="460" y="158" type="line"/>
      <point x="522" y="91"/>
      <point x="616" y="34"/>
    </contour>
  </outline>
</glyph>
<glyph name="kaph-syriac" format="2">
  <advance width="884"/>
  <unicode hex="071F"/>
  <note>
U071f
</note>
  <anchor x="420" y="765" name="class0"/>
  <anchor x="420" y="-180" name="class0_"/>
  <anchor x="420" y="765" name="class1"/>
  <anchor x="480" y="-195" name="class2"/>
  <anchor x="480" y="-195" name="class3"/>
  <outline>
    <contour>
      <point x="585" y="-749" type="curve"/>
      <point x="610" y="-748"/>
      <point x="628" y="-737"/>
      <point x="640" y="-716" type="curve" smooth="yes"/>
      <point x="684" y="-638"/>
      <point x="731" y="-518"/>
      <point x="781" y="-355" type="curve" smooth="yes"/>
      <point x="832" y="-189"/>
      <point x="858" y="-71"/>
      <point x="858" y="0" type="curve" smooth="yes"/>
      <point x="858" y="189"/>
      <point x="785" y="284"/>
      <point x="639" y="284" type="curve" smooth="yes"/>
      <point x="578" y="284"/>
      <point x="528" y="266"/>
      <point x="487" y="229" type="curve" smooth="yes"/>
      <point x="462" y="207"/>
      <point x="435" y="170"/>
      <point x="405" y="117" type="curve"/>
      <point x="211" y="472" type="line"/>
      <point x="663" y="472" type="line"/>
      <point x="663" y="647" type="line" smooth="yes"/>
      <point x="663" y="700"/>
      <point x="658" y="727"/>
      <point x="647" y="727" type="curve" smooth="yes"/>
      <point x="645" y="727"/>
      <point x="640" y="719"/>
      <point x="633" y="702" type="curve" smooth="yes"/>
      <point x="624" y="682"/>
      <point x="612" y="666"/>
      <point x="596" y="655" type="curve" smooth="yes"/>
      <point x="572" y="638"/>
      <point x="539" y="630"/>
      <point x="496" y="630" type="curve" smooth="yes"/>
      <point x="271" y="630" type="line"/>
      <point x="92" y="376" type="line"/>
      <point x="325" y="-60" type="line"/>
      <point x="389" y="56"/>
      <point x="468" y="114"/>
      <point x="561" y="114" type="curve" smooth="yes"/>
      <point x="642" y="114"/>
      <point x="698" y="91"/>
      <point x="731" y="44" type="curve" smooth="yes"/>
      <point x="759" y="5"/>
      <point x="773" y="-56"/>
      <point x="773" y="-141" type="curve" smooth="yes"/>
      <point x="773" y="-215"/>
      <point x="747" y="-326"/>
      <point x="696" y="-475" type="curve" smooth="yes"/>
      <point x="657" y="-588"/>
      <point x="620" y="-680"/>
    </contour>
  </outline>
</glyph>
<glyph name="lamadh-syriac" format="2">
  <advance width="1066"/>
  <unicode hex="0720"/>
  <note>
U0720
</note>
  <anchor x="840" y="870" name="class0"/>
  <anchor x="720" y="-165" name="class0_"/>
  <anchor x="855" y="1005" name="class1"/>
  <anchor x="630" y="-120" name="class2"/>
  <anchor x="630" y="-120" name="class3"/>
  <outline>
    <contour>
      <point x="242" y="0" type="curve" smooth="yes"/>
      <point x="889" y="0" type="line" smooth="yes"/>
      <point x="991" y="0"/>
      <point x="1042" y="34"/>
      <point x="1042" y="103" type="curve" smooth="yes"/>
      <point x="1042" y="150"/>
      <point x="1028" y="197"/>
      <point x="1000" y="244" type="curve" smooth="yes"/>
      <point x="548" y="988" type="line" smooth="yes"/>
      <point x="537" y="1007"/>
      <point x="531" y="1023"/>
      <point x="531" y="1037" type="curve" smooth="yes"/>
      <point x="531" y="1045"/>
      <point x="536" y="1060"/>
      <point x="547" y="1082" type="curve" smooth="yes"/>
      <point x="558" y="1103"/>
      <point x="563" y="1118"/>
      <point x="563" y="1125" type="curve" smooth="yes"/>
      <point x="563" y="1132"/>
      <point x="560" y="1135"/>
      <point x="555" y="1135" type="curve" smooth="yes"/>
      <point x="548" y="1135"/>
      <point x="518" y="1111"/>
      <point x="466" y="1062" type="curve" smooth="yes"/>
      <point x="405" y="1005" type="line"/>
      <point x="385" y="983"/>
      <point x="375" y="960"/>
      <point x="375" y="936" type="curve" smooth="yes"/>
      <point x="375" y="911"/>
      <point x="386" y="883"/>
      <point x="407" y="851" type="curve" smooth="yes"/>
      <point x="883" y="158" type="line"/>
      <point x="242" y="158" type="line" smooth="yes"/>
      <point x="196" y="158"/>
      <point x="159" y="169"/>
      <point x="131" y="191" type="curve" smooth="yes"/>
      <point x="112" y="205"/>
      <point x="97" y="225"/>
      <point x="86" y="251" type="curve" smooth="yes"/>
      <point x="76" y="273"/>
      <point x="70" y="284"/>
      <point x="68" y="284" type="curve" smooth="yes"/>
      <point x="50" y="284"/>
      <point x="41" y="256"/>
      <point x="41" y="199" type="curve" smooth="yes"/>
      <point x="41" y="112"/>
      <point x="64" y="54"/>
      <point x="111" y="25" type="curve" smooth="yes"/>
      <point x="138" y="8"/>
      <point x="181" y="0"/>
    </contour>
  </outline>
</glyph>
<glyph name="mim-syriac" format="2">
  <advance width="947"/>
  <unicode hex="0721"/>
  <note>
U0721
</note>
  <anchor x="540" y="750" name="class0"/>
  <anchor x="600" y="-150" name="class0_"/>
  <anchor x="495" y="750" name="class1"/>
  <anchor x="570" y="-135" name="class2"/>
  <anchor x="570" y="-150" name="class3"/>
  <outline>
    <contour>
      <point x="54" y="-167" type="curve"/>
      <point x="63" y="-167"/>
      <point x="73" y="-159"/>
      <point x="86" y="-142" type="curve" smooth="yes"/>
      <point x="194" y="0" type="line"/>
      <point x="916" y="0" type="line"/>
      <point x="916" y="106" type="line" smooth="yes"/>
      <point x="916" y="125"/>
      <point x="909" y="166"/>
      <point x="896" y="231" type="curve" smooth="yes"/>
      <point x="883" y="295"/>
      <point x="876" y="370"/>
      <point x="876" y="456" type="curve" smooth="yes"/>
      <point x="876" y="476"/>
      <point x="878" y="504"/>
      <point x="883" y="541" type="curve" smooth="yes"/>
      <point x="888" y="577"/>
      <point x="890" y="605"/>
      <point x="890" y="624" type="curve" smooth="yes"/>
      <point x="890" y="666"/>
      <point x="884" y="687"/>
      <point x="873" y="687" type="curve" smooth="yes"/>
      <point x="872" y="687"/>
      <point x="868" y="679"/>
      <point x="863" y="664" type="curve" smooth="yes"/>
      <point x="856" y="646"/>
      <point x="845" y="632"/>
      <point x="830" y="622" type="curve" smooth="yes"/>
      <point x="807" y="607"/>
      <point x="772" y="600"/>
      <point x="726" y="600" type="curve" smooth="yes"/>
      <point x="195" y="600" type="line" smooth="yes"/>
      <point x="150" y="600"/>
      <point x="115" y="607"/>
      <point x="92" y="622" type="curve" smooth="yes"/>
      <point x="76" y="632"/>
      <point x="65" y="646"/>
      <point x="59" y="664" type="curve" smooth="yes"/>
      <point x="54" y="679"/>
      <point x="50" y="687"/>
      <point x="48" y="687" type="curve" smooth="yes"/>
      <point x="33" y="687"/>
      <point x="26" y="652"/>
      <point x="26" y="583" type="curve" smooth="yes"/>
      <point x="26" y="521"/>
      <point x="37" y="480"/>
      <point x="60" y="461" type="curve" smooth="yes"/>
      <point x="76" y="448"/>
      <point x="108" y="442"/>
      <point x="155" y="442" type="curve" smooth="yes"/>
      <point x="379" y="442" type="line"/>
      <point x="56" y="-137" type="line" smooth="yes"/>
      <point x="50" y="-148"/>
      <point x="47" y="-155"/>
      <point x="47" y="-159" type="curve" smooth="yes"/>
      <point x="47" y="-162"/>
      <point x="49" y="-165"/>
    </contour>
    <contour>
      <point x="284" y="158" type="line"/>
      <point x="458" y="442" type="line"/>
      <point x="754" y="442" type="line"/>
      <point x="754" y="158" type="line"/>
    </contour>
  </outline>
</glyph>
<glyph name="nun-syriac" format="2">
  <advance width="807"/>
  <unicode hex="0722"/>
  <note>
U0722
</note>
  <anchor x="375" y="450" name="class0"/>
  <anchor x="450" y="-210" name="class0_"/>
  <anchor x="345" y="405" name="class1"/>
  <anchor x="360" y="-150" name="class2"/>
  <anchor x="375" y="-165" name="class3"/>
  <outline>
    <contour>
      <point x="930" y="-525" type="curve" smooth="yes"/>
      <point x="937" y="-525"/>
      <point x="941" y="-522"/>
      <point x="941" y="-515" type="curve" smooth="yes"/>
      <point x="941" y="-512"/>
      <point x="937" y="-505"/>
      <point x="928" y="-494" type="curve" smooth="yes"/>
      <point x="302" y="255" type="line" smooth="yes"/>
      <point x="297" y="261"/>
      <point x="290" y="264"/>
      <point x="281" y="264" type="curve" smooth="yes"/>
      <point x="272" y="264"/>
      <point x="261" y="259"/>
      <point x="248" y="250" type="curve" smooth="yes"/>
      <point x="143" y="175" type="line"/>
      <point x="269" y="0" type="line"/>
      <point x="357" y="72" type="line"/>
      <point x="917" y="-517" type="line" smooth="yes"/>
      <point x="922" y="-522"/>
      <point x="927" y="-525"/>
    </contour>
  </outline>
</glyph>
<glyph name="semkath-syriac" format="2">
  <advance width="1123"/>
  <unicode hex="0723"/>
  <note>
U0723
</note>
  <anchor x="720" y="780" name="class0"/>
  <anchor x="735" y="-150" name="class0_"/>
  <anchor x="750" y="765" name="class1"/>
  <anchor x="675" y="-120" name="class2"/>
  <anchor x="675" y="-135" name="class3"/>
  <outline>
    <contour>
      <point x="767" y="-8" type="curve" smooth="yes"/>
      <point x="956" y="-8"/>
      <point x="1091" y="106"/>
      <point x="1091" y="289" type="curve" smooth="yes"/>
      <point x="1091" y="346"/>
      <point x="1078" y="401"/>
      <point x="1053" y="453" type="curve" smooth="yes"/>
      <point x="1017" y="526"/>
      <point x="964" y="563"/>
      <point x="894" y="563" type="curve" smooth="yes"/>
      <point x="841" y="563"/>
      <point x="797" y="548"/>
      <point x="762" y="519" type="curve"/>
      <point x="687" y="626"/>
      <point x="606" y="679"/>
      <point x="519" y="679" type="curve" smooth="yes"/>
      <point x="387" y="679"/>
      <point x="276" y="571"/>
      <point x="276" y="435" type="curve" smooth="yes"/>
      <point x="276" y="340"/>
      <point x="313" y="251"/>
      <point x="388" y="169" type="curve"/>
      <point x="386" y="158" type="line"/>
      <point x="242" y="158" type="line" smooth="yes"/>
      <point x="196" y="158"/>
      <point x="159" y="169"/>
      <point x="131" y="191" type="curve" smooth="yes"/>
      <point x="112" y="205"/>
      <point x="97" y="225"/>
      <point x="86" y="251" type="curve" smooth="yes"/>
      <point x="76" y="273"/>
      <point x="70" y="284"/>
      <point x="68" y="284" type="curve" smooth="yes"/>
      <point x="50" y="284"/>
      <point x="41" y="256"/>
      <point x="41" y="199" type="curve" smooth="yes"/>
      <point x="41" y="112"/>
      <point x="64" y="54"/>
      <point x="111" y="25" type="curve" smooth="yes"/>
      <point x="138" y="8"/>
      <point x="181" y="0"/>
      <point x="242" y="0" type="curve" smooth="yes"/>
      <point x="454" y="0" type="line"/>
      <point x="465" y="103" type="line"/>
      <point x="566" y="29"/>
      <point x="667" y="-8"/>
    </contour>
    <contour>
      <point x="615" y="185" type="curve"/>
      <point x="510" y="237"/>
      <point x="434" y="339"/>
      <point x="434" y="426" type="curve" smooth="yes"/>
      <point x="434" y="489"/>
      <point x="466" y="521"/>
      <point x="530" y="521" type="curve" smooth="yes"/>
      <point x="606" y="521"/>
      <point x="666" y="459"/>
      <point x="666" y="386" type="curve" smooth="yes"/>
      <point x="666" y="351"/>
      <point x="649" y="284"/>
    </contour>
    <contour>
      <point x="779" y="150" type="curve" smooth="yes"/>
      <point x="735" y="150"/>
      <point x="699" y="154"/>
      <point x="672" y="161" type="curve"/>
      <point x="679" y="208"/>
      <point x="727" y="349"/>
      <point x="744" y="372" type="curve" smooth="yes"/>
      <point x="761" y="394"/>
      <point x="787" y="405"/>
      <point x="822" y="405" type="curve" smooth="yes"/>
      <point x="896" y="405"/>
      <point x="933" y="368"/>
      <point x="933" y="293" type="curve" smooth="yes"/>
      <point x="933" y="198"/>
      <point x="882" y="150"/>
    </contour>
  </outline>
</glyph>
<glyph name="semkathFinal-syriac" format="2">
  <advance width="1123"/>
  <unicode hex="0724"/>
  <note>
U0724
</note>
  <anchor x="705" y="780" name="class0"/>
  <anchor x="735" y="-225" name="class0_"/>
  <anchor x="720" y="765" name="class1"/>
  <anchor x="660" y="-165" name="class2"/>
  <anchor x="630" y="-165" name="class3"/>
  <outline>
    <contour>
      <point x="544" y="-114" type="curve" smooth="yes"/>
      <point x="553" y="-114"/>
      <point x="575" y="-76"/>
      <point x="610" y="0" type="curve"/>
      <point x="631" y="0"/>
      <point x="658" y="-1"/>
      <point x="691" y="-4" type="curve" smooth="yes"/>
      <point x="724" y="-7"/>
      <point x="749" y="-8"/>
      <point x="767" y="-8" type="curve" smooth="yes"/>
      <point x="956" y="-8"/>
      <point x="1091" y="106"/>
      <point x="1091" y="289" type="curve" smooth="yes"/>
      <point x="1091" y="346"/>
      <point x="1078" y="401"/>
      <point x="1053" y="453" type="curve" smooth="yes"/>
      <point x="1017" y="526"/>
      <point x="964" y="563"/>
      <point x="894" y="563" type="curve" smooth="yes"/>
      <point x="841" y="563"/>
      <point x="797" y="548"/>
      <point x="762" y="519" type="curve"/>
      <point x="687" y="626"/>
      <point x="606" y="679"/>
      <point x="519" y="679" type="curve" smooth="yes"/>
      <point x="387" y="679"/>
      <point x="276" y="571"/>
      <point x="276" y="435" type="curve" smooth="yes"/>
      <point x="276" y="340"/>
      <point x="313" y="251"/>
      <point x="388" y="169" type="curve"/>
      <point x="386" y="158" type="line"/>
      <point x="242" y="158" type="line" smooth="yes"/>
      <point x="196" y="158"/>
      <point x="159" y="169"/>
      <point x="131" y="191" type="curve" smooth="yes"/>
      <point x="112" y="205"/>
      <point x="97" y="225"/>
      <point x="86" y="251" type="curve" smooth="yes"/>
      <point x="76" y="273"/>
      <point x="70" y="284"/>
      <point x="68" y="284" type="curve" smooth="yes"/>
      <point x="50" y="284"/>
      <point x="41" y="256"/>
      <point x="41" y="199" type="curve" smooth="yes"/>
      <point x="41" y="112"/>
      <point x="64" y="54"/>
      <point x="111" y="25" type="curve" smooth="yes"/>
      <point x="138" y="8"/>
      <point x="181" y="0"/>
      <point x="242" y="0" type="curve" smooth="yes"/>
      <point x="551" y="0" type="line"/>
      <point x="529" y="-51"/>
      <point x="518" y="-80"/>
      <point x="518" y="-88" type="curve" smooth="yes"/>
      <point x="518" y="-105"/>
      <point x="527" y="-114"/>
    </contour>
    <contour>
      <point x="615" y="185" type="curve"/>
      <point x="510" y="237"/>
      <point x="434" y="339"/>
      <point x="434" y="426" type="curve" smooth="yes"/>
      <point x="434" y="489"/>
      <point x="466" y="521"/>
      <point x="530" y="521" type="curve" smooth="yes"/>
      <point x="606" y="521"/>
      <point x="666" y="459"/>
      <point x="666" y="386" type="curve" smooth="yes"/>
      <point x="666" y="351"/>
      <point x="649" y="284"/>
    </contour>
    <contour>
      <point x="779" y="150" type="curve" smooth="yes"/>
      <point x="735" y="150"/>
      <point x="699" y="154"/>
      <point x="672" y="161" type="curve"/>
      <point x="679" y="208"/>
      <point x="727" y="349"/>
      <point x="744" y="372" type="curve" smooth="yes"/>
      <point x="761" y="394"/>
      <point x="787" y="405"/>
      <point x="822" y="405" type="curve" smooth="yes"/>
      <point x="896" y="405"/>
      <point x="933" y="368"/>
      <point x="933" y="293" type="curve" smooth="yes"/>
      <point x="933" y="198"/>
      <point x="882" y="150"/>
    </contour>
  </outline>
</glyph>
<glyph name="e-syriac" format="2">
  <advance width="1338"/>
  <unicode hex="0725"/>
  <note>
U0725
</note>
  <anchor x="525" y="975" name="class0"/>
  <anchor x="765" y="-135" name="class0_"/>
  <anchor x="510" y="975" name="class1"/>
  <anchor x="600" y="-150" name="class2"/>
  <anchor x="615" y="-135" name="class3"/>
  <outline>
    <contour>
      <point x="1077" y="-8" type="curve" smooth="yes"/>
      <point x="1220" y="-8"/>
      <point x="1292" y="76"/>
      <point x="1292" y="243" type="curve" smooth="yes"/>
      <point x="1292" y="305"/>
      <point x="1284" y="336"/>
      <point x="1267" y="336" type="curve" smooth="yes"/>
      <point x="1262" y="336"/>
      <point x="1255" y="320"/>
      <point x="1246" y="288" type="curve" smooth="yes"/>
      <point x="1235" y="248"/>
      <point x="1222" y="218"/>
      <point x="1206" y="198" type="curve" smooth="yes"/>
      <point x="1181" y="166"/>
      <point x="1147" y="150"/>
      <point x="1104" y="150" type="curve" smooth="yes"/>
      <point x="1031" y="150"/>
      <point x="919" y="249"/>
      <point x="769" y="447" type="curve" smooth="yes"/>
      <point x="690" y="550"/>
      <point x="640" y="621"/>
      <point x="619" y="660" type="curve" smooth="yes"/>
      <point x="584" y="723"/>
      <point x="565" y="787"/>
      <point x="564" y="853" type="curve" smooth="yes"/>
      <point x="564" y="875"/>
      <point x="562" y="886"/>
      <point x="559" y="886" type="curve" smooth="yes"/>
      <point x="555" y="886"/>
      <point x="542" y="869"/>
      <point x="521" y="836" type="curve" smooth="yes"/>
      <point x="451" y="730"/>
      <point x="416" y="672"/>
      <point x="416" y="662" type="curve" smooth="yes"/>
      <point x="416" y="630"/>
      <point x="435" y="591"/>
      <point x="473" y="544" type="curve" smooth="yes"/>
      <point x="612" y="364"/>
      <point x="717" y="235"/>
      <point x="788" y="158" type="curve"/>
      <point x="242" y="158" type="line" smooth="yes"/>
      <point x="196" y="158"/>
      <point x="159" y="169"/>
      <point x="131" y="191" type="curve" smooth="yes"/>
      <point x="112" y="205"/>
      <point x="97" y="225"/>
      <point x="86" y="251" type="curve" smooth="yes"/>
      <point x="76" y="273"/>
      <point x="70" y="284"/>
      <point x="68" y="284" type="curve" smooth="yes"/>
      <point x="50" y="284"/>
      <point x="41" y="256"/>
      <point x="41" y="199" type="curve" smooth="yes"/>
      <point x="41" y="112"/>
      <point x="64" y="54"/>
      <point x="111" y="25" type="curve" smooth="yes"/>
      <point x="138" y="8"/>
      <point x="181" y="0"/>
      <point x="242" y="0" type="curve" smooth="yes"/>
      <point x="809" y="0" type="line"/>
      <point x="852" y="111" type="line"/>
      <point x="898" y="65"/>
      <point x="931" y="36"/>
      <point x="952" y="23" type="curve" smooth="yes"/>
      <point x="986" y="2"/>
      <point x="1028" y="-8"/>
    </contour>
  </outline>
</glyph>
<glyph name="pe-syriac" format="2">
  <advance width="1130"/>
  <unicode hex="0726"/>
  <note>
U0726
</note>
  <anchor x="720" y="990" name="class0"/>
  <anchor x="765" y="-135" name="class0_"/>
  <anchor x="690" y="975" name="class1"/>
  <anchor x="735" y="-135" name="class2"/>
  <anchor x="735" y="-120" name="class3"/>
  <outline>
    <contour>
      <point x="213" y="0" type="curve" smooth="yes"/>
      <point x="1084" y="0" type="line"/>
      <point x="1084" y="158" type="line" smooth="yes"/>
      <point x="1084" y="162"/>
      <point x="1066" y="230"/>
      <point x="1029" y="363" type="curve" smooth="yes"/>
      <point x="987" y="513"/>
      <point x="957" y="637"/>
      <point x="939" y="735" type="curve" smooth="yes"/>
      <point x="930" y="784"/>
      <point x="926" y="832"/>
      <point x="926" y="878" type="curve" smooth="yes"/>
      <point x="926" y="909"/>
      <point x="924" y="924"/>
      <point x="919" y="924" type="curve" smooth="yes"/>
      <point x="915" y="924"/>
      <point x="900" y="915"/>
      <point x="874" y="896" type="curve" smooth="yes"/>
      <point x="845" y="875"/>
      <point x="814" y="859"/>
      <point x="782" y="850" type="curve" smooth="yes"/>
      <point x="620" y="801" type="line" smooth="yes"/>
      <point x="505" y="767"/>
      <point x="448" y="700"/>
      <point x="448" y="600" type="curve" smooth="yes"/>
      <point x="448" y="504"/>
      <point x="479" y="439"/>
      <point x="541" y="405" type="curve" smooth="yes"/>
      <point x="585" y="380"/>
      <point x="658" y="367"/>
      <point x="760" y="367" type="curve" smooth="yes"/>
      <point x="872" y="367" type="line"/>
      <point x="904" y="221" type="line"/>
      <point x="904" y="179"/>
      <point x="896" y="158"/>
      <point x="881" y="158" type="curve" smooth="yes"/>
      <point x="213" y="158" type="line" smooth="yes"/>
      <point x="168" y="158"/>
      <point x="131" y="169"/>
      <point x="103" y="191" type="curve" smooth="yes"/>
      <point x="84" y="205"/>
      <point x="69" y="225"/>
      <point x="57" y="251" type="curve" smooth="yes"/>
      <point x="47" y="273"/>
      <point x="41" y="284"/>
      <point x="40" y="284" type="curve" smooth="yes"/>
      <point x="22" y="284"/>
      <point x="13" y="256"/>
      <point x="13" y="199" type="curve" smooth="yes"/>
      <point x="13" y="112"/>
      <point x="36" y="54"/>
      <point x="83" y="25" type="curve" smooth="yes"/>
      <point x="110" y="8"/>
      <point x="153" y="0"/>
    </contour>
    <contour>
      <point x="742" y="468" type="line" smooth="yes"/>
      <point x="695" y="468"/>
      <point x="663" y="474"/>
      <point x="644" y="486" type="curve" smooth="yes"/>
      <point x="619" y="503"/>
      <point x="606" y="535"/>
      <point x="606" y="583" type="curve" smooth="yes"/>
      <point x="606" y="630"/>
      <point x="628" y="663"/>
      <point x="671" y="682" type="curve" smooth="yes"/>
      <point x="685" y="688"/>
      <point x="727" y="697"/>
      <point x="796" y="708" type="curve"/>
      <point x="848" y="468" type="line"/>
    </contour>
  </outline>
</glyph>
<glyph name="sadhe-syriac" format="2">
  <advance width="731"/>
  <unicode hex="0728"/>
  <anchor x="360" y="420" name="class0"/>
  <anchor x="405" y="-645" name="class0_"/>
  <anchor x="345" y="390" name="class1"/>
  <anchor x="420" y="-645" name="class2"/>
  <anchor x="390" y="-645" name="class3"/>
  <outline>
    <contour>
      <point x="412" y="-525" type="curve" smooth="yes"/>
      <point x="687" y="-523" type="line"/>
      <point x="687" y="-400" type="line"/>
      <point x="612" y="-358"/>
      <point x="540" y="-307"/>
      <point x="470" y="-248" type="curve" smooth="yes"/>
      <point x="367" y="-161"/>
      <point x="298" y="-77"/>
      <point x="265" y="4" type="curve"/>
      <point x="310" y="-4"/>
      <point x="352" y="-8"/>
      <point x="391" y="-8" type="curve" smooth="yes"/>
      <point x="482" y="-8"/>
      <point x="544" y="17"/>
      <point x="577" y="66" type="curve"/>
      <point x="602" y="39"/>
      <point x="620" y="22"/>
      <point x="631" y="16" type="curve" smooth="yes"/>
      <point x="648" y="5"/>
      <point x="671" y="0"/>
      <point x="701" y="0" type="curve"/>
      <point x="701" y="158" type="line"/>
      <point x="672" y="158"/>
      <point x="640" y="176"/>
      <point x="605" y="212" type="curve" smooth="yes"/>
      <point x="587" y="230"/>
      <point x="563" y="260"/>
      <point x="532" y="302" type="curve"/>
      <point x="519" y="201"/>
      <point x="448" y="150"/>
      <point x="321" y="150" type="curve" smooth="yes"/>
      <point x="276" y="150"/>
      <point x="232" y="162"/>
      <point x="191" y="187" type="curve" smooth="yes"/>
      <point x="148" y="213"/>
      <point x="119" y="246"/>
      <point x="104" y="287" type="curve" smooth="yes"/>
      <point x="99" y="299"/>
      <point x="96" y="305"/>
      <point x="93" y="305" type="curve" smooth="yes"/>
      <point x="76" y="305"/>
      <point x="68" y="270"/>
      <point x="68" y="199" type="curve" smooth="yes"/>
      <point x="68" y="62"/>
      <point x="121" y="-71"/>
      <point x="228" y="-200" type="curve" smooth="yes"/>
      <point x="295" y="-281"/>
      <point x="401" y="-376"/>
      <point x="544" y="-484" type="curve"/>
      <point x="54" y="-493" type="line" smooth="yes"/>
      <point x="39" y="-493"/>
      <point x="32" y="-497"/>
      <point x="32" y="-505" type="curve" smooth="yes"/>
      <point x="32" y="-514"/>
      <point x="39" y="-518"/>
      <point x="53" y="-519" type="curve" smooth="yes"/>
      <point x="96" y="-523"/>
      <point x="216" y="-525"/>
    </contour>
  </outline>
</glyph>
<glyph name="qaph-syriac" format="2">
  <advance width="1061"/>
  <unicode hex="0729"/>
  <note>
U0729
</note>
  <anchor x="675" y="780" name="class0"/>
  <anchor x="750" y="-150" name="class0_"/>
  <anchor x="675" y="750" name="class1"/>
  <anchor x="705" y="-135" name="class2"/>
  <anchor x="705" y="-120" name="class3"/>
  <outline>
    <contour>
      <point x="238" y="0" type="curve" smooth="yes"/>
      <point x="312" y="0" type="line" smooth="yes"/>
      <point x="349" y="0"/>
      <point x="378" y="32"/>
      <point x="401" y="97" type="curve"/>
      <point x="440" y="32"/>
      <point x="490" y="0"/>
      <point x="552" y="0" type="curve" smooth="yes"/>
      <point x="904" y="0" type="line" smooth="yes"/>
      <point x="965" y="0"/>
      <point x="995" y="127"/>
      <point x="995" y="382" type="curve" smooth="yes"/>
      <point x="995" y="447"/>
      <point x="988" y="513"/>
      <point x="973" y="578" type="curve" smooth="yes"/>
      <point x="960" y="639"/>
      <point x="949" y="669"/>
      <point x="939" y="669" type="curve" smooth="yes"/>
      <point x="931" y="669"/>
      <point x="923" y="658"/>
      <point x="915" y="635" type="curve" smooth="yes"/>
      <point x="907" y="612"/>
      <point x="881" y="600"/>
      <point x="837" y="600" type="curve" smooth="yes"/>
      <point x="530" y="600" type="line" smooth="yes"/>
      <point x="486" y="600"/>
      <point x="460" y="612"/>
      <point x="452" y="635" type="curve" smooth="yes"/>
      <point x="444" y="658"/>
      <point x="436" y="669"/>
      <point x="428" y="669" type="curve" smooth="yes"/>
      <point x="418" y="669"/>
      <point x="407" y="639"/>
      <point x="394" y="578" type="curve" smooth="yes"/>
      <point x="379" y="513"/>
      <point x="372" y="447"/>
      <point x="372" y="382" type="curve" smooth="yes"/>
      <point x="372" y="272"/>
      <point x="380" y="197"/>
      <point x="395" y="158" type="curve"/>
      <point x="238" y="158" type="line" smooth="yes"/>
      <point x="192" y="158"/>
      <point x="155" y="169"/>
      <point x="127" y="191" type="curve" smooth="yes"/>
      <point x="108" y="205"/>
      <point x="93" y="225"/>
      <point x="81" y="251" type="curve" smooth="yes"/>
      <point x="72" y="273"/>
      <point x="66" y="284"/>
      <point x="64" y="284" type="curve" smooth="yes"/>
      <point x="46" y="284"/>
      <point x="37" y="256"/>
      <point x="37" y="199" type="curve" smooth="yes"/>
      <point x="37" y="112"/>
      <point x="60" y="54"/>
      <point x="107" y="25" type="curve" smooth="yes"/>
      <point x="134" y="8"/>
      <point x="177" y="0"/>
    </contour>
    <contour>
      <point x="530" y="158" type="line"/>
      <point x="530" y="442" type="line"/>
      <point x="837" y="442" type="line"/>
      <point x="837" y="158" type="line"/>
    </contour>
  </outline>
</glyph>
<glyph name="rish-syriac" format="2">
  <advance width="752"/>
  <unicode hex="072A"/>
  <note>
U072a
</note>
  <anchor x="300" y="1005" name="class0"/>
  <anchor x="360" y="-150" name="class0_"/>
  <anchor x="300" y="1020" name="class1"/>
  <anchor x="360" y="-150" name="class2"/>
  <anchor x="315" y="-165" name="class3"/>
  <outline>
    <contour>
      <point x="140" y="0" type="line"/>
      <point x="629" y="0" type="line"/>
      <point x="652" y="51"/>
      <point x="664" y="105"/>
      <point x="664" y="162" type="curve" smooth="yes"/>
      <point x="664" y="288"/>
      <point x="631" y="393"/>
      <point x="564" y="476" type="curve" smooth="yes"/>
      <point x="493" y="564"/>
      <point x="399" y="608"/>
      <point x="280" y="608" type="curve" smooth="yes"/>
      <point x="223" y="608"/>
      <point x="175" y="596"/>
      <point x="138" y="573" type="curve"/>
      <point x="138" y="403" type="line" smooth="yes"/>
      <point x="138" y="370"/>
      <point x="143" y="354"/>
      <point x="152" y="354" type="curve" smooth="yes"/>
      <point x="155" y="354"/>
      <point x="160" y="361"/>
      <point x="168" y="376" type="curve" smooth="yes"/>
      <point x="177" y="394"/>
      <point x="189" y="408"/>
      <point x="203" y="418" type="curve" smooth="yes"/>
      <point x="224" y="433"/>
      <point x="251" y="440"/>
      <point x="286" y="440" type="curve" smooth="yes"/>
      <point x="352" y="440"/>
      <point x="406" y="414"/>
      <point x="449" y="361" type="curve" smooth="yes"/>
      <point x="475" y="330"/>
      <point x="493" y="296"/>
      <point x="502" y="260" type="curve" smooth="yes"/>
      <point x="513" y="219"/>
      <point x="515" y="185"/>
      <point x="508" y="158" type="curve"/>
      <point x="140" y="158" type="line"/>
    </contour>
    <contour>
      <point x="241" y="767" type="line"/>
      <point x="399" y="767" type="line"/>
      <point x="399" y="925" type="line"/>
      <point x="241" y="925" type="line"/>
    </contour>
  </outline>
</glyph>
<glyph name="taw-syriac" format="2">
  <advance width="912"/>
  <unicode hex="072C"/>
  <note>
U072c
</note>
  <anchor x="360" y="930" name="class0"/>
  <anchor x="435" y="-180" name="class0_"/>
  <anchor x="345" y="960" name="class1"/>
  <anchor x="405" y="-105" name="class2"/>
  <anchor x="405" y="-120" name="class3"/>
  <outline>
    <contour>
      <point x="612" y="-23" type="curve" smooth="yes"/>
      <point x="621" y="-23"/>
      <point x="625" y="-19"/>
      <point x="625" y="-12" type="curve" smooth="yes"/>
      <point x="625" y="-10"/>
      <point x="621" y="-2"/>
      <point x="612" y="11" type="curve" smooth="yes"/>
      <point x="569" y="76"/>
      <point x="514" y="133"/>
      <point x="447" y="182" type="curve" smooth="yes"/>
      <point x="364" y="243"/>
      <point x="284" y="273"/>
      <point x="205" y="273" type="curve" smooth="yes"/>
      <point x="144" y="271" type="line"/>
      <point x="249" y="648" type="line"/>
      <point x="620" y="246"/>
      <point x="827" y="30"/>
      <point x="872" y="0" type="curve"/>
      <point x="872" y="134" type="line" smooth="yes"/>
      <point x="872" y="195"/>
      <point x="858" y="241"/>
      <point x="829" y="272" type="curve" smooth="yes"/>
      <point x="319" y="823" type="line" smooth="yes"/>
      <point x="301" y="843"/>
      <point x="287" y="853"/>
      <point x="278" y="853" type="curve" smooth="yes"/>
      <point x="265" y="853"/>
      <point x="255" y="841"/>
      <point x="248" y="816" type="curve" smooth="yes"/>
      <point x="90" y="253" type="line" smooth="yes"/>
      <point x="68" y="174"/>
      <point x="57" y="123"/>
      <point x="57" y="100" type="curve" smooth="yes"/>
      <point x="57" y="23"/>
      <point x="93" y="-15"/>
      <point x="165" y="-15" type="curve" smooth="yes"/>
      <point x="188" y="-15"/>
      <point x="229" y="6"/>
      <point x="289" y="47" type="curve" smooth="yes"/>
      <point x="348" y="88"/>
      <point x="397" y="109"/>
      <point x="435" y="109" type="curve" smooth="yes"/>
      <point x="506" y="109"/>
      <point x="616" y="-23"/>
    </contour>
  </outline>
</glyph>
<glyph name="pthahaabove-syriac" format="2">
  <unicode hex="0730"/>
  <note>
U0730
</note>
  <anchor x="195" y="60" name="_class0"/>
  <outline>
    <contour>
      <point x="28" y="0" type="line"/>
      <point x="372" y="241" type="line"/>
      <point x="343" y="278" type="line"/>
      <point x="302" y="249" type="line"/>
      <point x="86" y="288" type="line"/>
      <point x="49" y="71" type="line"/>
      <point x="-1" y="37" type="line"/>
    </contour>
    <contour>
      <point x="94" y="104" type="line"/>
      <point x="121" y="243" type="line"/>
      <point x="258" y="218" type="line"/>
    </contour>
  </outline>
</glyph>
<glyph name="pthahadotted-syriac" format="2">
  <unicode hex="0732"/>
  <note>
U0732
</note>
  <outline>
    <contour>
      <point x="420" y="892" type="curve" smooth="yes"/>
      <point x="439" y="892"/>
      <point x="454" y="906"/>
      <point x="465" y="934" type="curve" smooth="yes"/>
      <point x="474" y="956"/>
      <point x="479" y="978"/>
      <point x="479" y="1000" type="curve" smooth="yes"/>
      <point x="479" y="1018"/>
      <point x="475" y="1039"/>
      <point x="466" y="1063" type="curve" smooth="yes"/>
      <point x="455" y="1092"/>
      <point x="442" y="1106"/>
      <point x="427" y="1106" type="curve" smooth="yes"/>
      <point x="408" y="1106"/>
      <point x="392" y="1091"/>
      <point x="380" y="1062" type="curve" smooth="yes"/>
      <point x="371" y="1039"/>
      <point x="366" y="1017"/>
      <point x="366" y="994" type="curve" smooth="yes"/>
      <point x="366" y="975"/>
      <point x="370" y="954"/>
      <point x="379" y="933" type="curve" smooth="yes"/>
      <point x="390" y="906"/>
      <point x="404" y="892"/>
    </contour>
    <contour>
      <point x="432" y="-350" type="curve" smooth="yes"/>
      <point x="451" y="-350"/>
      <point x="466" y="-336"/>
      <point x="477" y="-308" type="curve" smooth="yes"/>
      <point x="486" y="-286"/>
      <point x="491" y="-264"/>
      <point x="491" y="-242" type="curve" smooth="yes"/>
      <point x="491" y="-224"/>
      <point x="487" y="-203"/>
      <point x="478" y="-179" type="curve" smooth="yes"/>
      <point x="467" y="-150"/>
      <point x="454" y="-136"/>
      <point x="439" y="-136" type="curve" smooth="yes"/>
      <point x="420" y="-136"/>
      <point x="404" y="-151"/>
      <point x="392" y="-180" type="curve" smooth="yes"/>
      <point x="383" y="-203"/>
      <point x="378" y="-225"/>
      <point x="378" y="-248" type="curve" smooth="yes"/>
      <point x="378" y="-267"/>
      <point x="382" y="-288"/>
      <point x="391" y="-309" type="curve" smooth="yes"/>
      <point x="402" y="-336"/>
      <point x="416" y="-350"/>
    </contour>
  </outline>
</glyph>
<glyph name="rbasabelow-syriac" format="2">
  <unicode hex="0737"/>
  <note>
U0737
</note>
  <anchor x="195" y="0" name="_class2"/>
  <outline>
    <contour>
      <point x="151" y="-297" type="curve" smooth="yes"/>
      <point x="205" y="-297"/>
      <point x="263" y="-264"/>
      <point x="326" y="-199" type="curve"/>
      <point x="275" y="-233"/>
      <point x="226" y="-250"/>
      <point x="179" y="-250" type="curve" smooth="yes"/>
      <point x="158" y="-250"/>
      <point x="139" y="-247"/>
      <point x="122" y="-240" type="curve"/>
      <point x="245" y="-26" type="line"/>
      <point x="202" y="-1" type="line"/>
      <point x="81" y="-211" type="line"/>
      <point x="56" y="-186"/>
      <point x="44" y="-152"/>
      <point x="44" y="-108" type="curve" smooth="yes"/>
      <point x="44" y="-81"/>
      <point x="49" y="-49"/>
      <point x="58" y="-10" type="curve"/>
      <point x="11" y="-57" type="line"/>
      <point x="4" y="-89"/>
      <point x="0" y="-117"/>
      <point x="0" y="-141" type="curve" smooth="yes"/>
      <point x="0" y="-234"/>
      <point x="59" y="-297"/>
    </contour>
  </outline>
</glyph>
<glyph name="zlamadottedhorizontal-syriac" format="2">
  <unicode hex="0738"/>
  <note>
U0738
</note>
  <anchor x="480" y="-165" name="_class2"/>
  <outline>
    <contour>
      <point x="570" y="-346" type="curve" smooth="yes"/>
      <point x="589" y="-346"/>
      <point x="604" y="-332"/>
      <point x="616" y="-304" type="curve" smooth="yes"/>
      <point x="625" y="-282"/>
      <point x="630" y="-260"/>
      <point x="630" y="-238" type="curve" smooth="yes"/>
      <point x="630" y="-220"/>
      <point x="625" y="-199"/>
      <point x="616" y="-175" type="curve" smooth="yes"/>
      <point x="605" y="-146"/>
      <point x="593" y="-132"/>
      <point x="578" y="-132" type="curve" smooth="yes"/>
      <point x="559" y="-132"/>
      <point x="543" y="-147"/>
      <point x="531" y="-176" type="curve" smooth="yes"/>
      <point x="522" y="-199"/>
      <point x="517" y="-221"/>
      <point x="517" y="-244" type="curve" smooth="yes"/>
      <point x="517" y="-263"/>
      <point x="521" y="-284"/>
      <point x="530" y="-305" type="curve" smooth="yes"/>
      <point x="541" y="-332"/>
      <point x="554" y="-346"/>
    </contour>
    <contour>
      <point x="387" y="-351" type="curve" smooth="yes"/>
      <point x="406" y="-351"/>
      <point x="421" y="-337"/>
      <point x="432" y="-309" type="curve" smooth="yes"/>
      <point x="441" y="-287"/>
      <point x="446" y="-265"/>
      <point x="446" y="-243" type="curve" smooth="yes"/>
      <point x="446" y="-225"/>
      <point x="442" y="-204"/>
      <point x="433" y="-181" type="curve" smooth="yes"/>
      <point x="422" y="-152"/>
      <point x="409" y="-137"/>
      <point x="394" y="-137" type="curve" smooth="yes"/>
      <point x="375" y="-137"/>
      <point x="359" y="-152"/>
      <point x="347" y="-181" type="curve" smooth="yes"/>
      <point x="338" y="-204"/>
      <point x="333" y="-227"/>
      <point x="333" y="-250" type="curve" smooth="yes"/>
      <point x="333" y="-269"/>
      <point x="338" y="-289"/>
      <point x="347" y="-311" type="curve" smooth="yes"/>
      <point x="358" y="-338"/>
      <point x="371" y="-351"/>
    </contour>
  </outline>
</glyph>
<glyph name="zlamadottedangular-syriac" format="2">
  <unicode hex="0739"/>
  <note>
U0739
</note>
  <anchor x="495" y="-210" name="_class2"/>
  <outline>
    <contour>
      <point x="543" y="-374" type="curve" smooth="yes"/>
      <point x="562" y="-377"/>
      <point x="579" y="-366"/>
      <point x="595" y="-341" type="curve" smooth="yes"/>
      <point x="608" y="-321"/>
      <point x="616" y="-300"/>
      <point x="620" y="-278" type="curve" smooth="yes"/>
      <point x="623" y="-261"/>
      <point x="623" y="-240"/>
      <point x="618" y="-215" type="curve" smooth="yes"/>
      <point x="612" y="-184"/>
      <point x="602" y="-168"/>
      <point x="588" y="-165" type="curve" smooth="yes"/>
      <point x="569" y="-162"/>
      <point x="551" y="-173"/>
      <point x="534" y="-200" type="curve" smooth="yes"/>
      <point x="521" y="-221"/>
      <point x="512" y="-243"/>
      <point x="508" y="-265" type="curve" smooth="yes"/>
      <point x="505" y="-284"/>
      <point x="505" y="-304"/>
      <point x="510" y="-327" type="curve" smooth="yes"/>
      <point x="516" y="-356"/>
      <point x="527" y="-371"/>
    </contour>
    <contour>
      <point x="350" y="-453" type="curve" smooth="yes"/>
      <point x="369" y="-456"/>
      <point x="386" y="-445"/>
      <point x="402" y="-420" type="curve" smooth="yes"/>
      <point x="415" y="-400"/>
      <point x="424" y="-379"/>
      <point x="427" y="-357" type="curve" smooth="yes"/>
      <point x="430" y="-340"/>
      <point x="430" y="-318"/>
      <point x="425" y="-293" type="curve" smooth="yes"/>
      <point x="420" y="-262"/>
      <point x="410" y="-246"/>
      <point x="395" y="-244" type="curve" smooth="yes"/>
      <point x="376" y="-241"/>
      <point x="358" y="-252"/>
      <point x="341" y="-279" type="curve" smooth="yes"/>
      <point x="328" y="-300"/>
      <point x="319" y="-322"/>
      <point x="315" y="-344" type="curve" smooth="yes"/>
      <point x="312" y="-363"/>
      <point x="313" y="-383"/>
      <point x="318" y="-406" type="curve" smooth="yes"/>
      <point x="323" y="-435"/>
      <point x="334" y="-450"/>
    </contour>
  </outline>
</glyph>
<glyph name="hbasaabove-syriac" format="2">
  <unicode hex="073A"/>
  <note>
U073a
</note>
  <anchor x="150" y="15" name="_class0"/>
  <outline>
    <contour>
      <point x="0" y="0" type="line"/>
      <point x="314" y="0" type="line"/>
      <point x="314" y="48" type="line"/>
      <point x="187" y="48" type="line"/>
      <point x="187" y="113" type="line"/>
      <point x="314" y="113" type="line"/>
      <point x="314" y="162" type="line"/>
      <point x="0" y="162" type="line"/>
      <point x="0" y="113" type="line"/>
      <point x="127" y="113" type="line"/>
      <point x="127" y="48" type="line"/>
      <point x="0" y="48" type="line"/>
    </contour>
  </outline>
</glyph>
<glyph name="hbasabelow-syriac" format="2">
  <unicode hex="073B"/>
  <note>
U073b
</note>
  <anchor x="150" y="0" name="_class2"/>
  <outline>
    <contour>
      <point x="0" y="-162" type="line"/>
      <point x="314" y="-162" type="line"/>
      <point x="314" y="-114" type="line"/>
      <point x="187" y="-114" type="line"/>
      <point x="187" y="-50" type="line"/>
      <point x="314" y="-50" type="line"/>
      <point x="314" y="0" type="line"/>
      <point x="0" y="0" type="line"/>
      <point x="0" y="-50" type="line"/>
      <point x="127" y="-50" type="line"/>
      <point x="127" y="-114" type="line"/>
      <point x="0" y="-114" type="line"/>
    </contour>
  </outline>
</glyph>
<glyph name="hbasaEsasadotted-syriac" format="2">
  <unicode hex="073C"/>
  <note>
U073c
</note>
  <anchor x="90" y="-45" name="_class2"/>
  <outline>
    <contour>
      <point x="77" y="-238" type="curve" smooth="yes"/>
      <point x="96" y="-238"/>
      <point x="111" y="-224"/>
      <point x="122" y="-196" type="curve" smooth="yes"/>
      <point x="131" y="-174"/>
      <point x="136" y="-152"/>
      <point x="136" y="-130" type="curve" smooth="yes"/>
      <point x="136" y="-112"/>
      <point x="132" y="-91"/>
      <point x="123" y="-67" type="curve" smooth="yes"/>
      <point x="112" y="-38"/>
      <point x="99" y="-24"/>
      <point x="84" y="-24" type="curve" smooth="yes"/>
      <point x="65" y="-24"/>
      <point x="49" y="-39"/>
      <point x="37" y="-68" type="curve" smooth="yes"/>
      <point x="28" y="-91"/>
      <point x="23" y="-113"/>
      <point x="23" y="-136" type="curve" smooth="yes"/>
      <point x="23" y="-155"/>
      <point x="27" y="-176"/>
      <point x="36" y="-197" type="curve" smooth="yes"/>
      <point x="47" y="-224"/>
      <point x="61" y="-238"/>
    </contour>
  </outline>
</glyph>
<glyph name="esasaabove-syriac" format="2">
  <unicode hex="073D"/>
  <note>
U073d
</note>
  <anchor x="240" y="60" name="_class0"/>
  <outline>
    <contour>
      <point x="293" y="40" type="line"/>
      <point x="336" y="69" type="line"/>
      <point x="212" y="245" type="line"/>
      <point x="330" y="326" type="line"/>
      <point x="302" y="366" type="line"/>
      <point x="-2" y="153" type="line"/>
      <point x="26" y="113" type="line"/>
      <point x="172" y="216" type="line"/>
    </contour>
    <contour>
      <point x="150" y="0" type="curve" smooth="yes"/>
      <point x="190" y="0"/>
      <point x="224" y="34"/>
      <point x="224" y="75" type="curve" smooth="yes"/>
      <point x="224" y="114"/>
      <point x="189" y="149"/>
      <point x="150" y="149" type="curve" smooth="yes"/>
      <point x="110" y="149"/>
      <point x="75" y="115"/>
      <point x="75" y="75" type="curve" smooth="yes"/>
      <point x="75" y="34"/>
      <point x="110" y="0"/>
    </contour>
    <contour>
      <point x="150" y="38" type="curve" smooth="yes"/>
      <point x="125" y="38"/>
      <point x="112" y="50"/>
      <point x="112" y="75" type="curve" smooth="yes"/>
      <point x="112" y="100"/>
      <point x="125" y="112"/>
      <point x="150" y="112" type="curve" smooth="yes"/>
      <point x="175" y="112"/>
      <point x="187" y="100"/>
      <point x="187" y="75" type="curve" smooth="yes"/>
      <point x="187" y="50"/>
      <point x="175" y="38"/>
    </contour>
  </outline>
</glyph>
<glyph name="esasabelow-syriac" format="2">
  <unicode hex="073E"/>
  <note>
U073e
</note>
  <anchor x="195" y="0" name="_class2"/>
  <outline>
    <contour>
      <point x="35" y="-366" type="line"/>
      <point x="338" y="-154" type="line"/>
      <point x="310" y="-113" type="line"/>
      <point x="165" y="-215" type="line"/>
      <point x="43" y="-40" type="line"/>
      <point x="0" y="-69" type="line"/>
      <point x="124" y="-244" type="line"/>
      <point x="6" y="-326" type="line"/>
    </contour>
    <contour>
      <point x="187" y="-150" type="curve" smooth="yes"/>
      <point x="227" y="-150"/>
      <point x="261" y="-115"/>
      <point x="261" y="-75" type="curve" smooth="yes"/>
      <point x="261" y="-35"/>
      <point x="227" y="0"/>
      <point x="187" y="0" type="curve" smooth="yes"/>
      <point x="146" y="0"/>
      <point x="112" y="-35"/>
      <point x="112" y="-75" type="curve" smooth="yes"/>
      <point x="112" y="-115"/>
      <point x="146" y="-150"/>
    </contour>
    <contour>
      <point x="187" y="-113" type="curve" smooth="yes"/>
      <point x="162" y="-113"/>
      <point x="150" y="-100"/>
      <point x="150" y="-75" type="curve" smooth="yes"/>
      <point x="150" y="-50"/>
      <point x="162" y="-38"/>
      <point x="187" y="-38" type="curve" smooth="yes"/>
      <point x="212" y="-38"/>
      <point x="224" y="-50"/>
      <point x="224" y="-75" type="curve" smooth="yes"/>
      <point x="224" y="-100"/>
      <point x="212" y="-113"/>
    </contour>
  </outline>
</glyph>
<glyph name="rwaha-syriac" format="2">
  <unicode hex="073F"/>
  <note>
U073f
</note>
  <anchor x="90" y="15" name="_class0"/>
  <outline>
    <contour>
      <point x="76" y="1" type="curve" smooth="yes"/>
      <point x="95" y="1"/>
      <point x="110" y="15"/>
      <point x="121" y="43" type="curve" smooth="yes"/>
      <point x="130" y="65"/>
      <point x="135" y="87"/>
      <point x="135" y="109" type="curve" smooth="yes"/>
      <point x="135" y="127"/>
      <point x="131" y="148"/>
      <point x="122" y="172" type="curve" smooth="yes"/>
      <point x="111" y="201"/>
      <point x="98" y="215"/>
      <point x="83" y="215" type="curve" smooth="yes"/>
      <point x="64" y="215"/>
      <point x="48" y="200"/>
      <point x="36" y="171" type="curve" smooth="yes"/>
      <point x="27" y="148"/>
      <point x="22" y="126"/>
      <point x="22" y="103" type="curve" smooth="yes"/>
      <point x="22" y="84"/>
      <point x="26" y="63"/>
      <point x="35" y="42" type="curve" smooth="yes"/>
      <point x="46" y="15"/>
      <point x="60" y="1"/>
    </contour>
  </outline>
</glyph>
<glyph name="femininedot-syriac" format="2">
  <unicode hex="0740"/>
  <note>
U0740
</note>
  <anchor x="165" y="0" name="_class0"/>
  <outline>
    <contour>
      <point x="269" y="-110" type="curve" smooth="yes"/>
      <point x="306" y="-110"/>
      <point x="324" y="-92"/>
      <point x="324" y="-55" type="curve" smooth="yes"/>
      <point x="324" y="-18"/>
      <point x="306" y="0"/>
      <point x="269" y="0" type="curve" smooth="yes"/>
      <point x="232" y="0"/>
      <point x="214" y="-18"/>
      <point x="214" y="-55" type="curve" smooth="yes"/>
      <point x="214" y="-92"/>
      <point x="232" y="-110"/>
    </contour>
    <contour>
      <point x="55" y="-110" type="curve" smooth="yes"/>
      <point x="92" y="-110"/>
      <point x="110" y="-92"/>
      <point x="110" y="-55" type="curve" smooth="yes"/>
      <point x="110" y="-18"/>
      <point x="92" y="0"/>
      <point x="55" y="0" type="curve" smooth="yes"/>
      <point x="18" y="0"/>
      <point x="0" y="-18"/>
      <point x="0" y="-55" type="curve" smooth="yes"/>
      <point x="0" y="-92"/>
      <point x="18" y="-110"/>
    </contour>
  </outline>
</glyph>
<glyph name="qushshaya-syriac" format="2">
  <unicode hex="0741"/>
  <anchor x="105" y="0" name="_m.U030a_1"/>
  <anchor x="90" y="-15" name="_m.U030a_1_2"/>
  <outline>
    <contour>
      <point x="34" y="0" type="line"/>
      <point x="192" y="0" type="line"/>
      <point x="192" y="158" type="line"/>
      <point x="34" y="158" type="line"/>
    </contour>
  </outline>
</glyph>
<glyph name="rukkakha-syriac" format="2">
  <unicode hex="0742"/>
  <note>
U0742
</note>
  <anchor x="75" y="-60" name="_class3"/>
  <outline>
    <contour>
      <point x="78" y="-239" type="curve" smooth="yes"/>
      <point x="97" y="-239"/>
      <point x="112" y="-225"/>
      <point x="124" y="-197" type="curve" smooth="yes"/>
      <point x="133" y="-175"/>
      <point x="137" y="-153"/>
      <point x="137" y="-131" type="curve" smooth="yes"/>
      <point x="137" y="-113"/>
      <point x="133" y="-92"/>
      <point x="124" y="-69" type="curve" smooth="yes"/>
      <point x="113" y="-40"/>
      <point x="101" y="-25"/>
      <point x="86" y="-25" type="curve" smooth="yes"/>
      <point x="67" y="-25"/>
      <point x="51" y="-40"/>
      <point x="39" y="-69" type="curve" smooth="yes"/>
      <point x="30" y="-92"/>
      <point x="25" y="-115"/>
      <point x="25" y="-137" type="curve" smooth="yes"/>
      <point x="25" y="-156"/>
      <point x="29" y="-177"/>
      <point x="38" y="-199" type="curve" smooth="yes"/>
      <point x="49" y="-226"/>
      <point x="62" y="-239"/>
    </contour>
  </outline>
</glyph>
<glyph name="twodotsverticalabove-syriac" format="2">
  <unicode hex="0743"/>
  <note>
U0743
</note>
  <anchor x="60" y="15" name="_class0"/>
  <outline>
    <contour>
      <point x="56" y="159" type="curve" smooth="yes"/>
      <point x="92" y="159"/>
      <point x="110" y="177"/>
      <point x="110" y="214" type="curve" smooth="yes"/>
      <point x="110" y="250"/>
      <point x="92" y="268"/>
      <point x="56" y="268" type="curve" smooth="yes"/>
      <point x="20" y="268"/>
      <point x="2" y="250"/>
      <point x="2" y="214" type="curve" smooth="yes"/>
      <point x="2" y="177"/>
      <point x="20" y="159"/>
    </contour>
    <contour>
      <point x="56" y="0" type="curve" smooth="yes"/>
      <point x="92" y="0"/>
      <point x="110" y="18"/>
      <point x="110" y="55" type="curve" smooth="yes"/>
      <point x="110" y="91"/>
      <point x="92" y="109"/>
      <point x="56" y="109" type="curve" smooth="yes"/>
      <point x="20" y="109"/>
      <point x="2" y="91"/>
      <point x="2" y="55" type="curve" smooth="yes"/>
      <point x="2" y="18"/>
      <point x="20" y="0"/>
    </contour>
  </outline>
</glyph>
<glyph name="twodotsverticalbelow-syriac" format="2">
  <unicode hex="0744"/>
  <note>
U0744
</note>
  <anchor x="75" y="15" name="_class2"/>
  <outline>
    <contour>
      <point x="62" y="-109" type="curve" smooth="yes"/>
      <point x="99" y="-109"/>
      <point x="117" y="-91"/>
      <point x="117" y="-55" type="curve" smooth="yes"/>
      <point x="117" y="-18"/>
      <point x="99" y="0"/>
      <point x="62" y="0" type="curve" smooth="yes"/>
      <point x="26" y="0"/>
      <point x="8" y="-18"/>
      <point x="8" y="-55" type="curve" smooth="yes"/>
      <point x="8" y="-91"/>
      <point x="26" y="-109"/>
    </contour>
    <contour>
      <point x="62" y="-268" type="curve" smooth="yes"/>
      <point x="99" y="-268"/>
      <point x="117" y="-250"/>
      <point x="117" y="-214" type="curve" smooth="yes"/>
      <point x="117" y="-177"/>
      <point x="99" y="-159"/>
      <point x="62" y="-159" type="curve" smooth="yes"/>
      <point x="26" y="-159"/>
      <point x="8" y="-177"/>
      <point x="8" y="-214" type="curve" smooth="yes"/>
      <point x="8" y="-250"/>
      <point x="26" y="-268"/>
    </contour>
  </outline>
</glyph>
<glyph name="threedotsbelow-syriac" format="2">
  <unicode hex="0746"/>
  <note>
U0746
</note>
  <anchor x="165" y="0" name="_class2"/>
  <outline>
    <contour>
      <point x="281" y="-109" type="curve" smooth="yes"/>
      <point x="318" y="-109"/>
      <point x="336" y="-91"/>
      <point x="336" y="-55" type="curve" smooth="yes"/>
      <point x="336" y="-18"/>
      <point x="318" y="0"/>
      <point x="281" y="0" type="curve" smooth="yes"/>
      <point x="245" y="0"/>
      <point x="227" y="-18"/>
      <point x="227" y="-55" type="curve" smooth="yes"/>
      <point x="227" y="-91"/>
      <point x="245" y="-109"/>
    </contour>
    <contour>
      <point x="170" y="-268" type="curve" smooth="yes"/>
      <point x="207" y="-268"/>
      <point x="225" y="-250"/>
      <point x="225" y="-214" type="curve" smooth="yes"/>
      <point x="225" y="-177"/>
      <point x="207" y="-159"/>
      <point x="170" y="-159" type="curve" smooth="yes"/>
      <point x="134" y="-159"/>
      <point x="116" y="-177"/>
      <point x="116" y="-214" type="curve" smooth="yes"/>
      <point x="116" y="-250"/>
      <point x="134" y="-268"/>
    </contour>
    <contour>
      <point x="59" y="-109" type="curve" smooth="yes"/>
      <point x="96" y="-109"/>
      <point x="114" y="-91"/>
      <point x="114" y="-55" type="curve" smooth="yes"/>
      <point x="114" y="-18"/>
      <point x="96" y="0"/>
      <point x="59" y="0" type="curve" smooth="yes"/>
      <point x="23" y="0"/>
      <point x="5" y="-18"/>
      <point x="5" y="-55" type="curve" smooth="yes"/>
      <point x="5" y="-91"/>
      <point x="23" y="-109"/>
    </contour>
  </outline>
</glyph>
<glyph name="obliquelineabove-syriac" format="2">
  <unicode hex="0747"/>
  <anchor x="150" y="0" name="_m.U0656"/>
  <anchor x="150" y="60" name="_t.U0656"/>
  <anchor x="150" y="15" name="_t.U0656_2"/>
  <anchor x="150" y="390" name="t.U0656_2"/>
  <outline>
    <contour>
      <point x="-5" y="38" type="line"/>
      <point x="312" y="187" type="line"/>
      <point x="294" y="226" type="line"/>
      <point x="-23" y="76" type="line"/>
    </contour>
  </outline>
</glyph>
<glyph name="obliquelinebelow-syriac" format="2">
  <unicode hex="0748"/>
  <note>
U0748
</note>
  <anchor x="-15" y="-60" name="_class2"/>
  <outline>
    <contour>
      <point x="252" y="-437" type="line"/>
      <point x="310" y="-372" type="line"/>
      <point x="-288" y="0" type="line"/>
      <point x="-346" y="-62" type="line"/>
    </contour>
  </outline>
</glyph>
<glyph name="music-syriac" format="2">
  <unicode hex="0749"/>
  <note>
U0749
</note>
  <anchor x="330" y="180" name="_class0"/>
  <outline>
    <contour>
      <point x="12" y="20" type="line"/>
      <point x="502" y="363" type="line"/>
      <point x="502" y="415" type="line"/>
      <point x="11" y="70" type="line"/>
    </contour>
  </outline>
</glyph>
<glyph name="barrekh-syriac" format="2">
  <unicode hex="074A"/>
  <note>
U074a
</note>
  <anchor x="195" y="195" name="_class0"/>
  <outline>
    <contour>
      <point x="173" y="0" type="line"/>
      <point x="217" y="0" type="line"/>
      <point x="217" y="174" type="line"/>
      <point x="391" y="174" type="line"/>
      <point x="391" y="218" type="line"/>
      <point x="217" y="218" type="line"/>
      <point x="217" y="390" type="line"/>
      <point x="173" y="390" type="line"/>
      <point x="173" y="218" type="line"/>
      <point x="1" y="218" type="line"/>
      <point x="1" y="174" type="line"/>
      <point x="173" y="174" type="line"/>
    </contour>
    <contour>
      <point x="122" y="95" type="curve" smooth="yes"/>
      <point x="139" y="95"/>
      <point x="148" y="103"/>
      <point x="148" y="120" type="curve" smooth="yes"/>
      <point x="148" y="136"/>
      <point x="139" y="144"/>
      <point x="122" y="144" type="curve" smooth="yes"/>
      <point x="106" y="144"/>
      <point x="98" y="136"/>
      <point x="98" y="120" type="curve" smooth="yes"/>
      <point x="98" y="103"/>
      <point x="106" y="95"/>
    </contour>
    <contour>
      <point x="272" y="95" type="curve" smooth="yes"/>
      <point x="288" y="95"/>
      <point x="296" y="103"/>
      <point x="296" y="120" type="curve" smooth="yes"/>
      <point x="296" y="136"/>
      <point x="288" y="144"/>
      <point x="272" y="144" type="curve" smooth="yes"/>
      <point x="257" y="144"/>
      <point x="249" y="136"/>
      <point x="249" y="120" type="curve" smooth="yes"/>
      <point x="249" y="103"/>
      <point x="257" y="95"/>
    </contour>
    <contour>
      <point x="125" y="249" type="curve" smooth="yes"/>
      <point x="140" y="249"/>
      <point x="148" y="257"/>
      <point x="148" y="272" type="curve" smooth="yes"/>
      <point x="148" y="289"/>
      <point x="140" y="297"/>
      <point x="125" y="297" type="curve" smooth="yes"/>
      <point x="108" y="297"/>
      <point x="100" y="289"/>
      <point x="100" y="272" type="curve" smooth="yes"/>
      <point x="100" y="257"/>
      <point x="108" y="249"/>
    </contour>
    <contour>
      <point x="272" y="250" type="curve" smooth="yes"/>
      <point x="288" y="250"/>
      <point x="296" y="258"/>
      <point x="296" y="275" type="curve" smooth="yes"/>
      <point x="296" y="291"/>
      <point x="288" y="299"/>
      <point x="272" y="299" type="curve" smooth="yes"/>
      <point x="257" y="299"/>
      <point x="249" y="291"/>
      <point x="249" y="275" type="curve" smooth="yes"/>
      <point x="249" y="258"/>
      <point x="257" y="250"/>
    </contour>
  </outline>
</glyph>
<glyph name="nonbreakinghyphen" format="2">
  <advance width="536"/>
  <unicode hex="2011"/>
  <outline>
    <contour>
      <point x="109" y="231" type="line"/>
      <point x="426" y="274" type="line"/>
      <point x="426" y="392" type="line"/>
      <point x="109" y="347" type="line"/>
    </contour>
  </outline>
</glyph>
<glyph name="quoteleft" format="2">
  <advance width="500"/>
  <unicode hex="2018"/>
  <note>
quoteleft
</note>
  <outline>
    <contour>
      <point x="252" y="722" type="curve" smooth="yes"/>
      <point x="307" y="722"/>
      <point x="349" y="767"/>
      <point x="349" y="822" type="curve" smooth="yes"/>
      <point x="349" y="877"/>
      <point x="324" y="910"/>
      <point x="275" y="923" type="curve"/>
      <point x="275" y="970"/>
      <point x="303" y="1006"/>
      <point x="359" y="1033" type="curve"/>
      <point x="342" y="1044"/>
      <point x="333" y="1089"/>
      <point x="333" y="1167" type="curve"/>
      <point x="211" y="1072"/>
      <point x="150" y="964"/>
      <point x="150" y="843" type="curve" smooth="yes"/>
      <point x="150" y="810"/>
      <point x="159" y="783"/>
      <point x="176" y="760" type="curve" smooth="yes"/>
      <point x="195" y="735"/>
      <point x="221" y="722"/>
    </contour>
  </outline>
</glyph>
<glyph name="quoteright" format="2">
  <advance width="500"/>
  <unicode hex="2019"/>
  <note>
quoteright
</note>
  <outline>
    <contour>
      <point x="166" y="716" type="curve"/>
      <point x="288" y="811"/>
      <point x="349" y="919"/>
      <point x="349" y="1040" type="curve" smooth="yes"/>
      <point x="349" y="1121"/>
      <point x="315" y="1161"/>
      <point x="247" y="1161" type="curve" smooth="yes"/>
      <point x="192" y="1161"/>
      <point x="150" y="1117"/>
      <point x="150" y="1061" type="curve" smooth="yes"/>
      <point x="150" y="1007"/>
      <point x="175" y="973"/>
      <point x="224" y="960" type="curve"/>
      <point x="224" y="913"/>
      <point x="196" y="877"/>
      <point x="140" y="851" type="curve"/>
      <point x="157" y="839"/>
      <point x="166" y="794"/>
    </contour>
  </outline>
</glyph>
<glyph name="quotedblleft" format="2">
  <advance width="745"/>
  <unicode hex="201C"/>
  <note>
quotedblleft
</note>
  <outline>
    <contour>
      <point x="496" y="722" type="curve" smooth="yes"/>
      <point x="549" y="722"/>
      <point x="593" y="767"/>
      <point x="593" y="822" type="curve" smooth="yes"/>
      <point x="593" y="877"/>
      <point x="568" y="910"/>
      <point x="519" y="923" type="curve"/>
      <point x="519" y="970"/>
      <point x="547" y="1006"/>
      <point x="603" y="1033" type="curve"/>
      <point x="586" y="1044"/>
      <point x="577" y="1089"/>
      <point x="577" y="1167" type="curve"/>
      <point x="455" y="1072"/>
      <point x="394" y="964"/>
      <point x="394" y="843" type="curve" smooth="yes"/>
      <point x="394" y="810"/>
      <point x="403" y="783"/>
      <point x="420" y="760" type="curve" smooth="yes"/>
      <point x="439" y="735"/>
      <point x="464" y="722"/>
    </contour>
    <contour>
      <point x="252" y="722" type="curve" smooth="yes"/>
      <point x="307" y="722"/>
      <point x="349" y="767"/>
      <point x="349" y="822" type="curve" smooth="yes"/>
      <point x="349" y="877"/>
      <point x="324" y="910"/>
      <point x="275" y="923" type="curve"/>
      <point x="275" y="970"/>
      <point x="303" y="1006"/>
      <point x="359" y="1033" type="curve"/>
      <point x="342" y="1044"/>
      <point x="333" y="1089"/>
      <point x="333" y="1167" type="curve"/>
      <point x="211" y="1072"/>
      <point x="150" y="964"/>
      <point x="150" y="843" type="curve" smooth="yes"/>
      <point x="150" y="810"/>
      <point x="159" y="783"/>
      <point x="176" y="760" type="curve" smooth="yes"/>
      <point x="195" y="735"/>
      <point x="221" y="722"/>
    </contour>
  </outline>
</glyph>
<glyph name="quotedblright" format="2">
  <advance width="743"/>
  <unicode hex="201D"/>
  <note>
quotedblright
</note>
  <outline>
    <contour>
      <point x="410" y="716" type="curve"/>
      <point x="532" y="811"/>
      <point x="593" y="919"/>
      <point x="593" y="1040" type="curve" smooth="yes"/>
      <point x="593" y="1121"/>
      <point x="559" y="1161"/>
      <point x="491" y="1161" type="curve" smooth="yes"/>
      <point x="436" y="1161"/>
      <point x="394" y="1117"/>
      <point x="394" y="1061" type="curve" smooth="yes"/>
      <point x="394" y="1007"/>
      <point x="419" y="973"/>
      <point x="468" y="960" type="curve"/>
      <point x="468" y="913"/>
      <point x="440" y="877"/>
      <point x="384" y="851" type="curve"/>
      <point x="401" y="839"/>
      <point x="410" y="794"/>
    </contour>
    <contour>
      <point x="166" y="716" type="curve"/>
      <point x="288" y="811"/>
      <point x="349" y="919"/>
      <point x="349" y="1040" type="curve" smooth="yes"/>
      <point x="349" y="1121"/>
      <point x="315" y="1161"/>
      <point x="247" y="1161" type="curve" smooth="yes"/>
      <point x="192" y="1161"/>
      <point x="150" y="1117"/>
      <point x="150" y="1061" type="curve" smooth="yes"/>
      <point x="150" y="1007"/>
      <point x="175" y="973"/>
      <point x="224" y="960" type="curve"/>
      <point x="224" y="913"/>
      <point x="196" y="877"/>
      <point x="140" y="851" type="curve"/>
      <point x="157" y="839"/>
      <point x="166" y="794"/>
    </contour>
  </outline>
</glyph>
<glyph name="dagger" format="2">
  <advance width="672"/>
  <unicode hex="2020"/>
  <note>
dagger
</note>
  <outline>
    <contour>
      <point x="547" y="761" type="curve" smooth="yes"/>
      <point x="495" y="761"/>
      <point x="420" y="730"/>
      <point x="363" y="722" type="curve"/>
      <point x="372" y="779"/>
      <point x="402" y="854"/>
      <point x="402" y="906" type="curve" smooth="yes"/>
      <point x="402" y="955"/>
      <point x="373" y="980"/>
      <point x="336" y="980" type="curve" smooth="yes"/>
      <point x="299" y="980"/>
      <point x="270" y="955"/>
      <point x="270" y="906" type="curve" smooth="yes"/>
      <point x="270" y="854"/>
      <point x="298" y="779"/>
      <point x="307" y="722" type="curve"/>
      <point x="250" y="730"/>
      <point x="176" y="761"/>
      <point x="123" y="761" type="curve" smooth="yes"/>
      <point x="74" y="761"/>
      <point x="51" y="732"/>
      <point x="51" y="695" type="curve" smooth="yes"/>
      <point x="51" y="656"/>
      <point x="74" y="629"/>
      <point x="123" y="629" type="curve" smooth="yes"/>
      <point x="176" y="629"/>
      <point x="249" y="658"/>
      <point x="303" y="666" type="curve"/>
      <point x="289" y="613"/>
      <point x="274" y="565"/>
      <point x="255" y="504" type="curve"/>
      <point x="289" y="288"/>
      <point x="300" y="155"/>
      <point x="311" y="0" type="curve"/>
      <point x="364" y="0" type="line"/>
      <point x="375" y="155"/>
      <point x="380" y="288"/>
      <point x="417" y="504" type="curve"/>
      <point x="396" y="565"/>
      <point x="381" y="613"/>
      <point x="367" y="666" type="curve"/>
      <point x="423" y="658"/>
      <point x="496" y="629"/>
      <point x="547" y="629" type="curve" smooth="yes"/>
      <point x="595" y="629"/>
      <point x="620" y="656"/>
      <point x="620" y="695" type="curve" smooth="yes"/>
      <point x="620" y="732"/>
      <point x="595" y="761"/>
    </contour>
  </outline>
</glyph>
<glyph name="U0640Half" format="2">
  <advance width="180"/>
  <note>
U0640Half
</note>
  <anchor x="60" y="-90" name="class0"/>
  <outline>
    <contour>
      <point x="-70" y="0" type="line"/>
      <point x="180" y="0" type="line"/>
      <point x="180" y="158" type="line"/>
      <point x="-70" y="158" type="line"/>
    </contour>
  </outline>
</glyph>
<glyph name="U0640Quart" format="2">
  <advance width="90"/>
  <anchor x="15" y="-75" name="class0"/>
  <outline>
    <contour>
      <point x="-70" y="0" type="line"/>
      <point x="94" y="0" type="line"/>
      <point x="94" y="158" type="line"/>
      <point x="-70" y="158" type="line"/>
    </contour>
  </outline>
</glyph>
<glyph name="U0640ThreeQuart" format="2">
  <advance width="270"/>
  <anchor x="120" y="-105" name="class0"/>
  <outline>
    <contour>
      <point x="-70" y="0" type="line"/>
      <point x="270" y="0" type="line"/>
      <point x="270" y="158" type="line"/>
      <point x="-70" y="158" type="line"/>
    </contour>
  </outline>
</glyph>
<glyph name="alaph-syriac.fin3" format="2">
  <advance width="591"/>
  <anchor x="270" y="-120" name="b.U0325_3"/>
  <anchor x="270" y="-120" name="b.U0331_2"/>
  <anchor x="405" y="-150" name="b.U0740"/>
  <anchor x="255" y="975" name="m.U030a_1"/>
  <anchor x="255" y="990" name="t.U0656"/>
  <outline>
    <contour>
      <point x="77" y="0" type="line"/>
      <point x="591" y="0" type="line"/>
      <point x="591" y="158" type="line"/>
      <point x="325" y="158" type="line"/>
      <point x="377" y="452"/>
      <point x="403" y="623"/>
      <point x="403" y="671" type="curve" smooth="yes"/>
      <point x="403" y="721"/>
      <point x="392" y="767"/>
      <point x="370" y="808" type="curve" smooth="yes"/>
      <point x="343" y="857"/>
      <point x="309" y="882"/>
      <point x="266" y="882" type="curve" smooth="yes"/>
      <point x="203" y="882"/>
      <point x="139" y="809"/>
      <point x="139" y="744" type="curve" smooth="yes"/>
      <point x="139" y="689"/>
      <point x="169" y="663"/>
      <point x="228" y="665" type="curve" smooth="yes"/>
      <point x="268" y="666" type="line"/>
      <point x="316" y="661"/>
      <point x="340" y="626"/>
      <point x="340" y="562" type="curve" smooth="yes"/>
      <point x="340" y="446"/>
      <point x="181" y="207"/>
      <point x="77" y="162" type="curve"/>
    </contour>
  </outline>
</glyph>
<glyph name="alaph-syriac.fina.alt2" format="2">
  <advance width="555"/>
  <note>
U0710Fina2
</note>
  <anchor x="225" y="975" name="class0"/>
  <anchor x="375" y="-270" name="class0_"/>
  <anchor x="210" y="960" name="class1"/>
  <anchor x="255" y="-345" name="class2"/>
  <anchor x="255" y="-375" name="class3"/>
  <outline>
    <contour>
      <point x="236" y="-263" type="curve" smooth="yes"/>
      <point x="242" y="-263"/>
      <point x="245" y="-249"/>
      <point x="245" y="-220" type="curve" smooth="yes"/>
      <point x="245" y="0" type="line"/>
      <point x="555" y="0" type="line"/>
      <point x="555" y="158" type="line"/>
      <point x="289" y="158" type="line"/>
      <point x="341" y="452"/>
      <point x="367" y="623"/>
      <point x="367" y="671" type="curve" smooth="yes"/>
      <point x="367" y="721"/>
      <point x="356" y="767"/>
      <point x="334" y="808" type="curve" smooth="yes"/>
      <point x="308" y="857"/>
      <point x="273" y="882"/>
      <point x="230" y="882" type="curve" smooth="yes"/>
      <point x="169" y="882"/>
      <point x="104" y="809"/>
      <point x="104" y="744" type="curve" smooth="yes"/>
      <point x="104" y="689"/>
      <point x="133" y="663"/>
      <point x="192" y="665" type="curve" smooth="yes"/>
      <point x="232" y="666" type="line"/>
      <point x="280" y="661"/>
      <point x="304" y="626"/>
      <point x="304" y="562" type="curve" smooth="yes"/>
      <point x="304" y="446"/>
      <point x="145" y="207"/>
      <point x="41" y="162" type="curve"/>
      <point x="41" y="-2" type="line"/>
      <point x="78" y="-8"/>
      <point x="113" y="-35"/>
      <point x="146" y="-83" type="curve" smooth="yes"/>
      <point x="173" y="-122"/>
      <point x="194" y="-165"/>
      <point x="209" y="-212" type="curve" smooth="yes"/>
      <point x="219" y="-246"/>
      <point x="228" y="-263"/>
    </contour>
  </outline>
</glyph>
<glyph name="alaph-syriac.medi" format="2">
  <advance width="591"/>
  <note>
U0710Medi2
</note>
  <anchor x="255" y="975" name="class0"/>
  <anchor x="405" y="-165" name="class0_"/>
  <anchor x="240" y="945" name="class1"/>
  <anchor x="300" y="-120" name="class2"/>
  <anchor x="285" y="-120" name="class3"/>
  <outline>
    <contour>
      <point x="77" y="0" type="line"/>
      <point x="591" y="0" type="line"/>
      <point x="591" y="158" type="line"/>
      <point x="325" y="158" type="line"/>
      <point x="377" y="452"/>
      <point x="403" y="623"/>
      <point x="403" y="671" type="curve" smooth="yes"/>
      <point x="403" y="721"/>
      <point x="392" y="767"/>
      <point x="370" y="808" type="curve" smooth="yes"/>
      <point x="343" y="857"/>
      <point x="309" y="882"/>
      <point x="266" y="882" type="curve" smooth="yes"/>
      <point x="203" y="882"/>
      <point x="139" y="809"/>
      <point x="139" y="744" type="curve" smooth="yes"/>
      <point x="139" y="689"/>
      <point x="169" y="663"/>
      <point x="228" y="665" type="curve" smooth="yes"/>
      <point x="268" y="666" type="line"/>
      <point x="316" y="661"/>
      <point x="340" y="626"/>
      <point x="340" y="562" type="curve" smooth="yes"/>
      <point x="340" y="446"/>
      <point x="181" y="207"/>
      <point x="77" y="162" type="curve"/>
    </contour>
  </outline>
</glyph>
<glyph name="beth-syriac.fina" format="2">
  <advance width="1026"/>
  <note>
U0712Fina
</note>
  <anchor x="705" y="750" name="class0"/>
  <anchor x="735" y="-135" name="class0_"/>
  <anchor x="705" y="735" name="class1"/>
  <anchor x="705" y="-113" name="class2"/>
  <anchor x="735" y="-135" name="class3"/>
  <outline>
    <contour>
      <point x="277" y="0" type="curve" smooth="yes"/>
      <point x="1026" y="0" type="line"/>
      <point x="1026" y="600" type="line" smooth="yes"/>
      <point x="1026" y="647"/>
      <point x="1022" y="670"/>
      <point x="1013" y="670" type="curve" smooth="yes"/>
      <point x="1014" y="670"/>
      <point x="1007" y="658"/>
      <point x="991" y="635" type="curve" smooth="yes"/>
      <point x="975" y="612"/>
      <point x="948" y="600"/>
      <point x="910" y="600" type="curve" smooth="yes"/>
      <point x="590" y="600" type="line" smooth="yes"/>
      <point x="545" y="600"/>
      <point x="510" y="606"/>
      <point x="487" y="618" type="curve" smooth="yes"/>
      <point x="471" y="626"/>
      <point x="460" y="637"/>
      <point x="454" y="652" type="curve" smooth="yes"/>
      <point x="449" y="664"/>
      <point x="445" y="670"/>
      <point x="443" y="670" type="curve" smooth="yes"/>
      <point x="428" y="670"/>
      <point x="421" y="641"/>
      <point x="421" y="583" type="curve" smooth="yes"/>
      <point x="421" y="522"/>
      <point x="439" y="482"/>
      <point x="475" y="461" type="curve" smooth="yes"/>
      <point x="498" y="448"/>
      <point x="537" y="442"/>
      <point x="590" y="442" type="curve" smooth="yes"/>
      <point x="868" y="442" type="line"/>
      <point x="868" y="158" type="line"/>
      <point x="277" y="158" type="line" smooth="yes"/>
      <point x="232" y="158"/>
      <point x="195" y="169"/>
      <point x="167" y="191" type="curve" smooth="yes"/>
      <point x="148" y="205"/>
      <point x="133" y="225"/>
      <point x="121" y="251" type="curve" smooth="yes"/>
      <point x="111" y="273"/>
      <point x="105" y="284"/>
      <point x="104" y="284" type="curve" smooth="yes"/>
      <point x="86" y="284"/>
      <point x="77" y="256"/>
      <point x="77" y="199" type="curve" smooth="yes"/>
      <point x="77" y="112"/>
      <point x="100" y="54"/>
      <point x="147" y="25" type="curve" smooth="yes"/>
      <point x="174" y="8"/>
      <point x="217" y="0"/>
    </contour>
  </outline>
</glyph>
<glyph name="dalath-syriac.fina" format="2">
  <advance width="736"/>
  <note>
U0715Fina
</note>
  <anchor x="315" y="720" name="class0"/>
  <anchor x="375" y="-360" name="class0_"/>
  <anchor x="330" y="720" name="class1"/>
  <anchor x="360" y="-390" name="class2"/>
  <anchor x="390" y="-360" name="class3"/>
  <outline>
    <contour>
      <point x="140" y="0" type="line"/>
      <point x="650" y="0" type="line"/>
      <point x="664" y="63" type="line"/>
      <point x="701" y="0" type="line"/>
      <point x="736" y="0" type="line"/>
      <point x="736" y="158" type="line"/>
      <point x="664" y="158" type="line"/>
      <point x="664" y="162" type="line" smooth="yes"/>
      <point x="666" y="459"/>
      <point x="538" y="608"/>
      <point x="280" y="608" type="curve" smooth="yes"/>
      <point x="223" y="608"/>
      <point x="175" y="596"/>
      <point x="138" y="573" type="curve"/>
      <point x="138" y="403" type="line" smooth="yes"/>
      <point x="138" y="370"/>
      <point x="143" y="354"/>
      <point x="152" y="354" type="curve" smooth="yes"/>
      <point x="150" y="354"/>
      <point x="161" y="368"/>
      <point x="184" y="395" type="curve" smooth="yes"/>
      <point x="207" y="422"/>
      <point x="243" y="438"/>
      <point x="290" y="441" type="curve" smooth="yes"/>
      <point x="350" y="446"/>
      <point x="401" y="419"/>
      <point x="444" y="362" type="curve" smooth="yes"/>
      <point x="479" y="315"/>
      <point x="496" y="272"/>
      <point x="495" y="233" type="curve" smooth="yes"/>
      <point x="492" y="158" type="line"/>
      <point x="140" y="158" type="line"/>
    </contour>
    <contour>
      <point x="221" y="-298" type="line"/>
      <point x="379" y="-298" type="line"/>
      <point x="379" y="-139" type="line"/>
      <point x="221" y="-139" type="line"/>
    </contour>
  </outline>
</glyph>
<glyph name="dalath_hbasaEsasadotted-syriac.fina" format="2">
  <advance width="736"/>
  <note>
U0715FinaU073c
</note>
  <anchor x="315" y="735" name="class0"/>
  <anchor x="0" y="0" name="class0_"/>
  <anchor x="405" y="-555" name="class1"/>
  <anchor x="375" y="-405" name="class2"/>
  <anchor x="390" y="-405" name="class3"/>
  <outline>
    <contour>
      <point x="140" y="0" type="line"/>
      <point x="650" y="0" type="line"/>
      <point x="664" y="63" type="line"/>
      <point x="701" y="0" type="line"/>
      <point x="736" y="0" type="line"/>
      <point x="736" y="158" type="line"/>
      <point x="664" y="158" type="line"/>
      <point x="664" y="162" type="line" smooth="yes"/>
      <point x="666" y="459"/>
      <point x="538" y="608"/>
      <point x="280" y="608" type="curve" smooth="yes"/>
      <point x="223" y="608"/>
      <point x="175" y="596"/>
      <point x="138" y="573" type="curve"/>
      <point x="138" y="403" type="line" smooth="yes"/>
      <point x="138" y="370"/>
      <point x="143" y="354"/>
      <point x="152" y="354" type="curve" smooth="yes"/>
      <point x="150" y="354"/>
      <point x="161" y="368"/>
      <point x="184" y="395" type="curve" smooth="yes"/>
      <point x="207" y="422"/>
      <point x="243" y="438"/>
      <point x="290" y="441" type="curve" smooth="yes"/>
      <point x="350" y="446"/>
      <point x="401" y="419"/>
      <point x="444" y="362" type="curve" smooth="yes"/>
      <point x="479" y="315"/>
      <point x="496" y="272"/>
      <point x="495" y="233" type="curve" smooth="yes"/>
      <point x="492" y="158" type="line"/>
      <point x="140" y="158" type="line"/>
    </contour>
    <contour>
      <point x="221" y="-298" type="line"/>
      <point x="379" y="-298" type="line"/>
      <point x="379" y="-139" type="line"/>
      <point x="221" y="-139" type="line"/>
    </contour>
    <contour>
      <point x="511" y="-341" type="curve" smooth="yes"/>
      <point x="530" y="-341"/>
      <point x="545" y="-327"/>
      <point x="556" y="-300" type="curve" smooth="yes"/>
      <point x="565" y="-278"/>
      <point x="570" y="-256"/>
      <point x="570" y="-234" type="curve" smooth="yes"/>
      <point x="570" y="-216"/>
      <point x="566" y="-195"/>
      <point x="557" y="-171" type="curve" smooth="yes"/>
      <point x="546" y="-142"/>
      <point x="533" y="-128"/>
      <point x="518" y="-128" type="curve" smooth="yes"/>
      <point x="499" y="-128"/>
      <point x="483" y="-143"/>
      <point x="471" y="-172" type="curve" smooth="yes"/>
      <point x="462" y="-195"/>
      <point x="457" y="-217"/>
      <point x="457" y="-240" type="curve" smooth="yes"/>
      <point x="457" y="-259"/>
      <point x="461" y="-280"/>
      <point x="470" y="-301" type="curve" smooth="yes"/>
      <point x="481" y="-328"/>
      <point x="495" y="-341"/>
    </contour>
  </outline>
</glyph>
<glyph name="dalath_hbasaEsasadotted-syriac" format="2">
  <advance width="748"/>
  <note>
U0715U073c
</note>
  <anchor x="300" y="735" name="class0"/>
  <anchor x="0" y="0" name="class0_"/>
  <anchor x="285" y="705" name="class1"/>
  <anchor x="315" y="-390" name="class2"/>
  <anchor x="345" y="-405" name="class3"/>
  <outline>
    <contour>
      <point x="140" y="0" type="line"/>
      <point x="629" y="0" type="line"/>
      <point x="652" y="51"/>
      <point x="664" y="105"/>
      <point x="664" y="162" type="curve" smooth="yes"/>
      <point x="664" y="288"/>
      <point x="631" y="393"/>
      <point x="564" y="476" type="curve" smooth="yes"/>
      <point x="493" y="564"/>
      <point x="399" y="608"/>
      <point x="280" y="608" type="curve" smooth="yes"/>
      <point x="223" y="608"/>
      <point x="175" y="596"/>
      <point x="138" y="573" type="curve"/>
      <point x="138" y="403" type="line" smooth="yes"/>
      <point x="138" y="370"/>
      <point x="143" y="354"/>
      <point x="152" y="354" type="curve" smooth="yes"/>
      <point x="155" y="354"/>
      <point x="160" y="361"/>
      <point x="168" y="376" type="curve" smooth="yes"/>
      <point x="177" y="394"/>
      <point x="189" y="408"/>
      <point x="203" y="418" type="curve" smooth="yes"/>
      <point x="224" y="433"/>
      <point x="251" y="440"/>
      <point x="286" y="440" type="curve" smooth="yes"/>
      <point x="352" y="440"/>
      <point x="406" y="414"/>
      <point x="449" y="361" type="curve" smooth="yes"/>
      <point x="475" y="330"/>
      <point x="493" y="296"/>
      <point x="502" y="260" type="curve" smooth="yes"/>
      <point x="513" y="219"/>
      <point x="515" y="185"/>
      <point x="508" y="158" type="curve"/>
      <point x="140" y="158" type="line"/>
    </contour>
    <contour>
      <point x="221" y="-298" type="line"/>
      <point x="379" y="-298" type="line"/>
      <point x="379" y="-139" type="line"/>
      <point x="221" y="-139" type="line"/>
    </contour>
    <contour>
      <point x="511" y="-354" type="curve" smooth="yes"/>
      <point x="530" y="-354"/>
      <point x="546" y="-340"/>
      <point x="557" y="-312" type="curve" smooth="yes"/>
      <point x="566" y="-290"/>
      <point x="571" y="-268"/>
      <point x="571" y="-246" type="curve" smooth="yes"/>
      <point x="571" y="-228"/>
      <point x="566" y="-207"/>
      <point x="557" y="-183" type="curve" smooth="yes"/>
      <point x="546" y="-154"/>
      <point x="534" y="-140"/>
      <point x="519" y="-140" type="curve" smooth="yes"/>
      <point x="500" y="-140"/>
      <point x="484" y="-155"/>
      <point x="472" y="-184" type="curve" smooth="yes"/>
      <point x="463" y="-207"/>
      <point x="458" y="-229"/>
      <point x="458" y="-252" type="curve" smooth="yes"/>
      <point x="458" y="-271"/>
      <point x="462" y="-292"/>
      <point x="471" y="-313" type="curve" smooth="yes"/>
      <point x="482" y="-340"/>
      <point x="495" y="-354"/>
    </contour>
  </outline>
</glyph>
<glyph name="dalathrishDotless-syriac.fina" format="2">
  <advance width="736"/>
  <note>
U0716Fina
</note>
  <anchor x="330" y="720" name="class0"/>
  <anchor x="405" y="-405" name="class0_"/>
  <anchor x="345" y="720" name="class1"/>
  <anchor x="375" y="-180" name="class2"/>
  <anchor x="360" y="-150" name="class3"/>
  <outline>
    <contour>
      <point x="140" y="0" type="line"/>
      <point x="650" y="0" type="line"/>
      <point x="664" y="63" type="line"/>
      <point x="701" y="0" type="line"/>
      <point x="736" y="0" type="line"/>
      <point x="736" y="158" type="line"/>
      <point x="664" y="158" type="line"/>
      <point x="664" y="162" type="line" smooth="yes"/>
      <point x="666" y="459"/>
      <point x="538" y="608"/>
      <point x="280" y="608" type="curve" smooth="yes"/>
      <point x="223" y="608"/>
      <point x="175" y="596"/>
      <point x="138" y="573" type="curve"/>
      <point x="138" y="403" type="line" smooth="yes"/>
      <point x="138" y="370"/>
      <point x="143" y="354"/>
      <point x="152" y="354" type="curve" smooth="yes"/>
      <point x="150" y="354"/>
      <point x="161" y="368"/>
      <point x="184" y="395" type="curve" smooth="yes"/>
      <point x="207" y="422"/>
      <point x="243" y="438"/>
      <point x="290" y="441" type="curve" smooth="yes"/>
      <point x="350" y="446"/>
      <point x="401" y="419"/>
      <point x="444" y="362" type="curve" smooth="yes"/>
      <point x="479" y="315"/>
      <point x="496" y="272"/>
      <point x="495" y="233" type="curve" smooth="yes"/>
      <point x="492" y="158" type="line"/>
      <point x="140" y="158" type="line"/>
    </contour>
    <contour>
      <point x="221" y="-298" type="line"/>
      <point x="379" y="-298" type="line"/>
      <point x="379" y="-139" type="line"/>
      <point x="221" y="-139" type="line"/>
    </contour>
  </outline>
</glyph>
<glyph name="e-syriac.fina" format="2">
  <advance width="1275"/>
  <note>
U0725Fina
</note>
  <anchor x="510" y="960" name="class0"/>
  <anchor x="750" y="-135" name="class0_"/>
  <anchor x="510" y="990" name="class1"/>
  <anchor x="630" y="-135" name="class2"/>
  <anchor x="615" y="-135" name="class3"/>
  <outline>
    <contour>
      <point x="242" y="0" type="curve" smooth="yes"/>
      <point x="809" y="0" type="line"/>
      <point x="852" y="111" type="line"/>
      <point x="903" y="59"/>
      <point x="946" y="27"/>
      <point x="980" y="14" type="curve" smooth="yes"/>
      <point x="1005" y="5"/>
      <point x="1047" y="0"/>
      <point x="1107" y="0" type="curve" smooth="yes"/>
      <point x="1275" y="0" type="line"/>
      <point x="1275" y="158" type="line"/>
      <point x="1122" y="158" type="line" smooth="yes"/>
      <point x="1076" y="158"/>
      <point x="1032" y="176"/>
      <point x="989" y="211" type="curve" smooth="yes"/>
      <point x="914" y="273"/>
      <point x="841" y="352"/>
      <point x="769" y="447" type="curve" smooth="yes"/>
      <point x="690" y="550"/>
      <point x="640" y="621"/>
      <point x="619" y="660" type="curve" smooth="yes"/>
      <point x="584" y="723"/>
      <point x="565" y="787"/>
      <point x="564" y="853" type="curve" smooth="yes"/>
      <point x="564" y="875"/>
      <point x="562" y="886"/>
      <point x="559" y="886" type="curve" smooth="yes"/>
      <point x="555" y="886"/>
      <point x="542" y="869"/>
      <point x="521" y="836" type="curve" smooth="yes"/>
      <point x="451" y="730"/>
      <point x="416" y="672"/>
      <point x="416" y="662" type="curve" smooth="yes"/>
      <point x="416" y="630"/>
      <point x="435" y="591"/>
      <point x="473" y="544" type="curve" smooth="yes"/>
      <point x="612" y="364"/>
      <point x="717" y="235"/>
      <point x="788" y="158" type="curve"/>
      <point x="242" y="158" type="line" smooth="yes"/>
      <point x="196" y="158"/>
      <point x="159" y="169"/>
      <point x="131" y="191" type="curve" smooth="yes"/>
      <point x="112" y="205"/>
      <point x="97" y="225"/>
      <point x="86" y="251" type="curve" smooth="yes"/>
      <point x="76" y="273"/>
      <point x="70" y="284"/>
      <point x="68" y="284" type="curve" smooth="yes"/>
      <point x="50" y="284"/>
      <point x="41" y="256"/>
      <point x="41" y="199" type="curve" smooth="yes"/>
      <point x="41" y="112"/>
      <point x="64" y="54"/>
      <point x="111" y="25" type="curve" smooth="yes"/>
      <point x="138" y="8"/>
      <point x="181" y="0"/>
    </contour>
  </outline>
</glyph>
<glyph name="e-syriac.init" format="2">
  <advance width="1105"/>
  <note>
U0725Init
</note>
  <anchor x="270" y="960" name="class0"/>
  <anchor x="525" y="-150" name="class0_"/>
  <anchor x="270" y="1005" name="class1"/>
  <anchor x="315" y="-120" name="class2"/>
  <anchor x="300" y="-135" name="class3"/>
  <outline>
    <contour>
      <point x="840" y="-8" type="curve" smooth="yes"/>
      <point x="984" y="-8"/>
      <point x="1056" y="76"/>
      <point x="1056" y="243" type="curve" smooth="yes"/>
      <point x="1056" y="305"/>
      <point x="1048" y="336"/>
      <point x="1031" y="336" type="curve" smooth="yes"/>
      <point x="1026" y="336"/>
      <point x="1019" y="320"/>
      <point x="1010" y="288" type="curve" smooth="yes"/>
      <point x="999" y="248"/>
      <point x="985" y="218"/>
      <point x="970" y="198" type="curve" smooth="yes"/>
      <point x="945" y="166"/>
      <point x="911" y="150"/>
      <point x="868" y="150" type="curve" smooth="yes"/>
      <point x="794" y="150"/>
      <point x="682" y="249"/>
      <point x="532" y="447" type="curve" smooth="yes"/>
      <point x="453" y="550"/>
      <point x="403" y="621"/>
      <point x="382" y="660" type="curve" smooth="yes"/>
      <point x="347" y="723"/>
      <point x="329" y="787"/>
      <point x="328" y="853" type="curve" smooth="yes"/>
      <point x="327" y="875"/>
      <point x="325" y="886"/>
      <point x="322" y="886" type="curve" smooth="yes"/>
      <point x="319" y="886"/>
      <point x="306" y="869"/>
      <point x="284" y="836" type="curve" smooth="yes"/>
      <point x="215" y="730"/>
      <point x="180" y="672"/>
      <point x="180" y="662" type="curve" smooth="yes"/>
      <point x="180" y="630"/>
      <point x="199" y="591"/>
      <point x="236" y="544" type="curve" smooth="yes"/>
      <point x="376" y="364"/>
      <point x="481" y="235"/>
      <point x="552" y="158" type="curve"/>
      <point x="0" y="158" type="line"/>
      <point x="0" y="0" type="line"/>
      <point x="572" y="0" type="line"/>
      <point x="615" y="111" type="line"/>
      <point x="661" y="65"/>
      <point x="695" y="36"/>
      <point x="716" y="23" type="curve" smooth="yes"/>
      <point x="750" y="2"/>
      <point x="791" y="-8"/>
    </contour>
  </outline>
</glyph>
<glyph name="e-syriac.medi" format="2">
  <advance width="1038"/>
  <note>
U0725Medi
</note>
  <anchor x="300" y="1005" name="class0"/>
  <anchor x="525" y="-135" name="class0_"/>
  <anchor x="270" y="990" name="class1"/>
  <anchor x="330" y="-135" name="class2"/>
  <anchor x="315" y="-120" name="class3"/>
  <outline>
    <contour>
      <point x="0" y="0" type="line"/>
      <point x="572" y="0" type="line"/>
      <point x="615" y="111" type="line"/>
      <point x="667" y="59"/>
      <point x="710" y="27"/>
      <point x="744" y="14" type="curve" smooth="yes"/>
      <point x="768" y="5"/>
      <point x="810" y="0"/>
      <point x="870" y="0" type="curve" smooth="yes"/>
      <point x="1038" y="0" type="line"/>
      <point x="1038" y="158" type="line"/>
      <point x="886" y="158" type="line" smooth="yes"/>
      <point x="839" y="158"/>
      <point x="795" y="176"/>
      <point x="753" y="211" type="curve" smooth="yes"/>
      <point x="678" y="273"/>
      <point x="605" y="352"/>
      <point x="532" y="447" type="curve" smooth="yes"/>
      <point x="453" y="551"/>
      <point x="403" y="622"/>
      <point x="382" y="659" type="curve" smooth="yes"/>
      <point x="347" y="722"/>
      <point x="329" y="787"/>
      <point x="328" y="853" type="curve" smooth="yes"/>
      <point x="327" y="875"/>
      <point x="325" y="886"/>
      <point x="322" y="886" type="curve" smooth="yes"/>
      <point x="319" y="886"/>
      <point x="306" y="869"/>
      <point x="284" y="836" type="curve" smooth="yes"/>
      <point x="215" y="730"/>
      <point x="180" y="672"/>
      <point x="180" y="662" type="curve" smooth="yes"/>
      <point x="180" y="630"/>
      <point x="199" y="591"/>
      <point x="236" y="544" type="curve" smooth="yes"/>
      <point x="376" y="364"/>
      <point x="481" y="235"/>
      <point x="552" y="158" type="curve"/>
      <point x="0" y="158" type="line"/>
    </contour>
  </outline>
</glyph>
<glyph name="gamal-syriac.fina" format="2">
  <advance width="1124"/>
  <note>
U0713Fina
</note>
  <anchor x="780" y="765" name="class0"/>
  <anchor x="585" y="-150" name="class0_"/>
  <anchor x="765" y="765" name="class1"/>
  <anchor x="420" y="-165" name="class2"/>
  <anchor x="420" y="-165" name="class3"/>
  <outline>
    <contour>
      <point x="924" y="-475" type="line"/>
      <point x="1067" y="-475" type="line"/>
      <point x="1065" y="-336" type="line"/>
      <point x="928" y="-336" type="line"/>
      <point x="690" y="0" type="line"/>
      <point x="708" y="-2"/>
      <point x="723" y="0"/>
      <point x="736" y="7" type="curve" smooth="yes"/>
      <point x="755" y="15"/>
      <point x="767" y="22"/>
      <point x="772" y="27" type="curve"/>
      <point x="784" y="59" type="line"/>
      <point x="829" y="27" type="line"/>
      <point x="865" y="11" type="line"/>
      <point x="918" y="0" type="line"/>
      <point x="1124" y="0" type="line"/>
      <point x="1124" y="158" type="line"/>
      <point x="930" y="158" type="line"/>
      <point x="863" y="196" type="line"/>
      <point x="835" y="234" type="line"/>
      <point x="522" y="876" type="line"/>
      <point x="509" y="897"/>
      <point x="503" y="920"/>
      <point x="503" y="945" type="curve" smooth="yes"/>
      <point x="503" y="954"/>
      <point x="504" y="966"/>
      <point x="506" y="979" type="curve" smooth="yes"/>
      <point x="509" y="1002" type="line"/>
      <point x="509" y="1010"/>
      <point x="506" y="1014"/>
      <point x="500" y="1014" type="curve" smooth="yes"/>
      <point x="491" y="1014"/>
      <point x="473" y="992"/>
      <point x="444" y="949" type="curve" smooth="yes"/>
      <point x="383" y="856"/>
      <point x="353" y="799"/>
      <point x="353" y="780" type="curve" smooth="yes"/>
      <point x="353" y="767"/>
      <point x="372" y="728"/>
      <point x="409" y="662" type="curve" smooth="yes"/>
      <point x="696" y="158" type="line"/>
      <point x="240" y="158" type="line" smooth="yes"/>
      <point x="195" y="158"/>
      <point x="158" y="169"/>
      <point x="130" y="191" type="curve" smooth="yes"/>
      <point x="111" y="205"/>
      <point x="96" y="225"/>
      <point x="84" y="251" type="curve" smooth="yes"/>
      <point x="74" y="273"/>
      <point x="68" y="284"/>
      <point x="67" y="284" type="curve" smooth="yes"/>
      <point x="49" y="284"/>
      <point x="40" y="256"/>
      <point x="40" y="199" type="curve" smooth="yes"/>
      <point x="40" y="112"/>
      <point x="63" y="54"/>
      <point x="110" y="25" type="curve" smooth="yes"/>
      <point x="137" y="8"/>
      <point x="180" y="0"/>
      <point x="240" y="0" type="curve" smooth="yes"/>
      <point x="520" y="0" type="line"/>
      <point x="924" y="-372" type="line"/>
    </contour>
  </outline>
</glyph>
<glyph name="gamal-syriac.init" format="2">
  <advance width="1019"/>
  <note>
U0713Init
</note>
  <anchor x="645" y="825" name="class0"/>
  <anchor x="510" y="-180" name="class0_"/>
  <anchor x="570" y="795" name="class1"/>
  <anchor x="420" y="-135" name="class2"/>
  <anchor x="375" y="-150" name="class3"/>
  <outline>
    <contour>
      <point x="934" y="-470" type="line"/>
      <point x="1076" y="-470" type="line"/>
      <point x="1076" y="-329" type="line"/>
      <point x="940" y="-329" type="line"/>
      <point x="349" y="879" type="line" smooth="yes"/>
      <point x="336" y="905"/>
      <point x="329" y="934"/>
      <point x="327" y="967" type="curve" smooth="yes"/>
      <point x="326" y="991"/>
      <point x="324" y="1003"/>
      <point x="322" y="1003" type="curve" smooth="yes"/>
      <point x="319" y="1003"/>
      <point x="306" y="987"/>
      <point x="284" y="954" type="curve" smooth="yes"/>
      <point x="215" y="847"/>
      <point x="180" y="789"/>
      <point x="180" y="780" type="curve" smooth="yes"/>
      <point x="180" y="769"/>
      <point x="199" y="730"/>
      <point x="236" y="662" type="curve" smooth="yes"/>
      <point x="515" y="158" type="line"/>
      <point x="0" y="158" type="line"/>
      <point x="0" y="0" type="line"/>
      <point x="643" y="0" type="line"/>
      <point x="934" y="-366" type="line"/>
    </contour>
  </outline>
</glyph>
<glyph name="gamal-syriac.medi" format="2">
  <advance width="963"/>
  <anchor x="645" y="795" name="class0"/>
  <anchor x="330" y="-165" name="class0_"/>
  <anchor x="585" y="825" name="class1"/>
  <anchor x="255" y="-150" name="class2"/>
  <anchor x="270" y="-135" name="class3"/>
  <outline>
    <contour>
      <point x="763" y="-475" type="line"/>
      <point x="906" y="-475" type="line"/>
      <point x="906" y="-335" type="line"/>
      <point x="762" y="-336" type="line"/>
      <point x="529" y="0" type="line"/>
      <point x="547" y="-2"/>
      <point x="562" y="0"/>
      <point x="575" y="7" type="curve" smooth="yes"/>
      <point x="594" y="15"/>
      <point x="606" y="22"/>
      <point x="611" y="27" type="curve"/>
      <point x="623" y="59" type="line"/>
      <point x="668" y="27" type="line"/>
      <point x="704" y="11" type="line"/>
      <point x="757" y="0" type="line"/>
      <point x="963" y="0" type="line"/>
      <point x="963" y="158" type="line"/>
      <point x="769" y="158" type="line"/>
      <point x="702" y="196" type="line"/>
      <point x="674" y="234" type="line"/>
      <point x="361" y="876" type="line"/>
      <point x="348" y="897"/>
      <point x="342" y="920"/>
      <point x="342" y="945" type="curve" smooth="yes"/>
      <point x="342" y="954"/>
      <point x="343" y="966"/>
      <point x="345" y="979" type="curve" smooth="yes"/>
      <point x="348" y="1002" type="line"/>
      <point x="348" y="1010"/>
      <point x="345" y="1014"/>
      <point x="339" y="1014" type="curve" smooth="yes"/>
      <point x="330" y="1014"/>
      <point x="312" y="992"/>
      <point x="283" y="949" type="curve" smooth="yes"/>
      <point x="222" y="856"/>
      <point x="192" y="799"/>
      <point x="192" y="780" type="curve" smooth="yes"/>
      <point x="192" y="767"/>
      <point x="211" y="728"/>
      <point x="248" y="662" type="curve" smooth="yes"/>
      <point x="535" y="158" type="line"/>
      <point x="0" y="158" type="line"/>
      <point x="0" y="0" type="line"/>
      <point x="359" y="0" type="line"/>
      <point x="763" y="-372" type="line"/>
    </contour>
  </outline>
</glyph>
<glyph name="gamalgarshuni-syriac.fina" format="2">
  <advance width="1184"/>
  <note>
U0714Fina
</note>
  <anchor x="960" y="885" name="class0"/>
  <anchor x="615" y="-165" name="class0_"/>
  <anchor x="930" y="885" name="class1"/>
  <anchor x="540" y="-150" name="class2"/>
  <anchor x="585" y="-135" name="class3"/>
  <outline>
    <contour>
      <point x="1167" y="-470" type="line"/>
      <point x="1309" y="-470" type="line"/>
      <point x="1309" y="-329" type="line"/>
      <point x="1173" y="-329" type="line"/>
      <point x="1012" y="0" type="line"/>
      <point x="1184" y="0" type="line"/>
      <point x="1184" y="158" type="line"/>
      <point x="935" y="158" type="line"/>
      <point x="583" y="879" type="line" smooth="yes"/>
      <point x="570" y="905"/>
      <point x="562" y="934"/>
      <point x="560" y="967" type="curve" smooth="yes"/>
      <point x="559" y="991"/>
      <point x="557" y="1003"/>
      <point x="555" y="1003" type="curve" smooth="yes"/>
      <point x="552" y="1003"/>
      <point x="539" y="987"/>
      <point x="517" y="954" type="curve" smooth="yes"/>
      <point x="448" y="847"/>
      <point x="413" y="789"/>
      <point x="413" y="780" type="curve" smooth="yes"/>
      <point x="413" y="769"/>
      <point x="432" y="730"/>
      <point x="469" y="662" type="curve" smooth="yes"/>
      <point x="596" y="433" type="line"/>
      <point x="385" y="158" type="line"/>
      <point x="213" y="158" type="line" smooth="yes"/>
      <point x="168" y="158"/>
      <point x="131" y="169"/>
      <point x="103" y="191" type="curve" smooth="yes"/>
      <point x="84" y="205"/>
      <point x="69" y="225"/>
      <point x="57" y="251" type="curve" smooth="yes"/>
      <point x="47" y="273"/>
      <point x="41" y="284"/>
      <point x="40" y="284" type="curve" smooth="yes"/>
      <point x="22" y="284"/>
      <point x="13" y="256"/>
      <point x="13" y="199" type="curve" smooth="yes"/>
      <point x="13" y="112"/>
      <point x="36" y="54"/>
      <point x="83" y="25" type="curve" smooth="yes"/>
      <point x="110" y="8"/>
      <point x="153" y="0"/>
      <point x="213" y="0" type="curve" smooth="yes"/>
      <point x="876" y="0" type="line"/>
      <point x="1167" y="-366" type="line"/>
    </contour>
    <contour>
      <point x="469" y="158" type="line"/>
      <point x="632" y="368" type="line"/>
      <point x="748" y="158" type="line"/>
    </contour>
  </outline>
</glyph>
<glyph name="gamalgarshuni-syriac.init" format="2">
  <advance width="1048"/>
  <note>
U0714Init
</note>
  <anchor x="645" y="855" name="class0"/>
  <anchor x="465" y="-150" name="class0_"/>
  <anchor x="570" y="840" name="class1"/>
  <anchor x="360" y="-135" name="class2"/>
  <anchor x="330" y="-150" name="class3"/>
  <outline>
    <contour>
      <point x="948" y="-470" type="line"/>
      <point x="1090" y="-470" type="line"/>
      <point x="1090" y="-329" type="line"/>
      <point x="954" y="-329" type="line"/>
      <point x="363" y="879" type="line" smooth="yes"/>
      <point x="350" y="905"/>
      <point x="343" y="934"/>
      <point x="341" y="967" type="curve" smooth="yes"/>
      <point x="340" y="991"/>
      <point x="338" y="1003"/>
      <point x="336" y="1003" type="curve" smooth="yes"/>
      <point x="333" y="1003"/>
      <point x="320" y="987"/>
      <point x="298" y="954" type="curve" smooth="yes"/>
      <point x="229" y="847"/>
      <point x="194" y="789"/>
      <point x="194" y="780" type="curve" smooth="yes"/>
      <point x="194" y="769"/>
      <point x="213" y="730"/>
      <point x="250" y="662" type="curve" smooth="yes"/>
      <point x="377" y="433" type="line"/>
      <point x="166" y="158" type="line"/>
      <point x="2" y="158" type="line"/>
      <point x="2" y="0" type="line"/>
      <point x="657" y="0" type="line"/>
      <point x="948" y="-366" type="line"/>
    </contour>
    <contour>
      <point x="250" y="158" type="line"/>
      <point x="413" y="368" type="line"/>
      <point x="529" y="158" type="line"/>
    </contour>
  </outline>
</glyph>
<glyph name="gamalgarshuni-syriac.medi" format="2">
  <advance width="936"/>
  <note>
U0714Medi
</note>
  <anchor x="645" y="855" name="class0"/>
  <anchor x="300" y="-135" name="class0_"/>
  <anchor x="585" y="840" name="class1"/>
  <anchor x="270" y="-165" name="class2"/>
  <anchor x="315" y="-150" name="class3"/>
  <outline>
    <contour>
      <point x="948" y="-470" type="line"/>
      <point x="1090" y="-470" type="line"/>
      <point x="1090" y="-329" type="line"/>
      <point x="954" y="-329" type="line"/>
      <point x="793" y="0" type="line"/>
      <point x="965" y="0" type="line"/>
      <point x="965" y="158" type="line"/>
      <point x="716" y="158" type="line"/>
      <point x="363" y="879" type="line" smooth="yes"/>
      <point x="350" y="905"/>
      <point x="343" y="934"/>
      <point x="341" y="967" type="curve" smooth="yes"/>
      <point x="340" y="991"/>
      <point x="338" y="1003"/>
      <point x="336" y="1003" type="curve" smooth="yes"/>
      <point x="333" y="1003"/>
      <point x="320" y="987"/>
      <point x="298" y="954" type="curve" smooth="yes"/>
      <point x="229" y="847"/>
      <point x="194" y="789"/>
      <point x="194" y="780" type="curve" smooth="yes"/>
      <point x="194" y="769"/>
      <point x="213" y="730"/>
      <point x="250" y="662" type="curve" smooth="yes"/>
      <point x="377" y="433" type="line"/>
      <point x="166" y="158" type="line"/>
      <point x="2" y="158" type="line"/>
      <point x="2" y="0" type="line"/>
      <point x="657" y="0" type="line"/>
      <point x="948" y="-366" type="line"/>
    </contour>
    <contour>
      <point x="250" y="158" type="line"/>
      <point x="413" y="368" type="line"/>
      <point x="529" y="158" type="line"/>
    </contour>
  </outline>
</glyph>
<glyph name="greater.latn" format="2">
  <advance width="757"/>
  <outline>
    <contour>
      <point x="683" y="300" type="line"/>
      <point x="683" y="413" type="line"/>
      <point x="74" y="674" type="line"/>
      <point x="74" y="558" type="line"/>
      <point x="638" y="319" type="line"/>
      <point x="638" y="392" type="line"/>
      <point x="74" y="153" type="line"/>
      <point x="74" y="40" type="line"/>
    </contour>
  </outline>
</glyph>
<glyph name="he-syriac.fina" format="2">
  <advance width="972"/>
  <note>
U0717Fina
</note>
  <anchor x="450" y="765" name="class0"/>
  <anchor x="480" y="-150" name="class0_"/>
  <anchor x="435" y="750" name="class1"/>
  <anchor x="450" y="-150" name="class2"/>
  <anchor x="495" y="-135" name="class3"/>
  <outline>
    <contour>
      <point x="874" y="-148" type="curve" smooth="yes"/>
      <point x="882" y="-148"/>
      <point x="886" y="-138"/>
      <point x="886" y="-117" type="curve" smooth="yes"/>
      <point x="884" y="0" type="line"/>
      <point x="972" y="0" type="line"/>
      <point x="972" y="158" type="line"/>
      <point x="883" y="158" type="line"/>
      <point x="878" y="616" type="line" smooth="yes"/>
      <point x="878" y="636"/>
      <point x="875" y="646"/>
      <point x="868" y="646" type="curve" smooth="yes"/>
      <point x="865" y="646"/>
      <point x="855" y="638"/>
      <point x="837" y="623" type="curve" smooth="yes"/>
      <point x="819" y="608"/>
      <point x="796" y="600"/>
      <point x="769" y="600" type="curve" smooth="yes"/>
      <point x="333" y="600" type="line" smooth="yes"/>
      <point x="269" y="600"/>
      <point x="216" y="564"/>
      <point x="173" y="491" type="curve" smooth="yes"/>
      <point x="136" y="429"/>
      <point x="117" y="365"/>
      <point x="117" y="298" type="curve" smooth="yes"/>
      <point x="117" y="205"/>
      <point x="145" y="130"/>
      <point x="201" y="74" type="curve" smooth="yes"/>
      <point x="255" y="19"/>
      <point x="325" y="-8"/>
      <point x="412" y="-8" type="curve" smooth="yes"/>
      <point x="532" y="-8"/>
      <point x="611" y="40"/>
      <point x="650" y="137" type="curve" smooth="yes"/>
      <point x="673" y="195"/>
      <point x="685" y="297"/>
      <point x="685" y="442" type="curve"/>
      <point x="812" y="442" type="line"/>
      <point x="858" y="-118" type="line" smooth="yes"/>
      <point x="860" y="-138"/>
      <point x="865" y="-148"/>
    </contour>
    <contour>
      <point x="412" y="150" type="curve" smooth="yes"/>
      <point x="368" y="150"/>
      <point x="330" y="170"/>
      <point x="297" y="209" type="curve" smooth="yes"/>
      <point x="266" y="246"/>
      <point x="251" y="286"/>
      <point x="251" y="329" type="curve" smooth="yes"/>
      <point x="251" y="353"/>
      <point x="258" y="377"/>
      <point x="273" y="401" type="curve" smooth="yes"/>
      <point x="291" y="428"/>
      <point x="313" y="442"/>
      <point x="338" y="442" type="curve" smooth="yes"/>
      <point x="574" y="442" type="line"/>
      <point x="580" y="410"/>
      <point x="583" y="383"/>
      <point x="583" y="360" type="curve" smooth="yes"/>
      <point x="583" y="220"/>
      <point x="526" y="150"/>
    </contour>
  </outline>
</glyph>
